%FSTAX23Y23*%
%MOIN*%
%SFA1B1*%

%IPPOS*%
%ADD10C,0.010000*%
%ADD60C,0.003940*%
%ADD61C,0.007000*%
%ADD62C,0.002000*%
%LNpcb3-g-1*%
%LPD*%
G54D10*
X0534Y0291D02*
Y03547D01*
Y0291D02*
X06282D01*
Y03547*
X0534D02*
X06282D01*
G54D60*
X0689Y03295D02*
Y03571D01*
Y03295D02*
X07087D01*
X0689Y03571D02*
X07087D01*
Y03295D02*
Y03571D01*
X05105Y02818D02*
X0517D01*
X05105Y02945D02*
X0517D01*
X05105Y02818D02*
Y02945D01*
X0517Y02818D02*
Y02945D01*
X06611Y02893D02*
Y02979D01*
X06554Y02893D02*
Y02979D01*
X06611*
X06554Y02893D02*
X06611D01*
X06554Y0349D02*
Y03577D01*
X06611Y0349D02*
Y03577D01*
X06554Y0349D02*
X06611D01*
X06554Y03577D02*
X06611D01*
X05104Y03519D02*
Y03605D01*
X05161Y03519D02*
Y03605D01*
X05104Y03519D02*
X05161D01*
X05104Y03605D02*
X05161D01*
X04419Y03087D02*
X04674D01*
X04419Y0285D02*
Y03087D01*
Y0285D02*
X04674D01*
Y03087*
X05163Y03293D02*
Y0338D01*
X05106Y03293D02*
Y0338D01*
X05163*
X05106Y03293D02*
X05163D01*
X064Y03577D02*
X06465D01*
X064Y03449D02*
X06465D01*
Y03577*
X064Y03449D02*
Y03577D01*
X01799Y03247D02*
Y03372D01*
X01736Y03247D02*
X01799D01*
X01736Y03372D02*
X01799D01*
X01736Y03247D02*
Y03372D01*
X03898Y03462D02*
X03969D01*
X03898Y03595D02*
X03969D01*
X03898Y03462D02*
Y03595D01*
X03969Y03462D02*
Y03595D01*
X02178Y03247D02*
Y03372D01*
X02115Y03247D02*
X02178D01*
X02115Y03372D02*
X02178D01*
X02115Y03247D02*
Y03372D01*
X04144Y03462D02*
X04215D01*
X04144Y03595D02*
X04215D01*
X04144Y03462D02*
Y03595D01*
X04215Y03462D02*
Y03595D01*
X064Y03021D02*
X06465D01*
X064Y02893D02*
X06465D01*
Y03021*
X064Y02893D02*
Y03021D01*
X02518Y03247D02*
Y03372D01*
X02455Y03247D02*
X02518D01*
X02455Y03372D02*
X02518D01*
X02455Y03247D02*
Y03372D01*
X03898Y03169D02*
X03969D01*
X03898Y03302D02*
X03969D01*
X03898Y03169D02*
Y03302D01*
X03969Y03169D02*
Y03302D01*
X02898Y03247D02*
Y03372D01*
X02835Y03247D02*
X02898D01*
X02835Y03372D02*
X02898D01*
X02835Y03247D02*
Y03372D01*
X05105Y03179D02*
X0517D01*
X05105Y03051D02*
X0517D01*
Y03179*
X05105Y03051D02*
Y03179D01*
X04441Y03241D02*
Y03595D01*
X04583Y03241D02*
Y03595D01*
X04441Y03241D02*
X04583D01*
X04441Y03595D02*
X04583D01*
X04144Y03169D02*
X04215D01*
X04144Y03302D02*
X04215D01*
X04144Y03169D02*
Y03302D01*
X04215Y03169D02*
Y03302D01*
X03249Y03247D02*
Y03372D01*
X03186Y03247D02*
X03249D01*
X03186Y03372D02*
X03249D01*
X03186Y03247D02*
Y03372D01*
X03898Y02863D02*
X03969D01*
X03898Y02997D02*
X03969D01*
X03898Y02863D02*
Y02997D01*
X03969Y02863D02*
Y02997D01*
X03607Y03247D02*
Y03372D01*
X03544Y03247D02*
X03607D01*
X03544Y03372D02*
X03607D01*
X03544Y03247D02*
Y03372D01*
X04144Y02863D02*
X04215D01*
X04144Y02997D02*
X04215D01*
X04144Y02863D02*
Y02997D01*
X04215Y02863D02*
Y02997D01*
G54D61*
X0137Y03915D02*
X07058D01*
X01376Y0254D02*
Y03916D01*
X01359Y02541D02*
X07059D01*
X07059Y02541D02*
Y03915D01*
X01376D02*
X07059D01*
G54D62*
X0606Y03549D02*
X06282D01*
Y02909D02*
Y03549D01*
X0606Y02909D02*
X06282D01*
X0606D02*
Y03549D01*
X06251Y03532D02*
X06252Y03534D01*
Y03537*
X06251Y03539*
X06244*
X06242Y03537*
Y03534*
X06244Y03532*
X06252Y03529D02*
X06244D01*
X06242Y03527*
Y03524*
X06244Y03522*
X06252*
Y03519D02*
Y03512D01*
Y03515*
X06242*
X06252Y03504D02*
Y03507D01*
X06251Y03509*
X06244*
X06242Y03507*
Y03504*
X06244Y03502*
X06251*
X06252Y03504*
Y03499D02*
X06244D01*
X06242Y03497*
Y03494*
X06244Y03492*
X06252*
Y03489D02*
Y03482D01*
Y03485*
X06242*
Y03469D02*
X06252D01*
Y03464*
X06251Y03462*
X06247*
X06246Y03464*
Y03469*
X06252Y03454D02*
Y03457D01*
X06251Y03459*
X06244*
X06242Y03457*
Y03454*
X06244Y03452*
X06251*
X06252Y03454*
Y03449D02*
X06242D01*
Y03442*
X06252Y03439D02*
X06251D01*
X06247Y03435*
X06251Y03432*
X06252*
X06247Y03435D02*
X06242D01*
X06251Y03422D02*
X06252Y03424D01*
Y03427*
X06251Y03429*
X06244*
X06242Y03427*
Y03424*
X06244Y03422*
X06247*
Y03425*
X06252Y03414D02*
Y03417D01*
X06251Y03419*
X06244*
X06242Y03417*
Y03414*
X06244Y03412*
X06251*
X06252Y03414*
X06242Y03409D02*
X06252D01*
X06242Y03402*
X06252*
X06262Y03539D02*
X06269D01*
X06272Y03535*
X06269Y03532*
X06262*
X06267*
Y03539*
X06262Y03529D02*
X06272D01*
X06262Y03522*
X06272*
Y03519D02*
Y03512D01*
Y03515*
X06262*
X06272Y03502D02*
Y03509D01*
X06262*
Y03502*
X06267Y03509D02*
Y03505D01*
X06262Y03499D02*
X06272D01*
X06262Y03492*
X06272*
X06262Y03489D02*
X06272D01*
X06262Y03482*
X06272*
X06262Y03479D02*
X06269D01*
X06272Y03475*
X06269Y03472*
X06262*
X06267*
Y03479*
X06262Y03459D02*
X06269D01*
X06272Y03455*
X06269Y03452*
X06262*
X06267*
Y03459*
X06262Y03449D02*
X06272D01*
Y03444*
X06271Y03442*
X06267*
X06266Y03444*
Y03449*
Y03445D02*
X06262Y03442D01*
X06272Y03432D02*
Y03439D01*
X06262*
Y03432*
X06267Y03439D02*
Y03435D01*
X06262Y03429D02*
X06269D01*
X06272Y03425*
X06269Y03422*
X06262*
X06267*
Y03429*
M02*