%FSTAX23Y23*%
%MOIN*%
%SFA1B1*%

%IPPOS*%
%ADD10C,0.010000*%
%ADD60C,0.003940*%
%ADD63C,0.001970*%
%LNpcb3-g-1*%
%LPD*%
G54D10*
X05303Y03582D02*
X06282D01*
Y02875D02*
Y03582D01*
X05303Y02875D02*
X06282D01*
X05303D02*
Y03582D01*
G54D60*
X0693Y03433D02*
X06969D01*
X06949Y03413D02*
Y03453D01*
X05138Y02862D02*
Y02901D01*
X05118Y02882D02*
X05157D01*
X06563Y02936D02*
X06602D01*
X06583Y02916D02*
Y02956D01*
X06563Y03534D02*
X06602D01*
X06583Y03514D02*
Y03553D01*
X05113Y03562D02*
X05152D01*
X05133Y03542D02*
Y03582D01*
X04547Y02949D02*
Y02988D01*
X04527Y02969D02*
X04566D01*
X05115Y03336D02*
X05154D01*
X05135Y03317D02*
Y03356D01*
X05801Y03229D02*
X05821D01*
X05811Y03219D02*
Y03239D01*
X06433Y03493D02*
Y03533D01*
X06413Y03513D02*
X06452D01*
X01748Y0331D02*
X01787D01*
X01768Y0329D02*
Y03329D01*
X03934Y03509D02*
Y03548D01*
X03914Y03529D02*
X03953D01*
X02127Y0331D02*
X02166D01*
X02147Y0329D02*
Y03329D01*
X0418Y03509D02*
Y03548D01*
X0416Y03529D02*
X04199D01*
X06433Y02937D02*
Y02976D01*
X06413Y02957D02*
X06452D01*
X02467Y0331D02*
X02506D01*
X02487Y0329D02*
Y03329D01*
X03934Y03216D02*
Y03255D01*
X03914Y03236D02*
X03953D01*
X02847Y0331D02*
X02886D01*
X02867Y0329D02*
Y03329D01*
X05138Y03096D02*
Y03135D01*
X05118Y03115D02*
X05157D01*
X04512Y03398D02*
Y03438D01*
X04493Y03418D02*
X04532D01*
X0418Y03216D02*
Y03255D01*
X0416Y03236D02*
X04199D01*
X03198Y0331D02*
X03237D01*
X03218Y0329D02*
Y03329D01*
X03934Y0291D02*
Y02949D01*
X03914Y0293D02*
X03953D01*
X03556Y0331D02*
X03595D01*
X03576Y0329D02*
Y03329D01*
X0418Y0291D02*
Y02949D01*
X0416Y0293D02*
X04199D01*
G54D63*
X06866Y03271D02*
X07112D01*
Y03596*
X06866Y03271D02*
Y03596D01*
X07112*
X051Y02807D02*
X05175D01*
X051Y02956D02*
X05175D01*
X051Y02807D02*
Y02956D01*
X05175Y02807D02*
Y02956D01*
X06616Y02883D02*
Y02989D01*
X06549Y02883D02*
Y02989D01*
X06616*
X06549Y02883D02*
X06616D01*
X06549Y0348D02*
Y03587D01*
X06616Y0348D02*
Y03587D01*
X06549Y0348D02*
X06616D01*
X06549Y03587D02*
X06616D01*
X05099Y03509D02*
Y03615D01*
X05166Y03509D02*
Y03615D01*
X05099Y03509D02*
X05166D01*
X05099Y03615D02*
X05166D01*
X04346Y03091D02*
X04747D01*
X04346Y02846D02*
Y03091D01*
Y02846D02*
X04747D01*
Y03091*
X05174Y03269D02*
Y03403D01*
X05095Y03269D02*
Y03403D01*
X05174*
X05095Y03269D02*
X05174D01*
X06395Y03588D02*
X0647D01*
X06395Y03438D02*
X0647D01*
Y03588*
X06395Y03438D02*
Y03588D01*
X01801Y03207D02*
Y03412D01*
X01734Y03207D02*
X01801D01*
X01734Y03412D02*
X01801D01*
X01734Y03207D02*
Y03412D01*
X03894Y03452D02*
X03973D01*
X03894Y03605D02*
X03973D01*
X03894Y03452D02*
Y03605D01*
X03973Y03452D02*
Y03605D01*
X0218Y03207D02*
Y03412D01*
X02113Y03207D02*
X0218D01*
X02113Y03412D02*
X0218D01*
X02113Y03207D02*
Y03412D01*
X0414Y03452D02*
X04219D01*
X0414Y03605D02*
X04219D01*
X0414Y03452D02*
Y03605D01*
X04219Y03452D02*
Y03605D01*
X06395Y03032D02*
X0647D01*
X06395Y02882D02*
X0647D01*
Y03032*
X06395Y02882D02*
Y03032D01*
X0252Y03207D02*
Y03412D01*
X02453Y03207D02*
X0252D01*
X02453Y03412D02*
X0252D01*
X02453Y03207D02*
Y03412D01*
X03894Y03159D02*
X03973D01*
X03894Y03312D02*
X03973D01*
X03894Y03159D02*
Y03312D01*
X03973Y03159D02*
Y03312D01*
X029Y03207D02*
Y03412D01*
X02833Y03207D02*
X029D01*
X02833Y03412D02*
X029D01*
X02833Y03207D02*
Y03412D01*
X051Y0319D02*
X05175D01*
X051Y0304D02*
X05175D01*
Y0319*
X051Y0304D02*
Y0319D01*
X04351Y03237D02*
Y03599D01*
Y03237D02*
X04674D01*
X04351Y03599D02*
X04674D01*
Y03237D02*
Y03599D01*
X0414Y03159D02*
X04219D01*
X0414Y03312D02*
X04219D01*
X0414Y03159D02*
Y03312D01*
X04219Y03159D02*
Y03312D01*
X03251Y03207D02*
Y03412D01*
X03184Y03207D02*
X03251D01*
X03184Y03412D02*
X03251D01*
X03184Y03207D02*
Y03412D01*
X03894Y02853D02*
X03973D01*
X03894Y03006D02*
X03973D01*
X03894Y02853D02*
Y03006D01*
X03973Y02853D02*
Y03006D01*
X03609Y03207D02*
Y03412D01*
X03542Y03207D02*
X03609D01*
X03542Y03412D02*
X03609D01*
X03542Y03207D02*
Y03412D01*
X0414Y02853D02*
X04219D01*
X0414Y03006D02*
X04219D01*
X0414Y02853D02*
Y03006D01*
X04219Y02853D02*
Y03006D01*
M02*