%FSTAX23Y23*%
%MOIN*%
%SFA1B1*%

%IPPOS*%
%ADD10C,0.010000*%
%ADD31C,0.015000*%
%ADD32R,0.069020X0.067060*%
%ADD33R,0.061150X0.023750*%
%ADD34R,0.096000X0.056000*%
%ADD35R,0.094610X0.149730*%
%ADD36R,0.069020X0.043430*%
%ADD37R,0.061150X0.051310*%
%ADD38R,0.133980X0.047370*%
%ADD39R,0.065090X0.059180*%
%ADD40R,0.047370X0.096580*%
%ADD41R,0.067060X0.067060*%
%ADD42R,0.074930X0.051310*%
%ADD43R,0.106420X0.055240*%
%ADD44R,0.069020X0.055240*%
%ADD45O,0.069020X0.043430*%
%ADD46O,0.045400X0.057210*%
%ADD47R,0.067060X0.067060*%
%ADD48C,0.067060*%
%ADD49C,0.033000*%
%ADD50C,0.098000*%
%LNpcb3-g-1*%
%LPD*%
G36*
X02775Y03855D02*
X02764D01*
Y03915*
X02775*
Y03855*
G37*
G36*
X0265D02*
X02639D01*
Y03915*
X0265*
Y03855*
G37*
G36*
X02525D02*
X02514D01*
Y03915*
X02525*
Y03855*
G37*
G36*
X02275D02*
X02264D01*
Y03915*
X02275*
Y03855*
G37*
G36*
X0215D02*
X02139D01*
Y03915*
X0215*
Y03855*
G37*
G36*
X02025D02*
X02014D01*
Y03915*
X02025*
Y03855*
G37*
G36*
X01775D02*
X01764D01*
Y03915*
X01775*
Y03855*
G37*
G36*
X0165D02*
X01639D01*
Y03915*
X0165*
Y03855*
G37*
G36*
X01525D02*
X01514D01*
Y03915*
X01525*
Y03855*
G37*
G36*
X019Y03816D02*
X01889D01*
Y03915*
X019*
Y03816*
G37*
G36*
X024Y03777D02*
X02389D01*
Y03915*
X024*
Y03777*
G37*
G36*
X014D02*
X01389D01*
Y03915*
X014*
Y03777*
G37*
G36*
X02768Y02542D02*
X02761D01*
Y02621*
X02768*
Y02542*
G37*
G36*
X02729D02*
X02721D01*
Y02582*
X02729*
Y02542*
G37*
G36*
X0269D02*
X02682D01*
Y02582*
X0269*
Y02542*
G37*
G36*
X0265D02*
X02643D01*
Y02582*
X0265*
Y02542*
G37*
G36*
X02611D02*
X02603D01*
Y02582*
X02611*
Y02542*
G37*
G36*
X02574D02*
X02562D01*
Y02661*
X02574*
Y02542*
G37*
G36*
X02532D02*
X02524D01*
Y02582*
X02532*
Y02542*
G37*
G36*
X02493D02*
X02485D01*
Y02582*
X02493*
Y02542*
G37*
G36*
X02454D02*
X02446D01*
Y02582*
X02454*
Y02542*
G37*
G36*
X02414D02*
X02406D01*
Y02582*
X02414*
Y02542*
G37*
G36*
X02375D02*
X02367D01*
Y02621*
X02375*
Y02542*
G37*
G36*
X02335D02*
X02328D01*
Y02582*
X02335*
Y02542*
G37*
G36*
X02296D02*
X02288D01*
Y02582*
X02296*
Y02542*
G37*
G36*
X02257D02*
X02249D01*
Y02582*
X02257*
Y02542*
G37*
G36*
X02217D02*
X02209D01*
Y02582*
X02217*
Y02542*
G37*
G36*
X0218D02*
X02168D01*
Y02661*
X0218*
Y02542*
G37*
G36*
X02139D02*
X02131D01*
Y02582*
X02139*
Y02542*
G37*
G36*
X02099D02*
X02091D01*
Y02582*
X02099*
Y02542*
G37*
G36*
X0206D02*
X02052D01*
Y02582*
X0206*
Y02542*
G37*
G36*
X0202D02*
X02013D01*
Y02582*
X0202*
Y02542*
G37*
G36*
X01981D02*
X01973D01*
Y02621*
X01981*
Y02542*
G37*
G36*
X01942D02*
X01934D01*
Y02582*
X01942*
Y02542*
G37*
G36*
X01902D02*
X01894D01*
Y02582*
X01902*
Y02542*
G37*
G36*
X01863D02*
X01855D01*
Y02582*
X01863*
Y02542*
G37*
G36*
X01824D02*
X01816D01*
Y02582*
X01824*
Y02542*
G37*
G36*
X01786D02*
X01786D01*
Y02542*
X01774*
Y0266*
X01774*
Y02661*
X01786*
Y02542*
G37*
G36*
X01745Y02542D02*
X01737D01*
Y02582*
X01745*
Y02542*
G37*
G36*
X01705D02*
X01697D01*
Y02582*
X01705*
Y02542*
G37*
G36*
X01666D02*
X01658D01*
Y02582*
X01666*
Y02542*
G37*
G36*
X01627D02*
X01619D01*
Y02582*
X01627*
Y02542*
G37*
G36*
X01587D02*
X01579D01*
Y02621*
X01587*
Y02542*
G37*
G36*
X01548D02*
X0154D01*
Y02582*
X01548*
Y02542*
G37*
G36*
X01508D02*
X01501D01*
Y02582*
X01508*
Y02542*
G37*
G36*
X01469D02*
X01461D01*
Y02582*
X01469*
Y02542*
G37*
G36*
X0143D02*
X01422D01*
Y02582*
X0143*
Y02542*
G37*
G36*
X01392D02*
X0138D01*
Y0266*
X01392*
Y02542*
G37*
G36*
X03275Y03855D02*
X03264D01*
Y03915*
X03275*
Y03855*
G37*
G36*
X0315D02*
X03139D01*
Y03915*
X0315*
Y03855*
G37*
G36*
X03025D02*
X03014D01*
Y03915*
X03025*
Y03855*
G37*
G36*
X029Y03816D02*
X02889D01*
Y03915*
X029*
Y03816*
G37*
G36*
X034Y03777D02*
X03389D01*
Y03915*
X034*
Y03777*
G37*
G36*
X03477Y02542D02*
X03469D01*
Y02582*
X03477*
Y02542*
G37*
G36*
X03438D02*
X0343D01*
Y02582*
X03438*
Y02542*
G37*
G36*
X03398D02*
X03391D01*
Y02582*
X03398*
Y02542*
G37*
G36*
X03361D02*
X03349D01*
Y02661*
X03361*
Y02542*
G37*
G36*
X0332D02*
X03312D01*
Y02582*
X0332*
Y02542*
G37*
G36*
X0328D02*
X03272D01*
Y02582*
X0328*
Y02542*
G37*
G36*
X03241D02*
X03233D01*
Y02582*
X03241*
Y02542*
G37*
G36*
X03202D02*
X03194D01*
Y02582*
X03202*
Y02542*
G37*
G36*
X03162D02*
X03154D01*
Y02621*
X03162*
Y02542*
G37*
G36*
X03123D02*
X03115D01*
Y02582*
X03123*
Y02542*
G37*
G36*
X03083D02*
X03076D01*
Y02582*
X03083*
Y02542*
G37*
G36*
X03044D02*
X03036D01*
Y02582*
X03044*
Y02542*
G37*
G36*
X03005D02*
X02997D01*
Y02582*
X03005*
Y02542*
G37*
G36*
X02967D02*
X02955D01*
Y02661*
X02967*
Y02542*
G37*
G36*
X02926D02*
X02918D01*
Y02582*
X02926*
Y02542*
G37*
G36*
X02887D02*
X02879D01*
Y02582*
X02887*
Y02542*
G37*
G36*
X02847D02*
X02839D01*
Y02582*
X02847*
Y02542*
G37*
G36*
X02808D02*
X028D01*
Y02582*
X02808*
Y02542*
G37*
G36*
X0415Y03855D02*
X04139D01*
Y03915*
X0415*
Y03855*
G37*
G36*
X04025D02*
X04014D01*
Y03915*
X04025*
Y03855*
G37*
G36*
X03775D02*
X03764D01*
Y03915*
X03775*
Y03855*
G37*
G36*
X0365D02*
X03639D01*
Y03915*
X0365*
Y03855*
G37*
G36*
X03525D02*
X03514D01*
Y03915*
X03525*
Y03855*
G37*
G36*
X039Y03816D02*
X03889D01*
Y03915*
X039*
Y03816*
G37*
G36*
X04186Y02542D02*
X04178D01*
Y02582*
X04186*
Y02542*
G37*
G36*
X04148D02*
X04137D01*
Y02661*
X04148*
Y02542*
G37*
G36*
X04107D02*
X04099D01*
Y02582*
X04107*
Y02542*
G37*
G36*
X04068D02*
X0406D01*
Y02582*
X04068*
Y02542*
G37*
G36*
X04028D02*
X0402D01*
Y02582*
X04028*
Y02542*
G37*
G36*
X03989D02*
X03981D01*
Y02582*
X03989*
Y02542*
G37*
G36*
X0395D02*
X03942D01*
Y02621*
X0395*
Y02542*
G37*
G36*
X0391D02*
X03902D01*
Y02582*
X0391*
Y02542*
G37*
G36*
X03871D02*
X03863D01*
Y02582*
X03871*
Y02542*
G37*
G36*
X03831D02*
X03824D01*
Y02582*
X03831*
Y02542*
G37*
G36*
X03792D02*
X03784D01*
Y02582*
X03792*
Y02542*
G37*
G36*
X03755D02*
X03743D01*
Y02661*
X03755*
Y02542*
G37*
G36*
X03713D02*
X03705D01*
Y02582*
X03713*
Y02542*
G37*
G36*
X03674D02*
X03666D01*
Y02582*
X03674*
Y02542*
G37*
G36*
X03635D02*
X03627D01*
Y02582*
X03635*
Y02542*
G37*
G36*
X03595D02*
X03587D01*
Y02582*
X03595*
Y02542*
G37*
G36*
X03556D02*
X03548D01*
Y02621*
X03556*
Y02542*
G37*
G36*
X03517D02*
X03509D01*
Y02582*
X03517*
Y02542*
G37*
G36*
X04775Y03855D02*
X04764D01*
Y03915*
X04775*
Y03855*
G37*
G36*
X0465D02*
X04639D01*
Y03915*
X0465*
Y03855*
G37*
G36*
X04525D02*
X04514D01*
Y03915*
X04525*
Y03855*
G37*
G36*
X04275D02*
X04264D01*
Y03915*
X04275*
Y03855*
G37*
G36*
X049Y03816D02*
X04889D01*
Y03915*
X049*
Y03816*
G37*
G36*
X044Y03777D02*
X04389D01*
Y03915*
X044*
Y03777*
G37*
G36*
X04894Y02542D02*
X04887D01*
Y02582*
X04894*
Y02542*
G37*
G36*
X04855D02*
X04847D01*
Y02582*
X04855*
Y02542*
G37*
G36*
X04816D02*
X04808D01*
Y02582*
X04816*
Y02542*
G37*
G36*
X04776D02*
X04768D01*
Y02582*
X04776*
Y02542*
G37*
G36*
X04737D02*
X04729D01*
Y02621*
X04737*
Y02542*
G37*
G36*
X04698D02*
X0469D01*
Y02582*
X04698*
Y02542*
G37*
G36*
X04658D02*
X0465D01*
Y02582*
X04658*
Y02542*
G37*
G36*
X04619D02*
X04611D01*
Y02582*
X04619*
Y02542*
G37*
G36*
X0458D02*
X04572D01*
Y02582*
X0458*
Y02542*
G37*
G36*
X04542D02*
X0453D01*
Y02661*
X04542*
Y02542*
G37*
G36*
X04501D02*
X04493D01*
Y02582*
X04501*
Y02542*
G37*
G36*
X04461D02*
X04454D01*
Y02582*
X04461*
Y02542*
G37*
G36*
X04422D02*
X04414D01*
Y02582*
X04422*
Y02542*
G37*
G36*
X04383D02*
X04375D01*
Y02582*
X04383*
Y02542*
G37*
G36*
X04343D02*
X04335D01*
Y02621*
X04343*
Y02542*
G37*
G36*
X04304D02*
X04296D01*
Y02582*
X04304*
Y02542*
G37*
G36*
X04265D02*
X04257D01*
Y02582*
X04265*
Y02542*
G37*
G36*
X04225D02*
X04217D01*
Y02582*
X04225*
Y02542*
G37*
G36*
X05525Y03855D02*
X05514D01*
Y03915*
X05525*
Y03855*
G37*
G36*
X05275D02*
X05264D01*
Y03915*
X05275*
Y03855*
G37*
G36*
X0515D02*
X05139D01*
Y03915*
X0515*
Y03855*
G37*
G36*
X05025D02*
X05014D01*
Y03915*
X05025*
Y03855*
G37*
G36*
X054Y03777D02*
X05389D01*
Y03915*
X054*
Y03777*
G37*
G36*
X05603Y02542D02*
X05595D01*
Y02582*
X05603*
Y02542*
G37*
G36*
X05564D02*
X05556D01*
Y02582*
X05564*
Y02542*
G37*
G36*
X05524D02*
X05517D01*
Y02621*
X05524*
Y02542*
G37*
G36*
X05485D02*
X05477D01*
Y02582*
X05485*
Y02542*
G37*
G36*
X05446D02*
X05438D01*
Y02582*
X05446*
Y02542*
G37*
G36*
X05406D02*
X05398D01*
Y02582*
X05406*
Y02542*
G37*
G36*
X05367D02*
X05359D01*
Y02582*
X05367*
Y02542*
G37*
G36*
X0533D02*
X05318D01*
Y02661*
X0533*
Y02542*
G37*
G36*
X05288D02*
X0528D01*
Y02582*
X05288*
Y02542*
G37*
G36*
X05249D02*
X05241D01*
Y02582*
X05249*
Y02542*
G37*
G36*
X05209D02*
X05202D01*
Y02582*
X05209*
Y02542*
G37*
G36*
X0517D02*
X05162D01*
Y02582*
X0517*
Y02542*
G37*
G36*
X05131D02*
X05123D01*
Y02621*
X05131*
Y02542*
G37*
G36*
X05091D02*
X05083D01*
Y02582*
X05091*
Y02542*
G37*
G36*
X05052D02*
X05044D01*
Y02582*
X05052*
Y02542*
G37*
G36*
X05013D02*
X05005D01*
Y02582*
X05013*
Y02542*
G37*
G36*
X04973D02*
X04965D01*
Y02582*
X04973*
Y02542*
G37*
G36*
X04936D02*
X04924D01*
Y02661*
X04936*
Y02542*
G37*
G36*
X06775Y03855D02*
X06764D01*
Y03915*
X06775*
Y03855*
G37*
G36*
X0665D02*
X06639D01*
Y03915*
X0665*
Y03855*
G37*
G36*
X06525D02*
X06514D01*
Y03915*
X06525*
Y03855*
G37*
G36*
X06275D02*
X06264D01*
Y03915*
X06275*
Y03855*
G37*
G36*
X0615D02*
X06139D01*
Y03915*
X0615*
Y03855*
G37*
G36*
X06025D02*
X06014D01*
Y03915*
X06025*
Y03855*
G37*
G36*
X05775D02*
X05764D01*
Y03915*
X05775*
Y03855*
G37*
G36*
X0565D02*
X05639D01*
Y03915*
X0565*
Y03855*
G37*
G36*
X069Y03777D02*
X06889D01*
Y03915*
X069*
Y03777*
G37*
G36*
X064Y03816D02*
Y03777D01*
X06389*
Y03816*
Y03915*
X064*
Y03816*
G37*
G36*
X059D02*
Y03777D01*
X05889*
Y03816*
Y03915*
X059*
Y03816*
G37*
G36*
X06904Y02542D02*
X06893D01*
Y02661*
X06904*
Y02542*
G37*
G36*
X06863D02*
X06855D01*
Y02582*
X06863*
Y02542*
G37*
G36*
X06824D02*
X06816D01*
Y02582*
X06824*
Y02542*
G37*
G36*
X06784D02*
X06776D01*
Y02582*
X06784*
Y02542*
G37*
G36*
X06745D02*
X06737D01*
Y02582*
X06745*
Y02542*
G37*
G36*
X06705D02*
X06698D01*
Y02621*
X06705*
Y02542*
G37*
G36*
X06666D02*
X06658D01*
Y02582*
X06666*
Y02542*
G37*
G36*
X06627D02*
X06619D01*
Y02582*
X06627*
Y02542*
G37*
G36*
X06587D02*
X0658D01*
Y02582*
X06587*
Y02542*
G37*
G36*
X06548D02*
X0654D01*
Y02582*
X06548*
Y02542*
G37*
G36*
X06511D02*
X06499D01*
Y02661*
X06511*
Y02542*
G37*
G36*
X06469D02*
X06461D01*
Y02582*
X06469*
Y02542*
G37*
G36*
X0643D02*
X06422D01*
Y02582*
X0643*
Y02542*
G37*
G36*
X06391D02*
X06383D01*
Y02582*
X06391*
Y02542*
G37*
G36*
X06351D02*
X06343D01*
Y02582*
X06351*
Y02542*
G37*
G36*
X06312D02*
X06304D01*
Y02621*
X06312*
Y02542*
G37*
G36*
X06272D02*
X06265D01*
Y02582*
X06272*
Y02542*
G37*
G36*
X06233D02*
X06225D01*
Y02582*
X06233*
Y02542*
G37*
G36*
X06194D02*
X06186D01*
Y02582*
X06194*
Y02542*
G37*
G36*
X06154D02*
X06146D01*
Y02582*
X06154*
Y02542*
G37*
G36*
X06117D02*
X06105D01*
Y02661*
X06117*
Y02542*
G37*
G36*
X06076D02*
X06068D01*
Y02582*
X06076*
Y02542*
G37*
G36*
X06036D02*
X06028D01*
Y02582*
X06036*
Y02542*
G37*
G36*
X05997D02*
X05989D01*
Y02582*
X05997*
Y02542*
G37*
G36*
X05957D02*
X0595D01*
Y02582*
X05957*
Y02542*
G37*
G36*
X05918D02*
X0591D01*
Y02621*
X05918*
Y02542*
G37*
G36*
X05879D02*
X05871D01*
Y02582*
X05879*
Y02542*
G37*
G36*
X05839D02*
X05831D01*
Y02582*
X05839*
Y02542*
G37*
G36*
X058D02*
X05792D01*
Y02582*
X058*
Y02542*
G37*
G36*
X05761D02*
X05753D01*
Y02582*
X05761*
Y02542*
G37*
G36*
X05723D02*
X05711D01*
Y02661*
X05723*
Y02542*
G37*
G36*
X05682D02*
X05674D01*
Y02582*
X05682*
Y02542*
G37*
G36*
X05643D02*
X05635D01*
Y02582*
X05643*
Y02542*
G37*
G54D10*
X04166Y02692D02*
X04176Y02702D01*
X04196*
X04206Y02692*
Y02682*
X04196Y02672*
X04206Y02662*
Y02652*
X04196Y02642*
X04176*
X04166Y02652*
Y02662*
X04176Y02672*
X04166Y02682*
Y02692*
X04176Y02672D02*
X04196D01*
X04566Y02652D02*
X04576Y02642D01*
X04596*
X04606Y02652*
Y02692*
X04596Y02702*
X04576*
X04566Y02692*
Y02682*
X04576Y02672*
X04606*
X01426Y02642D02*
X01446D01*
X01436*
Y02702*
X01426Y02692*
X01846Y02642D02*
X01806D01*
X01846Y02682*
Y02692*
X01836Y02702*
X01816*
X01806Y02692*
X02206D02*
X02216Y02702D01*
X02236*
X02246Y02692*
Y02682*
X02236Y02672*
X02226*
X02236*
X02246Y02662*
Y02652*
X02236Y02642*
X02216*
X02206Y02652*
X02616Y02642D02*
Y02702D01*
X02586Y02672*
X02626*
X03026Y02702D02*
X02986D01*
Y02672*
X03006Y02682*
X03016*
X03026Y02672*
Y02652*
X03016Y02642*
X02996*
X02986Y02652*
X03426Y02702D02*
X03406Y02692D01*
X03386Y02672*
Y02652*
X03396Y02642*
X03416*
X03426Y02652*
Y02662*
X03416Y02672*
X03386*
X04966Y02642D02*
X04986D01*
X04976*
Y02702*
X04966Y02692*
X05016D02*
X05026Y02702D01*
X05046*
X05056Y02692*
Y02652*
X05046Y02642*
X05026*
X05016Y02652*
Y02692*
X05746Y02642D02*
X05766D01*
X05756*
Y02702*
X05746Y02692*
X05836Y02642D02*
X05796D01*
X05836Y02682*
Y02692*
X05826Y02702*
X05806*
X05796Y02692*
X06146Y02642D02*
X06166D01*
X06156*
Y02702*
X06146Y02692*
X06196D02*
X06206Y02702D01*
X06226*
X06236Y02692*
Y02682*
X06226Y02672*
X06216*
X06226*
X06236Y02662*
Y02652*
X06226Y02642*
X06206*
X06196Y02652*
X06526Y02642D02*
X06546D01*
X06536*
Y02702*
X06526Y02692*
X06606Y02642D02*
Y02702D01*
X06576Y02672*
X06616*
X01526Y02682D02*
X01496D01*
X01486Y02672*
Y02652*
X01496Y02642*
X01526*
X01546D02*
Y02682D01*
X01556*
X01566Y02672*
Y02642*
Y02672*
X01576Y02682*
X01586Y02672*
Y02642*
X03786Y02702D02*
X03826D01*
Y02692*
X03786Y02652*
Y02642*
X05366D02*
X05386D01*
X05376*
Y02702*
X05366Y02692*
X05416Y02642D02*
X05436D01*
X05426*
Y02702*
X05416Y02692*
X06926Y02642D02*
X06946D01*
X06936*
Y02702*
X06926Y02692*
X07016Y02702D02*
X06976D01*
Y02672*
X06996Y02682*
X07006*
X07016Y02672*
Y02652*
X07006Y02642*
X06986*
X06976Y02652*
X0142Y03794D02*
X0143Y03804D01*
X01449*
X01459Y03794*
Y03755*
X01449Y03745*
X0143*
X0142Y03755*
Y03794*
X03459Y03745D02*
X0342D01*
X03459Y03784*
Y03794*
X03449Y03804*
X0343*
X0342Y03794*
X05449Y03745D02*
Y03804D01*
X0542Y03774*
X05459*
X0242Y03745D02*
X02439D01*
X0243*
Y03804*
X0242Y03794*
X0442D02*
X0443Y03804D01*
X04449*
X04459Y03794*
Y03784*
X04449Y03774*
X04439*
X04449*
X04459Y03764*
Y03755*
X04449Y03745*
X0443*
X0442Y03755*
X06459Y03804D02*
X0642D01*
Y03774*
X06439Y03784*
X06449*
X06459Y03774*
Y03755*
X06449Y03745*
X0643*
X0642Y03755*
X01498Y03748D02*
X01517D01*
X01508*
Y03787*
X01498*
X01547Y03748D02*
Y03787D01*
X01577*
X01587Y03777*
Y03748*
X01647Y03787D02*
X01617D01*
X01607Y03777*
Y03758*
X01617Y03748*
X01647*
G54D31*
X06797Y03383D02*
X06907D01*
X06787Y03484D02*
X06896D01*
X06794Y03433D02*
X06896D01*
G54D32*
X07003Y03473D03*
Y03394D03*
G54D33*
X06896Y03484D03*
Y03433D03*
Y03382D03*
G54D34*
X0668Y03143D03*
Y03234D03*
Y03325D03*
G54D35*
X06435Y03234D03*
G54D36*
X05138Y02829D03*
Y02934D03*
X06433Y03565D03*
Y03461D03*
Y03009D03*
Y02905D03*
X05138Y03167D03*
Y03063D03*
G54D37*
X06583Y02964D03*
Y02909D03*
Y03506D03*
Y03561D03*
X05133Y03535D03*
Y0359D03*
G54D38*
X0468Y0289D03*
X04413D03*
X0468Y03047D03*
X04413D03*
G54D39*
X05135Y03368D03*
Y03305D03*
G54D40*
X05401Y03529D03*
X0548D03*
X05559D03*
X05638D03*
X05716D03*
X05795D03*
X05874D03*
X05952D03*
Y02929D03*
X05874D03*
X05795D03*
X05716D03*
X05638D03*
X05559D03*
X0548D03*
X05401D03*
G54D41*
X01768Y03378D03*
Y03241D03*
X02147Y03378D03*
Y03241D03*
X02487Y03378D03*
Y03241D03*
X02867Y03378D03*
Y03241D03*
X03218Y03378D03*
Y03241D03*
X03576Y03378D03*
Y03241D03*
G54D42*
X03934Y03477D03*
Y0358D03*
X0418Y03477D03*
Y0358D03*
X03934Y03184D03*
Y03287D03*
X0418Y03184D03*
Y03287D03*
X03934Y02879D03*
Y02981D03*
X0418Y02879D03*
Y02981D03*
G54D43*
X04621Y03418D03*
Y03517D03*
Y0332D03*
X04404D03*
Y03517D03*
Y03418D03*
G54D44*
X07003Y03547D03*
Y03319D03*
G54D45*
X07003Y03295D03*
Y03571D03*
G54D46*
X06896Y03335D03*
Y03532D03*
G54D47*
X06998Y03152D03*
G54D48*
X06898Y03152D03*
G54D49*
X02631Y03248D03*
X02153Y03163D03*
X0177D03*
X03223Y0316D03*
X0287Y03167D03*
X02489Y03165D03*
X0358Y0316D03*
X04057Y03503D03*
X04054Y03346D03*
X04058Y03166D03*
X04056Y03259D03*
X04621Y03267D03*
X06445Y02849D03*
X05047Y03167D03*
X05487Y03014D03*
X05646Y03028D03*
X05717Y03073D03*
X01841Y03382D03*
X02224Y03381D03*
X02945Y03377D03*
X0556Y03354D03*
X05721Y03458D03*
X0564Y03413D03*
X0548Y03307D03*
G54D50*
X06985Y0367D03*
M02*