%FSTAX23Y23*%
%MOIN*%
%SFA1B1*%

%IPPOS*%
%ADD10C,0.010000*%
%ADD52O,0.061020X0.035430*%
%ADD53O,0.037400X0.049210*%
%ADD54R,0.059060X0.059060*%
%ADD55C,0.059060*%
%ADD56C,0.025000*%
%ADD57C,0.090000*%
%ADD58C,0.013000*%
%LNpcb3-g-1*%
%LPD*%
G36*
X01846Y0342D02*
X01846Y03415D01*
X01847Y03397*
X01847Y03395*
X01848Y03393*
X01848Y03392*
X01849Y03391*
X01832*
X01833Y03392*
X01833Y03393*
X01834Y03395*
X01834Y03397*
X01835Y034*
X01835Y03407*
X01836Y0342*
X01846*
G37*
G36*
X02262Y03376D02*
X02257Y03375D01*
X02239Y03374*
X02237Y03374*
X02235Y03373*
X02234Y03373*
X02233Y03372*
Y03389*
X02234Y03388*
X02235Y03388*
X02237Y03387*
X02239Y03387*
X02242Y03386*
X02249Y03386*
X02262Y03386*
Y03376*
G37*
G36*
X05441Y03312D02*
X05446Y03312D01*
X05464Y03313*
X05466Y03313*
X05468Y03314*
X05469Y03314*
X0547Y03315*
Y03298*
X05469Y03299*
X05468Y03299*
X05466Y033*
X05464Y033*
X05461Y03301*
X05454Y03301*
X05441Y03302*
Y03312*
G37*
G36*
X05607Y03033D02*
X05612Y03033D01*
X0563Y03034*
X05632Y03034*
X05634Y03035*
X05635Y03035*
X05636Y03036*
Y03019*
X05635Y0302*
X05634Y0302*
X05632Y03021*
X0563Y03021*
X05627Y03022*
X0562Y03022*
X05607Y03023*
Y03033*
G37*
G36*
X05521Y03359D02*
X05526Y03359D01*
X05544Y0336*
X05546Y0336*
X05548Y03361*
X05549Y03361*
X0555Y03362*
Y03345*
X05549Y03346*
X05548Y03346*
X05546Y03347*
X05544Y03347*
X05541Y03348*
X05534Y03348*
X05521Y03349*
Y03359*
G37*
G36*
X05601Y03418D02*
X05606Y03418D01*
X05624Y03419*
X05626Y03419*
X05628Y0342*
X05629Y0342*
X0563Y03421*
Y03404*
X05629Y03405*
X05628Y03405*
X05626Y03406*
X05624Y03406*
X05621Y03407*
X05614Y03407*
X05601Y03408*
Y03418*
G37*
G54D10*
X04092Y03377D02*
X04107Y03362D01*
X02945Y03377D02*
X04092D01*
X02631Y03248D02*
X03289D01*
X02354Y03329D02*
X04037D01*
X03289Y03248D02*
X03446Y03091D01*
X02302Y03381D02*
X02354Y03329D01*
X04037D02*
X04054Y03346D01*
X02224Y03381D02*
X02302D01*
X03446Y03091D02*
X03983D01*
X02153Y03163D02*
Y03395D01*
X0221Y03452*
X0198Y02953D02*
X05426D01*
X0177Y03163D02*
X0198Y02953D01*
X03324Y03059D02*
X04126D01*
X03223Y0316D02*
X03324Y03059D01*
X0287Y03167D02*
X02935D01*
X03076Y03026*
X02956Y02987D02*
X04906D01*
X02778Y03165D02*
X02956Y02987D01*
X02489Y03165D02*
X02778D01*
X04214Y03215D02*
X04412Y03413D01*
X03635Y03215D02*
X04214D01*
X0358Y0316D02*
X03635Y03215D01*
X05426Y02953D02*
X05487Y03014D01*
X05715Y03452D02*
X05721Y03458D01*
X0221Y03452D02*
X05715D01*
X04049Y03511D02*
X04057Y03503D01*
X019Y03511D02*
X04049D01*
X01841Y03451D02*
X019Y03511D01*
X04126Y03059D02*
X04421Y03354D01*
X03983Y03091D02*
X04058Y03166D01*
X04107Y03309D02*
Y03362D01*
X04056Y03259D02*
X04107Y03309D01*
X04947Y03267D02*
X05047Y03167D01*
X04621Y03267D02*
X04947D01*
X05487Y03014D02*
X05652Y02849D01*
X06445*
X05507Y03114D02*
X05593Y03028D01*
X05033Y03114D02*
X05507D01*
X04906Y02987D02*
X05033Y03114D01*
X05597Y03193D02*
X05717Y03073D01*
X05073Y03193D02*
X05597D01*
X05047Y03167D02*
X05073Y03193D01*
X04157Y03026D02*
X04438Y03307D01*
X03076Y03026D02*
X04157D01*
X05593Y03028D02*
X05646D01*
X04438Y03307D02*
X0548D01*
X01841Y03382D02*
Y03451D01*
X04421Y03354D02*
X0556D01*
X04412Y03413D02*
X0564D01*
X02242Y02706D02*
Y02647D01*
Y02706D02*
X02222D01*
X02213Y02704*
X02207Y02698*
X02204Y02692*
X02202Y02684*
Y02669*
X02204Y02661*
X02207Y02655*
X02213Y02649*
X02222Y02647*
X02242*
X02188Y02669D02*
X02154D01*
Y02675*
X02157Y02681*
X0216Y02684*
X02165Y02686*
X02174*
X0218Y02684*
X02185Y02678*
X02188Y02669*
Y02664*
X02185Y02655*
X0218Y02649*
X02174Y02647*
X02165*
X0216Y02649*
X02154Y02655*
X0211Y02678D02*
X02112Y02684D01*
X02121Y02686*
X0213*
X02138Y02684*
X02141Y02678*
X02138Y02672*
X02132Y02669*
X02118Y02667*
X02112Y02664*
X0211Y02658*
Y02655*
X02112Y02649*
X02121Y02647*
X0213*
X02138Y02649*
X02141Y02655*
X02091Y02706D02*
X02088Y02704D01*
X02086Y02706*
X02088Y02709*
X02091Y02706*
X02088Y02686D02*
Y02647D01*
X02041Y02686D02*
Y02641D01*
X02044Y02632*
X02046Y02629*
X02052Y02627*
X02061*
X02066Y02629*
X02041Y02678D02*
X02046Y02684D01*
X02052Y02686*
X02061*
X02066Y02684*
X02072Y02678*
X02075Y02669*
Y02664*
X02072Y02655*
X02066Y02649*
X02061Y02647*
X02052*
X02046Y02649*
X02041Y02655*
X02025Y02686D02*
Y02647D01*
Y02675D02*
X02016Y02684D01*
X0201Y02686*
X02002*
X01996Y02684*
X01993Y02675*
Y02647*
X01978Y02669D02*
X01943D01*
Y02675*
X01946Y02681*
X01949Y02684*
X01955Y02686*
X01963*
X01969Y02684*
X01975Y02678*
X01978Y02669*
Y02664*
X01975Y02655*
X01969Y02649*
X01963Y02647*
X01955*
X01949Y02649*
X01943Y02655*
X01896Y02706D02*
Y02647D01*
Y02678D02*
X01902Y02684D01*
X01908Y02686*
X01916*
X01922Y02684*
X01928Y02678*
X0193Y02669*
Y02664*
X01928Y02655*
X01922Y02649*
X01916Y02647*
X01908*
X01902Y02649*
X01896Y02655*
X01833Y02706D02*
Y02647D01*
Y02678D02*
X01827Y02684D01*
X01822Y02686*
X01813*
X01807Y02684*
X01802Y02678*
X01799Y02669*
Y02664*
X01802Y02655*
X01807Y02649*
X01813Y02647*
X01822*
X01827Y02649*
X01833Y02655*
X01783Y02686D02*
X01766Y02647D01*
X01749Y02686D02*
X01766Y02647D01*
X01772Y02635*
X01777Y02629*
X01783Y02627*
X01786*
X01663Y02706D02*
Y02661D01*
X01666Y02652*
X01669Y02649*
X01674Y02647*
X0168*
X01686Y02649*
X01689Y02652*
X01692Y02661*
Y02667*
X01642Y02706D02*
X01639Y02704D01*
X01636Y02706*
X01639Y02709*
X01642Y02706*
X01639Y02686D02*
Y02647D01*
X01626Y02669D02*
X01591D01*
Y02675*
X01594Y02681*
X01597Y02684*
X01603Y02686*
X01611*
X01617Y02684*
X01623Y02678*
X01626Y02669*
Y02664*
X01623Y02655*
X01617Y02649*
X01611Y02647*
X01603*
X01597Y02649*
X01591Y02655*
X01531Y02706D02*
Y02647D01*
X01497*
X01491Y02669D02*
X01456D01*
Y02675*
X01459Y02681*
X01462Y02684*
X01468Y02686*
X01476*
X01482Y02684*
X01488Y02678*
X01491Y02669*
Y02664*
X01488Y02655*
X01482Y02649*
X01476Y02647*
X01468*
X01462Y02649*
X01456Y02655*
X01438Y02706D02*
X01435Y02704D01*
X01432Y02706*
X01435Y02709*
X01438Y02706*
X01435Y02686D02*
Y02647D01*
X0691Y02693D02*
X06913Y02698D01*
X06918Y02704*
X06924Y02707*
X06935*
X06941Y02704*
X06947Y02698*
X0695Y02693*
X06953Y02684*
Y0267*
X0695Y02661*
X06947Y02656*
X06941Y0265*
X06935Y02647*
X06924*
X06918Y0265*
X06913Y02656*
X0691Y02661*
Y0267*
X06924D02*
X0691D01*
X0689Y02707D02*
X06887Y02704D01*
X06885Y02707*
X06887Y0271*
X0689Y02707*
X06887Y02687D02*
Y02647D01*
X06865Y02707D02*
Y02658D01*
X06863Y0265*
X06857Y02647*
X06851*
X06874Y02687D02*
X06854D01*
X06843Y02707D02*
Y02647D01*
Y02676D02*
X06834Y02684D01*
X06828Y02687*
X0682*
X06814Y02684*
X06811Y02676*
Y02647*
X06795Y02687D02*
Y02658D01*
X06793Y0265*
X06787Y02647*
X06778*
X06773Y0265*
X06764Y02658*
Y02687D02*
Y02647D01*
X06748Y02707D02*
Y02647D01*
Y02678D02*
X06743Y02684D01*
X06737Y02687*
X06728*
X06723Y02684*
X06717Y02678*
X06714Y0267*
Y02664*
X06717Y02656*
X06723Y0265*
X06728Y02647*
X06737*
X06743Y0265*
X06748Y02656*
X06698Y02653D02*
X06701Y0265D01*
X06698Y02647*
X06695Y0265*
X06698Y02653*
X06648Y02678D02*
X06654Y02684D01*
X06659Y02687*
X06668*
X06674Y02684*
X06679Y02678*
X06682Y0267*
Y02664*
X06679Y02656*
X06674Y0265*
X06668Y02647*
X06659*
X06654Y0265*
X06648Y02656*
X06621Y02687D02*
X06627Y02684D01*
X06632Y02678*
X06635Y0267*
Y02664*
X06632Y02656*
X06627Y0265*
X06621Y02647*
X06612*
X06607Y0265*
X06601Y02656*
X06598Y02664*
Y0267*
X06601Y02678*
X06607Y02684*
X06612Y02687*
X06621*
X06585D02*
Y02647D01*
Y02676D02*
X06576Y02684D01*
X06571Y02687*
X06562*
X06556Y02684*
X06553Y02676*
Y02647*
Y02676D02*
X06545Y02684D01*
X06539Y02687*
X06531*
X06525Y02684*
X06522Y02676*
Y02647*
X06503Y02638D02*
X06463Y02707D01*
X06431D02*
Y02661D01*
X06433Y02653*
X06436Y0265*
X06442Y02647*
X06448*
X06453Y0265*
X06456Y02653*
X06459Y02661*
Y02667*
X06409Y02707D02*
X06407Y02704D01*
X06404Y02707*
X06407Y0271*
X06409Y02707*
X06407Y02687D02*
Y02647D01*
X06393Y0267D02*
X06359D01*
Y02676*
X06362Y02681*
X06365Y02684*
X0637Y02687*
X06379*
X06385Y02684*
X0639Y02678*
X06393Y0267*
Y02664*
X0639Y02656*
X06385Y0265*
X06379Y02647*
X0637*
X06365Y0265*
X06359Y02656*
X06303Y02693D02*
X06306Y02698D01*
X06312Y02704*
X06317Y02707*
X06329*
X06335Y02704*
X0634Y02698*
X06343Y02693*
X06346Y02684*
Y0267*
X06343Y02661*
X0634Y02656*
X06335Y0265*
X06329Y02647*
X06317*
X06312Y0265*
X06306Y02656*
X06303Y02661*
Y0267*
X06317D02*
X06303D01*
X0629Y02707D02*
Y02647D01*
X0625Y02707D02*
Y02647D01*
X0629Y02678D02*
X0625D01*
X06233Y02638D02*
X06193Y02707D01*
X06169D02*
Y02647D01*
X06189Y02707D02*
X06149D01*
X06142D02*
Y02647D01*
Y02676D02*
X06133Y02684D01*
X06128Y02687*
X06119*
X06113Y02684*
X0611Y02676*
Y02647*
X06095Y0267D02*
X0606D01*
Y02676*
X06063Y02681*
X06066Y02684*
X06072Y02687*
X0608*
X06086Y02684*
X06092Y02678*
X06095Y0267*
Y02664*
X06092Y02656*
X06086Y0265*
X0608Y02647*
X06072*
X06066Y0265*
X0606Y02656*
X06048Y02673D02*
X05996D01*
X05978Y02707D02*
Y02647D01*
Y02707D02*
X05953D01*
X05944Y02704*
X05941Y02701*
X05938Y02696*
Y0269*
X05941Y02684*
X05944Y02681*
X05953Y02678*
X05978*
X05958D02*
X05938Y02647D01*
X05925Y02687D02*
Y02658D01*
X05922Y0265*
X05916Y02647*
X05908*
X05902Y0265*
X05894Y02658*
Y02687D02*
Y02647D01*
X05878Y02707D02*
Y02647D01*
X05865Y0267D02*
X05831D01*
Y02676*
X05834Y02681*
X05837Y02684*
X05842Y02687*
X05851*
X05857Y02684*
X05862Y02678*
X05865Y0267*
Y02664*
X05862Y02656*
X05857Y0265*
X05851Y02647*
X05842*
X05837Y0265*
X05831Y02656*
X05818Y02687D02*
Y02647D01*
Y0267D02*
X05815Y02678D01*
X0581Y02684*
X05804Y02687*
X05795*
X0579Y02673D02*
X05738D01*
X05706Y02687D02*
X05712Y02684D01*
X05718Y02678*
X05721Y0267*
Y02664*
X05718Y02656*
X05712Y0265*
X05706Y02647*
X05698*
X05692Y0265*
X05686Y02656*
X05684Y02664*
Y0267*
X05686Y02678*
X05692Y02684*
X05698Y02687*
X05706*
X05648Y02707D02*
X05653D01*
X05659Y02704*
X05662Y02696*
Y02647*
X0567Y02687D02*
X0565D01*
X05639Y02673D02*
X05588D01*
X0555Y02707D02*
Y02647D01*
X0557Y02707D02*
X0553D01*
X05491Y02678D02*
X05494Y02684D01*
X05503Y02687*
X05511*
X0552Y02684*
X05523Y02678*
X0552Y02673*
X05514Y0267*
X055Y02667*
X05494Y02664*
X05491Y02658*
Y02656*
X05494Y0265*
X05503Y02647*
X05511*
X0552Y0265*
X05523Y02656*
X05479Y0267D02*
X05445D01*
Y02676*
X05447Y02681*
X0545Y02684*
X05456Y02687*
X05465*
X0547Y02684*
X05476Y02678*
X05479Y0267*
Y02664*
X05476Y02656*
X0547Y0265*
X05465Y02647*
X05456*
X0545Y0265*
X05445Y02656*
X05423Y02707D02*
Y02658D01*
X0542Y0265*
X05415Y02647*
X05409*
X05432Y02687D02*
X05412D01*
X054Y02707D02*
Y02647D01*
X05382Y02707D02*
X05379Y02704D01*
X05376Y02707*
X05379Y0271*
X05382Y02707*
X05379Y02687D02*
Y02647D01*
X05366Y02687D02*
Y02647D01*
Y02676D02*
X05357Y02684D01*
X05351Y02687*
X05343*
X05337Y02684*
X05334Y02676*
Y02647*
X05319Y02673D02*
X05267D01*
X05204Y02647D02*
X05227Y02707D01*
X05249Y02647*
X05241Y02667D02*
X05212D01*
X0519Y02687D02*
Y02658D01*
X05187Y0265*
X05181Y02647*
X05173*
X05167Y0265*
X05158Y02658*
Y02687D02*
Y02647D01*
X05134Y02707D02*
Y02658D01*
X05131Y0265*
X05125Y02647*
X0512*
X05143Y02687D02*
X05123D01*
X05097D02*
X05103Y02684D01*
X05108Y02678*
X05111Y0267*
Y02664*
X05108Y02656*
X05103Y0265*
X05097Y02647*
X05088*
X05083Y0265*
X05077Y02656*
X05074Y02664*
Y0267*
X05077Y02678*
X05083Y02684*
X05088Y02687*
X05097*
X05061D02*
Y02647D01*
Y02676D02*
X05052Y02684D01*
X05047Y02687*
X05038*
X05032Y02684*
X05029Y02676*
Y02647*
Y02676D02*
X05021Y02684D01*
X05015Y02687*
X05007*
X05001Y02684*
X04998Y02676*
Y02647*
X04945Y02687D02*
Y02647D01*
Y02678D02*
X04951Y02684D01*
X04956Y02687*
X04965*
X04971Y02684*
X04976Y02678*
X04979Y0267*
Y02664*
X04976Y02656*
X04971Y0265*
X04965Y02647*
X04956*
X04951Y0265*
X04945Y02656*
X0492Y02707D02*
Y02658D01*
X04918Y0265*
X04912Y02647*
X04906*
X04929Y02687D02*
X04909D01*
X04883D02*
X04889Y02684D01*
X04895Y02678*
X04898Y0267*
Y02664*
X04895Y02656*
X04889Y0265*
X04883Y02647*
X04875*
X04869Y0265*
X04863Y02656*
X0486Y02664*
Y0267*
X04863Y02678*
X04869Y02684*
X04875Y02687*
X04883*
X04847D02*
Y02647D01*
Y02676D02*
X04839Y02684D01*
X04833Y02687*
X04824*
X04819Y02684*
X04816Y02676*
Y02647*
G54D52*
X07003Y03295D03*
Y03571D03*
G54D53*
X06896Y03335D03*
Y03532D03*
G54D54*
X06998Y03152D03*
G54D55*
X06898Y03152D03*
G54D56*
X02631Y03248D03*
X02153Y03163D03*
X0177D03*
X03223Y0316D03*
X0287Y03167D03*
X02489Y03165D03*
X0358Y0316D03*
X04057Y03503D03*
X04054Y03346D03*
X04058Y03166D03*
X04056Y03259D03*
X04621Y03267D03*
X06445Y02849D03*
X05047Y03167D03*
X05487Y03014D03*
X05646Y03028D03*
X05717Y03073D03*
X01841Y03382D03*
X02224Y03381D03*
X02945Y03377D03*
X0556Y03354D03*
X05721Y03458D03*
X0564Y03413D03*
X0548Y03307D03*
G54D57*
X06985Y0367D03*
G54D58*
X06968Y03845D02*
Y03766D01*
X06995Y03845D02*
X06941D01*
X06932D02*
Y03766D01*
Y03804D02*
X0692Y03815D01*
X06913Y03819*
X06901*
X06894Y03815*
X0689Y03804*
Y03766*
X06869Y03796D02*
X06823D01*
Y03804*
X06827Y03811*
X06831Y03815*
X06838Y03819*
X0685*
X06857Y03815*
X06865Y03807*
X06869Y03796*
Y03788*
X06865Y03777*
X06857Y03769*
X0685Y03766*
X06838*
X06831Y03769*
X06823Y03777*
X06743Y03845D02*
Y03766D01*
Y03845D02*
X06709D01*
X06697Y03842*
X06694Y03838*
X0669Y0383*
Y03823*
X06694Y03815*
X06697Y03811*
X06709Y03807*
X06743*
X06716D02*
X0669Y03766D01*
X06672Y03819D02*
Y03781D01*
X06668Y03769*
X0666Y03766*
X06649*
X06641Y03769*
X0663Y03781*
Y03819D02*
Y03766D01*
X06609Y03845D02*
Y03766D01*
X06592Y03796D02*
X06547D01*
Y03804*
X0655Y03811*
X06554Y03815*
X06562Y03819*
X06573*
X06581Y03815*
X06588Y03807*
X06592Y03796*
Y03788*
X06588Y03777*
X06581Y03769*
X06573Y03766*
X06562*
X06554Y03769*
X06547Y03777*
X06503Y03861D02*
X0651Y03853D01*
X06518Y03842*
X06526Y03826*
X06529Y03807*
Y03792*
X06526Y03773*
X06518Y03758*
X0651Y03746*
X06503Y03739*
X0651Y03853D02*
X06518Y03838D01*
X06522Y03826*
X06526Y03807*
Y03792*
X06522Y03773*
X06518Y03762*
X0651Y03746*
X06488Y03819D02*
Y03766D01*
Y03796D02*
X06484Y03807D01*
X06476Y03815*
X06469Y03819*
X06457*
X0645Y03861D02*
X06442Y03853D01*
X06435Y03842*
X06427Y03826*
X06423Y03807*
Y03792*
X06427Y03773*
X06435Y03758*
X06442Y03746*
X0645Y03739*
X06442Y03853D02*
X06435Y03838D01*
X06431Y03826*
X06427Y03807*
Y03792*
X06431Y03773*
X06435Y03762*
X06442Y03746*
X06322Y03819D02*
X0633Y03815D01*
X06337Y03807*
X06341Y03796*
Y03788*
X06337Y03777*
X0633Y03769*
X06322Y03766*
X0631*
X06303Y03769*
X06295Y03777*
X06291Y03788*
Y03796*
X06295Y03807*
X06303Y03815*
X0631Y03819*
X06322*
X06243Y03845D02*
X06251D01*
X06259Y03842*
X06262Y0383*
Y03766*
X06274Y03819D02*
X06247D01*
X06142Y03845D02*
Y03766D01*
X06169Y03845D02*
X06116D01*
X06064Y03807D02*
X06068Y03815D01*
X0608Y03819*
X06091*
X06103Y03815*
X06106Y03807*
X06103Y038*
X06095Y03796*
X06076Y03792*
X06068Y03788*
X06064Y03781*
Y03777*
X06068Y03769*
X0608Y03766*
X06091*
X06103Y03769*
X06106Y03777*
X06048Y03796D02*
X06002D01*
Y03804*
X06006Y03811*
X0601Y03815*
X06017Y03819*
X06029*
X06036Y03815*
X06044Y03807*
X06048Y03796*
Y03788*
X06044Y03777*
X06036Y03769*
X06029Y03766*
X06017*
X0601Y03769*
X06002Y03777*
X05973Y03845D02*
Y03781D01*
X0597Y03769*
X05962Y03766*
X05954*
X05985Y03819D02*
X05958D01*
X05943Y03845D02*
Y03766D01*
X05919Y03845D02*
X05915Y03842D01*
X05911Y03845*
X05915Y03849*
X05919Y03845*
X05915Y03819D02*
Y03766D01*
X05897Y03819D02*
Y03766D01*
Y03804D02*
X05885Y03815D01*
X05878Y03819*
X05866*
X05859Y03815*
X05855Y03804*
Y03766*
X0571D02*
X05741Y03845D01*
X05771Y03766*
X0576Y03792D02*
X05722D01*
X05692Y03819D02*
Y03781D01*
X05688Y03769*
X0568Y03766*
X05669*
X05661Y03769*
X0565Y03781*
Y03819D02*
Y03766D01*
X05617Y03845D02*
Y03781D01*
X05613Y03769*
X05606Y03766*
X05598*
X05629Y03819D02*
X05602D01*
X05568D02*
X05575Y03815D01*
X05583Y03807*
X05587Y03796*
Y03788*
X05583Y03777*
X05575Y03769*
X05568Y03766*
X05556*
X05549Y03769*
X05541Y03777*
X05537Y03788*
Y03796*
X05541Y03807*
X05549Y03815*
X05556Y03819*
X05568*
X0552D02*
Y03766D01*
Y03804D02*
X05508Y03815D01*
X05501Y03819*
X05489*
X05482Y03815*
X05478Y03804*
Y03766*
Y03804D02*
X05466Y03815D01*
X05459Y03819*
X05447*
X0544Y03815*
X05436Y03804*
Y03766*
X05365Y03819D02*
Y03766D01*
Y03807D02*
X05373Y03815D01*
X0538Y03819*
X05392*
X05399Y03815*
X05407Y03807*
X05411Y03796*
Y03788*
X05407Y03777*
X05399Y03769*
X05392Y03766*
X0538*
X05373Y03769*
X05365Y03777*
X05332Y03845D02*
Y03781D01*
X05329Y03769*
X05321Y03766*
X05313*
X05344Y03819D02*
X05317D01*
X05283D02*
X0529Y03815D01*
X05298Y03807*
X05302Y03796*
Y03788*
X05298Y03777*
X0529Y03769*
X05283Y03766*
X05271*
X05264Y03769*
X05256Y03777*
X05252Y03788*
Y03796*
X05256Y03807*
X05264Y03815*
X05271Y03819*
X05283*
X05235D02*
Y03766D01*
Y03804D02*
X05223Y03815D01*
X05216Y03819*
X05204*
X05197Y03815*
X05193Y03804*
Y03766*
M02*