%FSTAX23Y23*%
%MOIN*%
%SFA1B1*%

%IPPOS*%
%ADD10C,0.010000*%
%ADD18R,0.061020X0.059060*%
%ADD19R,0.053150X0.015750*%
%ADD20R,0.088000X0.048000*%
%ADD21R,0.086610X0.141730*%
%ADD22R,0.061020X0.035430*%
%ADD23R,0.053150X0.043310*%
%ADD24R,0.125980X0.039370*%
%ADD25R,0.057090X0.051180*%
%ADD26R,0.039370X0.088580*%
%ADD27R,0.059060X0.059060*%
%ADD28R,0.066930X0.043310*%
%ADD29R,0.098430X0.047240*%
%ADD30R,0.061020X0.047240*%
%ADD31C,0.015000*%
%ADD51C,0.030000*%
%ADD52O,0.061020X0.035430*%
%ADD53O,0.037400X0.049210*%
%ADD54R,0.059060X0.059060*%
%ADD55C,0.059060*%
%ADD56C,0.025000*%
%ADD57C,0.090000*%
%LNpcb3-g-1*%
%LPD*%
G36*
X04525Y03855D02*
X04514D01*
Y03915*
X04525*
Y03855*
G37*
G36*
X04275D02*
X04264D01*
Y03915*
X04275*
Y03855*
G37*
G36*
X0415D02*
X04139D01*
Y03915*
X0415*
Y03855*
G37*
G36*
X04025D02*
X04014D01*
Y03915*
X04025*
Y03855*
G37*
G36*
X03775D02*
X03764D01*
Y03915*
X03775*
Y03855*
G37*
G36*
X0365D02*
X03639D01*
Y03915*
X0365*
Y03855*
G37*
G36*
X03525D02*
X03514D01*
Y03915*
X03525*
Y03855*
G37*
G36*
X03275D02*
X03264D01*
Y03915*
X03275*
Y03855*
G37*
G36*
X0315D02*
X03139D01*
Y03915*
X0315*
Y03855*
G37*
G36*
X03025D02*
X03014D01*
Y03915*
X03025*
Y03855*
G37*
G36*
X02775D02*
X02764D01*
Y03915*
X02775*
Y03855*
G37*
G36*
X0265D02*
X02639D01*
Y03915*
X0265*
Y03855*
G37*
G36*
X02525D02*
X02514D01*
Y03915*
X02525*
Y03855*
G37*
G36*
X02275D02*
X02264D01*
Y03915*
X02275*
Y03855*
G37*
G36*
X0215D02*
X02139D01*
Y03915*
X0215*
Y03855*
G37*
G36*
X02025D02*
X02014D01*
Y03915*
X02025*
Y03855*
G37*
G36*
X01775D02*
X01764D01*
Y03915*
X01775*
Y03855*
G37*
G36*
X0165D02*
X01639D01*
Y03915*
X0165*
Y03855*
G37*
G36*
X01525D02*
X01514D01*
Y03915*
X01525*
Y03855*
G37*
G36*
X039Y03816D02*
X03889D01*
Y03915*
X039*
Y03816*
G37*
G36*
X029D02*
X02889D01*
Y03915*
X029*
Y03816*
G37*
G36*
X019D02*
X01889D01*
Y03915*
X019*
Y03816*
G37*
G36*
X044Y03777D02*
X04389D01*
Y03915*
X044*
Y03777*
G37*
G36*
X034D02*
X03389D01*
Y03915*
X034*
Y03777*
G37*
G36*
X024D02*
X02389D01*
Y03915*
X024*
Y03777*
G37*
G36*
X014D02*
X01389D01*
Y03915*
X014*
Y03777*
G37*
G36*
X04146Y0357D02*
X04146Y03571D01*
X04146Y03571*
X04145Y03572*
X04145Y03573*
X04144Y03573*
X04143Y03574*
X04141Y03574*
X0414Y03574*
X04138Y03575*
X04136Y03575*
Y03585*
X04138Y03585*
X0414Y03585*
X04141Y03585*
X04143Y03585*
X04144Y03586*
X04145Y03586*
X04145Y03587*
X04146Y03588*
X04146Y03589*
X04146Y0359*
Y0357*
G37*
G36*
X03967Y03589D02*
X03967Y03588D01*
X03968Y03587*
X03968Y03586*
X03969Y03586*
X0397Y03585*
X03972Y03585*
X03973Y03585*
X03975Y03585*
X03977Y03585*
Y03575*
X03975Y03575*
X03973Y03574*
X03972Y03574*
X0397Y03574*
X03969Y03573*
X03968Y03573*
X03968Y03572*
X03967Y03571*
X03967Y03571*
X03967Y0357*
Y0359*
X03967Y03589*
G37*
G36*
X039Y0357D02*
X039Y03571D01*
X039Y03571*
X03899Y03572*
X03899Y03573*
X03898Y03573*
X03897Y03574*
X03895Y03574*
X03894Y03574*
X03892Y03575*
X0389Y03575*
Y03585*
X03892Y03585*
X03894Y03585*
X03895Y03585*
X03897Y03585*
X03898Y03586*
X03899Y03586*
X03899Y03587*
X039Y03588*
X039Y03589*
X039Y0359*
Y0357*
G37*
G36*
X01797Y03391D02*
X01797Y0339D01*
X01798Y03389*
X01798Y03388*
X01799Y03388*
X018Y03387*
X01802Y03387*
X01803Y03387*
X01805Y03387*
X01806Y03387*
X01807*
X01825Y03388*
X01827Y03388*
X01829Y03389*
X0183Y03389*
X01831Y0339*
Y03373*
X0183Y03374*
X01829Y03374*
X01827Y03375*
X01825Y03375*
X01822Y03376*
X01815Y03376*
X01805Y03376*
X01803Y03376*
X01802Y03376*
X018Y03376*
X01799Y03375*
X01798Y03375*
X01798Y03374*
X01797Y03373*
X01797Y03372*
X01797Y03372*
Y03392*
X01797Y03391*
G37*
G36*
X02176Y0339D02*
X02176Y03389D01*
X02177Y03388*
X02177Y03387*
X02178Y03387*
X02179Y03386*
X02181Y03386*
X02182Y03386*
X02184Y03386*
X02186Y03386*
X0219Y03386*
X02208Y03387*
X0221Y03387*
X02212Y03388*
X02213Y03388*
X02214Y03389*
Y03372*
X02213Y03373*
X02212Y03373*
X0221Y03374*
X02208Y03374*
X02205Y03375*
X02198Y03375*
X02185Y03375*
X02184Y03375*
X02182Y03375*
X02181Y03375*
X02179Y03375*
X02178Y03374*
X02177Y03374*
X02177Y03373*
X02176Y03372*
X02176Y03371*
X02176Y03371*
Y03391*
X02176Y0339*
G37*
G36*
X03247Y03387D02*
X03247Y03387D01*
X03248Y03386*
X03248Y03385*
X03249Y03385*
X0325Y03384*
X03252Y03384*
X03253Y03384*
X03255Y03383*
X03257Y03383*
Y03373*
X03255Y03373*
X03253Y03373*
X03252Y03373*
X0325Y03373*
X03249Y03372*
X03248Y03372*
X03248Y03371*
X03247Y0337*
X03247Y03369*
X03247Y03368*
Y03388*
X03247Y03387*
G37*
G36*
X02896Y03386D02*
X02896Y03385D01*
X02897Y03384*
X02897Y03383*
X02898Y03383*
X02899Y03382*
X02901Y03382*
X02902Y03382*
X02904Y03382*
X02906Y03382*
X02911Y03382*
X02929Y03383*
X02931Y03383*
X02933Y03384*
X02934Y03384*
X02935Y03385*
Y03368*
X02934Y03369*
X02933Y03369*
X02931Y0337*
X02929Y0337*
X02926Y03371*
X02919Y03371*
X02906Y03372*
X02904Y03371*
X02902Y03371*
X02901Y03371*
X02899Y03371*
X02898Y0337*
X02897Y0337*
X02897Y03369*
X02896Y03368*
X02896Y03367*
X02896Y03367*
Y03387*
X02896Y03386*
G37*
G36*
X02515Y03362D02*
X02515Y03361D01*
X02515Y0336*
X02515Y03359*
X02516Y03358*
X02517Y03356*
X02518Y03355*
X02519Y03353*
X02523Y03349*
X02516Y03342*
X02514Y03344*
X0251Y03347*
X02509Y03348*
X02507Y03349*
X02506Y0335*
X02505Y0335*
X02503Y0335*
X02503Y0335*
X02502Y03349*
X02516Y03363*
X02515Y03362*
G37*
G36*
X03913Y03008D02*
X03915Y03007D01*
X03916Y03006*
X03918Y03005*
X03919Y03004*
X0392Y03004*
X03922Y03003*
X03923Y03003*
X03925Y03002*
X03926Y03002*
X039*
X03901Y03002*
X03902Y03003*
X03902Y03003*
X03902Y03004*
X03902Y03004*
X03902Y03005*
X03901Y03006*
X039Y03007*
X03899Y03008*
X03898Y03009*
X03912*
X03913Y03008*
G37*
G36*
X039Y02869D02*
X039Y02869D01*
X039Y0287*
X03899Y02871*
X03899Y02872*
X03898Y02872*
X03897Y02873*
X03895Y02873*
X03894Y02873*
X03892Y02873*
X0389Y02874*
Y02884*
X03892Y02884*
X03894Y02884*
X03895Y02884*
X03897Y02884*
X03898Y02885*
X03899Y02885*
X03899Y02886*
X039Y02887*
X039Y02888*
X039Y02889*
Y02869*
G37*
G36*
X04542Y02542D02*
X0453D01*
Y02661*
X04542*
Y02542*
G37*
G36*
X04501D02*
X04493D01*
Y02582*
X04501*
Y02542*
G37*
G36*
X04461D02*
X04454D01*
Y02582*
X04461*
Y02542*
G37*
G36*
X04422D02*
X04414D01*
Y02582*
X04422*
Y02542*
G37*
G36*
X04383D02*
X04375D01*
Y02582*
X04383*
Y02542*
G37*
G36*
X04343D02*
X04335D01*
Y02621*
X04343*
Y02542*
G37*
G36*
X04304D02*
X04296D01*
Y02582*
X04304*
Y02542*
G37*
G36*
X04265D02*
X04257D01*
Y02582*
X04265*
Y02542*
G37*
G36*
X04225D02*
X04217D01*
Y02582*
X04225*
Y02542*
G37*
G36*
X04186D02*
X04178D01*
Y02582*
X04186*
Y02542*
G37*
G36*
X04148D02*
X04137D01*
Y02661*
X04148*
Y02542*
G37*
G36*
X04107D02*
X04099D01*
Y02582*
X04107*
Y02542*
G37*
G36*
X04068D02*
X0406D01*
Y02582*
X04068*
Y02542*
G37*
G36*
X04028D02*
X0402D01*
Y02582*
X04028*
Y02542*
G37*
G36*
X03989D02*
X03981D01*
Y02582*
X03989*
Y02542*
G37*
G36*
X0395D02*
X03942D01*
Y02621*
X0395*
Y02542*
G37*
G36*
X0391D02*
X03902D01*
Y02582*
X0391*
Y02542*
G37*
G36*
X03871D02*
X03863D01*
Y02582*
X03871*
Y02542*
G37*
G36*
X03831D02*
X03824D01*
Y02582*
X03831*
Y02542*
G37*
G36*
X03792D02*
X03784D01*
Y02582*
X03792*
Y02542*
G37*
G36*
X03755D02*
X03743D01*
Y02661*
X03755*
Y02542*
G37*
G36*
X03713D02*
X03705D01*
Y02582*
X03713*
Y02542*
G37*
G36*
X03674D02*
X03666D01*
Y02582*
X03674*
Y02542*
G37*
G36*
X03635D02*
X03627D01*
Y02582*
X03635*
Y02542*
G37*
G36*
X03595D02*
X03587D01*
Y02582*
X03595*
Y02542*
G37*
G36*
X03556D02*
X03548D01*
Y02621*
X03556*
Y02542*
G37*
G36*
X03517D02*
X03509D01*
Y02582*
X03517*
Y02542*
G37*
G36*
X03477D02*
X03469D01*
Y02582*
X03477*
Y02542*
G37*
G36*
X03438D02*
X0343D01*
Y02582*
X03438*
Y02542*
G37*
G36*
X03398D02*
X03391D01*
Y02582*
X03398*
Y02542*
G37*
G36*
X03361D02*
X03349D01*
Y02661*
X03361*
Y02542*
G37*
G36*
X0332D02*
X03312D01*
Y02582*
X0332*
Y02542*
G37*
G36*
X0328D02*
X03272D01*
Y02582*
X0328*
Y02542*
G37*
G36*
X03241D02*
X03233D01*
Y02582*
X03241*
Y02542*
G37*
G36*
X03202D02*
X03194D01*
Y02582*
X03202*
Y02542*
G37*
G36*
X03162D02*
X03154D01*
Y02621*
X03162*
Y02542*
G37*
G36*
X03123D02*
X03115D01*
Y02582*
X03123*
Y02542*
G37*
G36*
X03083D02*
X03076D01*
Y02582*
X03083*
Y02542*
G37*
G36*
X03044D02*
X03036D01*
Y02582*
X03044*
Y02542*
G37*
G36*
X03005D02*
X02997D01*
Y02582*
X03005*
Y02542*
G37*
G36*
X02967D02*
X02955D01*
Y02661*
X02967*
Y02542*
G37*
G36*
X02926D02*
X02918D01*
Y02582*
X02926*
Y02542*
G37*
G36*
X02887D02*
X02879D01*
Y02582*
X02887*
Y02542*
G37*
G36*
X02847D02*
X02839D01*
Y02582*
X02847*
Y02542*
G37*
G36*
X02808D02*
X028D01*
Y02582*
X02808*
Y02542*
G37*
G36*
X02768D02*
X02761D01*
Y02621*
X02768*
Y02542*
G37*
G36*
X02729D02*
X02721D01*
Y02582*
X02729*
Y02542*
G37*
G36*
X0269D02*
X02682D01*
Y02582*
X0269*
Y02542*
G37*
G36*
X0265D02*
X02643D01*
Y02582*
X0265*
Y02542*
G37*
G36*
X02611D02*
X02603D01*
Y02582*
X02611*
Y02542*
G37*
G36*
X02574D02*
X02562D01*
Y02661*
X02574*
Y02542*
G37*
G36*
X02532D02*
X02524D01*
Y02582*
X02532*
Y02542*
G37*
G36*
X02493D02*
X02485D01*
Y02582*
X02493*
Y02542*
G37*
G36*
X02454D02*
X02446D01*
Y02582*
X02454*
Y02542*
G37*
G36*
X02414D02*
X02406D01*
Y02582*
X02414*
Y02542*
G37*
G36*
X02375D02*
X02367D01*
Y02621*
X02375*
Y02542*
G37*
G36*
X02335D02*
X02328D01*
Y02582*
X02335*
Y02542*
G37*
G36*
X02296D02*
X02288D01*
Y02582*
X02296*
Y02542*
G37*
G36*
X02257D02*
X02249D01*
Y02582*
X02257*
Y02542*
G37*
G36*
X02217D02*
X02209D01*
Y02582*
X02217*
Y02542*
G37*
G36*
X0218D02*
X02168D01*
Y02661*
X0218*
Y02542*
G37*
G36*
X02139D02*
X02131D01*
Y02582*
X02139*
Y02542*
G37*
G36*
X02099D02*
X02091D01*
Y02582*
X02099*
Y02542*
G37*
G36*
X0206D02*
X02052D01*
Y02582*
X0206*
Y02542*
G37*
G36*
X0202D02*
X02013D01*
Y02582*
X0202*
Y02542*
G37*
G36*
X01981D02*
X01973D01*
Y02621*
X01981*
Y02542*
G37*
G36*
X01942D02*
X01934D01*
Y02582*
X01942*
Y02542*
G37*
G36*
X01902D02*
X01894D01*
Y02582*
X01902*
Y02542*
G37*
G36*
X01863D02*
X01855D01*
Y02582*
X01863*
Y02542*
G37*
G36*
X01824D02*
X01816D01*
Y02582*
X01824*
Y02542*
G37*
G36*
X01786D02*
X01786D01*
Y02542*
X01774*
Y0266*
X01774*
Y02661*
X01786*
Y02542*
G37*
G36*
X01745Y02542D02*
X01737D01*
Y02582*
X01745*
Y02542*
G37*
G36*
X01705D02*
X01697D01*
Y02582*
X01705*
Y02542*
G37*
G36*
X01666D02*
X01658D01*
Y02582*
X01666*
Y02542*
G37*
G36*
X01627D02*
X01619D01*
Y02582*
X01627*
Y02542*
G37*
G36*
X01587D02*
X01579D01*
Y02621*
X01587*
Y02542*
G37*
G36*
X01548D02*
X0154D01*
Y02582*
X01548*
Y02542*
G37*
G36*
X01508D02*
X01501D01*
Y02582*
X01508*
Y02542*
G37*
G36*
X01469D02*
X01461D01*
Y02582*
X01469*
Y02542*
G37*
G36*
X0143D02*
X01422D01*
Y02582*
X0143*
Y02542*
G37*
G36*
X01392D02*
X0138D01*
Y0266*
X01392*
Y02542*
G37*
G36*
X06775Y03855D02*
X06764D01*
Y03915*
X06775*
Y03855*
G37*
G36*
X0665D02*
X06639D01*
Y03915*
X0665*
Y03855*
G37*
G36*
X06525D02*
X06514D01*
Y03915*
X06525*
Y03855*
G37*
G36*
X06275D02*
X06264D01*
Y03915*
X06275*
Y03855*
G37*
G36*
X0615D02*
X06139D01*
Y03915*
X0615*
Y03855*
G37*
G36*
X06025D02*
X06014D01*
Y03915*
X06025*
Y03855*
G37*
G36*
X05775D02*
X05764D01*
Y03915*
X05775*
Y03855*
G37*
G36*
X0565D02*
X05639D01*
Y03915*
X0565*
Y03855*
G37*
G36*
X05525D02*
X05514D01*
Y03915*
X05525*
Y03855*
G37*
G36*
X05275D02*
X05264D01*
Y03915*
X05275*
Y03855*
G37*
G36*
X0515D02*
X05139D01*
Y03915*
X0515*
Y03855*
G37*
G36*
X05025D02*
X05014D01*
Y03915*
X05025*
Y03855*
G37*
G36*
X04775D02*
X04764D01*
Y03915*
X04775*
Y03855*
G37*
G36*
X0465D02*
X04639D01*
Y03915*
X0465*
Y03855*
G37*
G36*
X049Y03816D02*
X04889D01*
Y03915*
X049*
Y03816*
G37*
G36*
X069Y03777D02*
X06889D01*
Y03915*
X069*
Y03777*
G37*
G36*
X064Y03816D02*
Y03777D01*
X06389*
Y03816*
Y03915*
X064*
Y03816*
G37*
G36*
X059D02*
Y03777D01*
X05889*
Y03816*
Y03915*
X059*
Y03816*
G37*
G36*
X054Y03777D02*
X05389D01*
Y03915*
X054*
Y03777*
G37*
G36*
X05159Y0361D02*
X0516Y03609D01*
X05162Y03608*
X05164Y03607*
X05167Y03606*
X0517Y03606*
X05174Y03605*
X05183Y03605*
X05189Y03605*
Y03575*
X05183Y03575*
X0517Y03574*
X05167Y03573*
X05164Y03572*
X05162Y03571*
X0516Y0357*
X05159Y03569*
X05159Y03568*
Y03611*
X05159Y0361*
G37*
G36*
X05106Y03568D02*
X05106Y03569D01*
X05105Y0357*
X05103Y03571*
X05101Y03572*
X05099Y03573*
X05095Y03574*
X05091Y03574*
X05082Y03575*
X05076Y03575*
Y03605*
X05082Y03605*
X05095Y03606*
X05099Y03606*
X05101Y03607*
X05103Y03608*
X05105Y03609*
X05106Y0361*
X05106Y03611*
Y03568*
G37*
G36*
X06609Y03582D02*
X0661Y03581D01*
X06612Y03581*
X06614Y03581*
X06616Y0358*
X06624Y0358*
X06639Y0358*
Y0355*
X06633Y03549*
X06624Y03549*
X0662Y03548*
X06616Y03547*
X06614Y03546*
X06612Y03545*
X0661Y03543*
X06609Y03541*
X06609Y0354*
Y03583*
X06609Y03582*
G37*
G36*
X05382Y03499D02*
X05381Y03502D01*
X05381Y03504*
X05379Y03507*
X05377Y03508*
X05374Y0351*
X05371Y03511*
X05367Y03513*
X05363Y03513*
X05357Y03514*
X05352Y03514*
Y03544*
X05357Y03544*
X05363Y03544*
X05367Y03545*
X05371Y03546*
X05374Y03548*
X05377Y03549*
X05379Y03551*
X05381Y03553*
X05381Y03556*
X05382Y03559*
Y03499*
G37*
G36*
X05157Y03513D02*
X05155Y03512D01*
X05154Y0351*
X05152Y03508*
X05151Y03505*
X0515Y03502*
X05149Y03498*
X05149Y03494*
X05149Y03489*
X05149Y03483*
X05119*
X05118Y03489*
X05117Y03498*
X05117Y03502*
X05115Y03505*
X05114Y03508*
X05112Y0351*
X05111Y03512*
X05108Y03513*
X05106Y03513*
X05159*
X05157Y03513*
G37*
G36*
X06717Y03574D02*
X06718Y03574D01*
X06719Y03573*
X06762Y0355*
X06757Y03549*
X06752Y03549*
X06748Y03549*
X06745Y03548*
X06742Y03547*
X06742Y03547*
X06792Y0349*
X06781Y03479*
X06697Y03553*
X06707Y03564*
X06707Y03565*
Y0358*
X06717Y03574*
G37*
G36*
X0687Y03477D02*
X0687Y03477D01*
X06869Y03477*
X06867Y03477*
X06855Y03477*
Y03492*
X0687Y03492*
Y03477*
G37*
G36*
X05649Y03485D02*
X05648Y03484D01*
X05647Y03484*
X05646Y03483*
X05646Y03482*
X05645Y03481*
X05645Y0348*
X05645Y03478*
X05645Y03477*
X05645Y03475*
X05635*
X05634Y03477*
X05634Y03478*
X05634Y0348*
X05634Y03481*
X05633Y03482*
X05633Y03483*
X05632Y03484*
X05631Y03484*
X0563Y03485*
X0563Y03485*
X0565*
X05649Y03485*
G37*
G36*
X05569D02*
X05568Y03484D01*
X05567Y03484*
X05566Y03483*
X05566Y03482*
X05565Y03481*
X05565Y0348*
X05565Y03478*
X05565Y03477*
X05565Y03475*
X05555*
X05554Y03477*
X05554Y03478*
X05554Y0348*
X05554Y03481*
X05553Y03482*
X05553Y03483*
X05552Y03484*
X05551Y03484*
X0555Y03485*
X0555Y03485*
X0557*
X05569Y03485*
G37*
G36*
X05489D02*
X05488Y03484D01*
X05487Y03484*
X05486Y03483*
X05486Y03482*
X05485Y03481*
X05485Y0348*
X05485Y03478*
X05485Y03477*
X05485Y03475*
X05475*
X05474Y03477*
X05474Y03478*
X05474Y0348*
X05474Y03481*
X05473Y03482*
X05473Y03483*
X05472Y03484*
X05471Y03484*
X0547Y03485*
X0547Y03485*
X0549*
X05489Y03485*
G37*
G36*
X05726Y03491D02*
X05726Y03485D01*
X05731*
X0573Y03485*
X05729Y03484*
X05728Y03484*
X05727Y03483*
X05727Y03482*
X05726Y03481*
X05726Y03481*
X05727Y03473*
X05727Y03471*
X05728Y03469*
X05728Y03468*
X05729Y03467*
X05712*
X05713Y03468*
X05713Y03469*
X05714Y03471*
X05714Y03473*
X05715Y03476*
X05715Y0348*
X05715Y03481*
X05714Y03482*
X05714Y03483*
X05713Y03484*
X05712Y03484*
X05711Y03485*
X05711Y03485*
X05715*
X05716Y03496*
X05726*
X05726Y03491*
G37*
G36*
X0542Y03484D02*
X05419Y03484D01*
X05419Y03482*
X05418Y0348*
X05417Y03477*
X05417Y03474*
X05416Y03466*
X05416Y03455*
X05386*
X05386Y0346*
X05385Y03477*
X05385Y0348*
X05384Y03482*
X05383Y03484*
X05383Y03484*
X05382Y03485*
X05421*
X0542Y03484*
G37*
G36*
X06402Y03443D02*
X06402Y03444D01*
X06401Y03444*
X06399Y03444*
X06397Y03445*
X06395Y03445*
X06383Y03446*
X06372Y03446*
Y03476*
X06378Y03476*
X06399Y03477*
X06401Y03477*
X06402Y03478*
X06402Y03478*
Y03443*
G37*
G36*
X0687Y03425D02*
X0687Y03425D01*
X06869Y03425*
X06867Y03426*
X06855Y03426*
Y03441*
X0687Y03441*
Y03425*
G37*
G36*
X06463Y03475D02*
X06464Y03472D01*
X06465Y03469*
X06466Y03466*
X06468Y03462*
X06471Y03459*
X06473Y03455*
X0648Y03447*
X06484Y03443*
X06463Y03422*
X06457Y03428*
X06446Y03437*
X06441Y0344*
X06437Y03443*
X06433Y03444*
X06429Y03445*
X06426Y03445*
X06423Y03445*
X0642Y03443*
X06463Y03478*
X06463Y03475*
G37*
G36*
X05645Y03446D02*
X05646Y03428D01*
X05646Y03426*
X05647Y03424*
X05647Y03423*
X05648Y03422*
X05631*
X05632Y03423*
X05632Y03424*
X05633Y03426*
X05633Y03428*
X05634Y03431*
X05634Y03438*
X05635Y03451*
X05645*
X05645Y03446*
G37*
G36*
X07018Y03447D02*
X07018Y03443D01*
X07033*
X0703Y03443*
X07027Y03442*
X07025Y03441*
X07023Y03438*
X07021Y03436*
X0702Y03433*
X07021Y03431*
X07023Y03428*
X07025Y03426*
X07027Y03424*
X0703Y03423*
X07033Y03423*
X07018*
X07018Y03419*
X07018Y03413*
X06988*
X06987Y03419*
X06987Y03423*
X06973*
X06975Y03423*
X06978Y03424*
X0698Y03426*
X06982Y03428*
X06984Y03431*
X06985Y03433*
X06984Y03436*
X06982Y03438*
X0698Y03441*
X06978Y03442*
X06975Y03443*
X06973Y03443*
X06987*
X06987Y03447*
X06988Y03453*
X07018*
X07018Y03447*
G37*
G36*
X05149Y03417D02*
X05149Y03412D01*
X0515Y03408*
X05151Y03404*
X05152Y03401*
X05154Y03398*
X05156Y03396*
X05158Y03394*
X0516Y03393*
X05163Y03393*
X05106*
X05108Y03393*
X05111Y03394*
X05112Y03396*
X05114Y03398*
X05115Y03401*
X05117Y03404*
X05117Y03408*
X05118Y03412*
X05118Y03417*
X05119Y03423*
X05149*
X05149Y03417*
G37*
G36*
X05565Y03387D02*
X05566Y03369D01*
X05566Y03367*
X05567Y03365*
X05567Y03364*
X05568Y03363*
X05551*
X05552Y03364*
X05552Y03365*
X05553Y03367*
X05553Y03369*
X05554Y03372*
X05554Y03379*
X05555Y03392*
X05565*
X05565Y03387*
G37*
G36*
X05163Y03389D02*
X05164Y03387D01*
X05166Y03384*
X05168Y03382*
X0517Y03381*
X05174Y03379*
X05178Y03378*
X05182Y03378*
X05187Y03377*
X05193Y03377*
Y03347*
X05187Y03347*
X0517Y03346*
X05168Y03345*
X05166Y03345*
X05164Y03344*
X05163Y03343*
X05163Y03342*
X05163Y03392*
X05163Y03389*
G37*
G36*
X0703Y03364D02*
X07027Y03363D01*
X07025Y03362*
X07023Y0336*
X07021Y03357*
X0702Y03354*
X07019Y0335*
X07018Y03345*
X07018Y0334*
X07018Y03334*
X06988*
X06987Y0334*
X06987Y03345*
X06986Y0335*
X06985Y03354*
X06984Y03357*
X06982Y0336*
X0698Y03362*
X06978Y03363*
X06975Y03364*
X06973Y03364*
X07033*
X0703Y03364*
G37*
G36*
X05485Y0334D02*
X05486Y03322D01*
X05486Y0332*
X05487Y03318*
X05487Y03317*
X05488Y03316*
X05471*
X05472Y03317*
X05472Y03318*
X05473Y0332*
X05473Y03322*
X05474Y03325*
X05474Y03332*
X05475Y03345*
X05485*
X05485Y0334*
G37*
G36*
X05057Y03174D02*
X05058Y03174D01*
X0506Y03173*
X05062Y03173*
X05065Y03172*
X05072Y03172*
X05085Y03172*
Y03162*
X0508Y03161*
X05062Y0316*
X0506Y0316*
X05058Y03159*
X05057Y03159*
X05056Y03158*
Y03175*
X05057Y03174*
G37*
G36*
X05107Y03157D02*
X05107Y03157D01*
X05107Y03158*
X05106Y03159*
X05106Y0316*
X05105Y0316*
X05104Y03161*
X05102Y03161*
X05101Y03161*
X05099Y03161*
X05097Y03162*
Y03172*
X05099Y03172*
X05101Y03172*
X05102Y03172*
X05104Y03172*
X05105Y03173*
X05106Y03173*
X05106Y03174*
X05107Y03175*
X05107Y03176*
X05107Y03177*
Y03157*
G37*
G36*
X05724Y03062D02*
X05724Y03061D01*
X05723Y03059*
X05723Y03057*
X05722Y03054*
X05722Y03047*
X05722Y03034*
X05712*
X05711Y03039*
X0571Y03057*
X0571Y03059*
X05709Y03061*
X05709Y03062*
X05708Y03063*
X05725*
X05724Y03062*
G37*
G36*
X06402Y02991D02*
X06402Y02992D01*
X06401Y02992*
X06399Y02993*
X06397Y02993*
X06395Y02993*
X06383Y02994*
X06372Y02994*
Y03024*
X06378Y03024*
X06399Y03025*
X06401Y03026*
X06402Y03026*
X06402Y03026*
Y02991*
G37*
G36*
X05653Y03017D02*
X05653Y03016D01*
X05652Y03014*
X05652Y03012*
X05651Y03009*
X05651Y03002*
X05651Y02989*
X05641*
X0564Y02994*
X05639Y03012*
X05639Y03014*
X05638Y03016*
X05638Y03017*
X05637Y03018*
X05654*
X05653Y03017*
G37*
G36*
X05722Y02981D02*
X05722Y02979D01*
X05722Y02978*
X05722Y02976*
X05723Y02975*
X05723Y02974*
X05724Y02973*
X05725Y02973*
X05726Y02973*
X05727Y02973*
X05707*
X05707Y02973*
X05708Y02973*
X05709Y02973*
X0571Y02974*
X0571Y02975*
X05711Y02976*
X05711Y02978*
X05711Y02979*
X05711Y02981*
X05712Y02983*
X05722*
X05722Y02981*
G37*
G36*
X05651D02*
X05651Y02979D01*
X05651Y02978*
X05651Y02976*
X05652Y02975*
X05652Y02974*
X05653Y02973*
X05654Y02973*
X05655Y02973*
X05656Y02973*
X05636*
X05636Y02973*
X05637Y02973*
X05638Y02973*
X05639Y02974*
X05639Y02975*
X0564Y02976*
X0564Y02978*
X0564Y02979*
X0564Y02981*
X05641Y02983*
X05651*
X05651Y02981*
G37*
G36*
X05494Y03003D02*
X05494Y03002D01*
X05493Y03*
X05493Y02998*
X05492Y02995*
X05492Y02988*
X05492Y0298*
X05492Y02979*
X05492Y02978*
X05492Y02976*
X05493Y02975*
X05493Y02974*
X05494Y02973*
X05495Y02973*
X05496Y02973*
X05497Y02973*
X05477*
X05477Y02973*
X05478Y02973*
X05479Y02973*
X0548Y02974*
X0548Y02975*
X05481Y02976*
X05481Y02978*
X05481Y02979*
X05481Y0298*
X0548Y02998*
X0548Y03*
X05479Y03002*
X05479Y03003*
X05478Y03004*
X05495*
X05494Y03003*
G37*
G36*
X05168Y0295D02*
X05169Y02949D01*
X05171Y02949*
X05173Y02948*
X05175Y02947*
X05179Y02947*
X05187Y02946*
X05198Y02946*
Y02916*
X05168Y02916*
Y02951*
X05168Y0295*
G37*
G36*
X05382Y02901D02*
X05381Y02904D01*
X05381Y02906*
X05379Y02909*
X05377Y02911*
X05374Y02912*
X05371Y02914*
X05367Y02915*
X05363Y02915*
X05357Y02916*
X05352Y02916*
Y02946*
X05357Y02946*
X05363Y02947*
X05367Y02947*
X05371Y02948*
X05374Y0295*
X05377Y02951*
X05379Y02953*
X05381Y02956*
X05381Y02958*
X05382Y02961*
Y02901*
G37*
G36*
X04743Y02899D02*
X04744Y02898D01*
X04744Y02897*
X04745Y02897*
X04746Y02896*
X04747Y02896*
X04748Y02895*
X0475Y02895*
X04751Y02895*
X04753Y02895*
Y02885*
X04751Y02885*
X0475Y02885*
X04748Y02884*
X04747Y02884*
X04746Y02884*
X04745Y02883*
X04744Y02882*
X04744Y02882*
X04743Y02881*
X04743Y0288*
Y029*
X04743Y02899*
G37*
G36*
X05804Y02884D02*
X05803Y02884D01*
X05802Y02884*
X05802Y02883*
X05801Y02882*
X05801Y02881*
X058Y02879*
X058Y02878*
X058Y02876*
X058Y02874*
X0579*
X0579Y02876*
X0579Y02878*
X0579Y02879*
X05789Y02881*
X05789Y02882*
X05788Y02883*
X05788Y02884*
X05787Y02884*
X05786Y02884*
X05785Y02884*
X05805*
X05804Y02884*
G37*
G36*
X06607Y02927D02*
X06606Y02924D01*
X06606Y02921*
X06607Y02918*
X06609Y02914*
X06611Y02909*
X06615Y02904*
X06619Y02899*
X0663Y02887*
X06609Y02866*
X06603Y02872*
X06592Y02881*
X06587Y02884*
X06582Y02887*
X06578Y02889*
X06575Y0289*
X06572Y0289*
X06569Y02889*
X06567Y02887*
X06609Y02929*
X06607Y02927*
G37*
G36*
X05107Y02819D02*
X05107Y0282D01*
X05107Y02821*
X05106Y02822*
X05106Y02823*
X05105Y02823*
X05104Y02824*
X05102Y02824*
X05101Y02824*
X05099Y02824*
X05097Y02824*
Y02834*
X05099Y02834*
X05101Y02835*
X05102Y02835*
X05104Y02835*
X05105Y02836*
X05106Y02836*
X05106Y02837*
X05107Y02838*
X05107Y02838*
X05107Y02839*
Y02819*
G37*
G36*
X05168Y02812D02*
X05167Y02812D01*
X05166Y02811*
X05166Y02811*
X05165Y02811*
X05165Y0281*
X05166Y02809*
X05166Y02808*
X05167Y02807*
X05168Y02806*
X05169Y02805*
X05155*
X05154Y02806*
X05152Y02807*
X05151Y02808*
X05149Y02809*
X05148Y0281*
X05147Y02811*
X05145Y02811*
X05144Y02812*
X05142Y02812*
X05141Y02812*
X05168Y02812*
G37*
G36*
X06904Y02542D02*
X06893D01*
Y02661*
X06904*
Y02542*
G37*
G36*
X06863D02*
X06855D01*
Y02582*
X06863*
Y02542*
G37*
G36*
X06824D02*
X06816D01*
Y02582*
X06824*
Y02542*
G37*
G36*
X06784D02*
X06776D01*
Y02582*
X06784*
Y02542*
G37*
G36*
X06745D02*
X06737D01*
Y02582*
X06745*
Y02542*
G37*
G36*
X06705D02*
X06698D01*
Y02621*
X06705*
Y02542*
G37*
G36*
X06666D02*
X06658D01*
Y02582*
X06666*
Y02542*
G37*
G36*
X06627D02*
X06619D01*
Y02582*
X06627*
Y02542*
G37*
G36*
X06587D02*
X0658D01*
Y02582*
X06587*
Y02542*
G37*
G36*
X06548D02*
X0654D01*
Y02582*
X06548*
Y02542*
G37*
G36*
X06511D02*
X06499D01*
Y02661*
X06511*
Y02542*
G37*
G36*
X06469D02*
X06461D01*
Y02582*
X06469*
Y02542*
G37*
G36*
X0643D02*
X06422D01*
Y02582*
X0643*
Y02542*
G37*
G36*
X06391D02*
X06383D01*
Y02582*
X06391*
Y02542*
G37*
G36*
X06351D02*
X06343D01*
Y02582*
X06351*
Y02542*
G37*
G36*
X06312D02*
X06304D01*
Y02621*
X06312*
Y02542*
G37*
G36*
X06272D02*
X06265D01*
Y02582*
X06272*
Y02542*
G37*
G36*
X06233D02*
X06225D01*
Y02582*
X06233*
Y02542*
G37*
G36*
X06194D02*
X06186D01*
Y02582*
X06194*
Y02542*
G37*
G36*
X06154D02*
X06146D01*
Y02582*
X06154*
Y02542*
G37*
G36*
X06117D02*
X06105D01*
Y02661*
X06117*
Y02542*
G37*
G36*
X06076D02*
X06068D01*
Y02582*
X06076*
Y02542*
G37*
G36*
X06036D02*
X06028D01*
Y02582*
X06036*
Y02542*
G37*
G36*
X05997D02*
X05989D01*
Y02582*
X05997*
Y02542*
G37*
G36*
X05957D02*
X0595D01*
Y02582*
X05957*
Y02542*
G37*
G36*
X05918D02*
X0591D01*
Y02621*
X05918*
Y02542*
G37*
G36*
X05879D02*
X05871D01*
Y02582*
X05879*
Y02542*
G37*
G36*
X05839D02*
X05831D01*
Y02582*
X05839*
Y02542*
G37*
G36*
X058D02*
X05792D01*
Y02582*
X058*
Y02542*
G37*
G36*
X05761D02*
X05753D01*
Y02582*
X05761*
Y02542*
G37*
G36*
X05723D02*
X05711D01*
Y02661*
X05723*
Y02542*
G37*
G36*
X05682D02*
X05674D01*
Y02582*
X05682*
Y02542*
G37*
G36*
X05643D02*
X05635D01*
Y02582*
X05643*
Y02542*
G37*
G36*
X05603D02*
X05595D01*
Y02582*
X05603*
Y02542*
G37*
G36*
X05564D02*
X05556D01*
Y02582*
X05564*
Y02542*
G37*
G36*
X05524D02*
X05517D01*
Y02621*
X05524*
Y02542*
G37*
G36*
X05485D02*
X05477D01*
Y02582*
X05485*
Y02542*
G37*
G36*
X05446D02*
X05438D01*
Y02582*
X05446*
Y02542*
G37*
G36*
X05406D02*
X05398D01*
Y02582*
X05406*
Y02542*
G37*
G36*
X05367D02*
X05359D01*
Y02582*
X05367*
Y02542*
G37*
G36*
X0533D02*
X05318D01*
Y02661*
X0533*
Y02542*
G37*
G36*
X05288D02*
X0528D01*
Y02582*
X05288*
Y02542*
G37*
G36*
X05249D02*
X05241D01*
Y02582*
X05249*
Y02542*
G37*
G36*
X05209D02*
X05202D01*
Y02582*
X05209*
Y02542*
G37*
G36*
X0517D02*
X05162D01*
Y02582*
X0517*
Y02542*
G37*
G36*
X05131D02*
X05123D01*
Y02621*
X05131*
Y02542*
G37*
G36*
X05091D02*
X05083D01*
Y02582*
X05091*
Y02542*
G37*
G36*
X05052D02*
X05044D01*
Y02582*
X05052*
Y02542*
G37*
G36*
X05013D02*
X05005D01*
Y02582*
X05013*
Y02542*
G37*
G36*
X04973D02*
X04965D01*
Y02582*
X04973*
Y02542*
G37*
G36*
X04936D02*
X04924D01*
Y02661*
X04936*
Y02542*
G37*
G36*
X04894D02*
X04887D01*
Y02582*
X04894*
Y02542*
G37*
G36*
X04855D02*
X04847D01*
Y02582*
X04855*
Y02542*
G37*
G36*
X04816D02*
X04808D01*
Y02582*
X04816*
Y02542*
G37*
G36*
X04776D02*
X04768D01*
Y02582*
X04776*
Y02542*
G37*
G36*
X04737D02*
X04729D01*
Y02621*
X04737*
Y02542*
G37*
G36*
X04698D02*
X0469D01*
Y02582*
X04698*
Y02542*
G37*
G36*
X04658D02*
X0465D01*
Y02582*
X04658*
Y02542*
G37*
G36*
X04619D02*
X04611D01*
Y02582*
X04619*
Y02542*
G37*
G36*
X0458D02*
X04572D01*
Y02582*
X0458*
Y02542*
G37*
G54D10*
X02617Y03248D02*
X02631D01*
X02487Y03378D02*
X02617Y03248D01*
X02141Y03236D02*
X02153Y03224D01*
Y03163D02*
Y03224D01*
X02141Y03236D02*
X02147Y03241D01*
X0177Y03227D02*
X01776Y03233D01*
X0177Y03163D02*
Y03227D01*
X03223Y0316D02*
Y03236D01*
X03218Y03241D02*
X03223Y03236D01*
X02867Y03169D02*
X0287Y03167D01*
X02867Y03169D02*
Y0324D01*
X02867Y03241D02*
X02867Y0324D01*
X02489Y03165D02*
Y03239D01*
X02487Y03241D02*
X02489Y03239D01*
X05633Y03524D02*
X0564Y03517D01*
X03577Y0324D02*
X03581Y03244D01*
X0358Y0321D02*
X03597Y03228D01*
X0358Y0316D02*
Y0321D01*
X03581Y03244D02*
X03597Y03228D01*
X0556Y03354D02*
Y03548D01*
X06431Y02904D02*
X06445Y0289D01*
X05713Y03525D02*
X05721Y03517D01*
X04031Y03477D02*
X04057Y03503D01*
X03934Y03477D02*
X04031D01*
X04054Y03346D02*
Y03391D01*
X0414Y03477*
X04026Y03198D02*
X04058Y03166D01*
X03947Y03198D02*
X04026D01*
X04056Y03259D02*
X04067D01*
X04141Y03184*
X03934D02*
X03947Y03198D01*
X04141Y03184D02*
X0418D01*
X06999Y03296D02*
X07003Y03329D01*
X06999Y03292D02*
X06999Y03296D01*
X04083Y02879D02*
X0418D01*
X04006Y02802D02*
X04083Y02879D01*
X03818Y02802D02*
X04006D01*
X03716Y02904D02*
X03818Y02802D01*
X03716Y02904D02*
Y03286D01*
X03623Y03378D02*
X03716Y03286D01*
X03576Y03378D02*
X03623D01*
X03621Y03481D02*
X03779Y03323D01*
Y02972D02*
Y03323D01*
Y02972D02*
X03872Y02879D01*
X04621Y03267D02*
Y0332D01*
X06445Y02849D02*
Y0289D01*
X06431Y02904D02*
X06433Y02905D01*
X03845Y0307D02*
Y03556D01*
X06582Y0291D02*
X06583Y02909D01*
X06311Y03567D02*
X06431D01*
X06166Y03422D02*
X06311Y03567D01*
X05817Y03422D02*
X06166D01*
X05795Y03443D02*
X05817Y03422D01*
X05795Y03443D02*
Y03529D01*
X03576Y03241D02*
X03577Y0324D01*
X01768Y03241D02*
X01776Y03233D01*
X05047Y03167D02*
X05137D01*
X05138Y03167*
X05487Y02935D02*
Y03014D01*
X0548Y02929D02*
X05487Y02935D01*
X03933Y03296D02*
X04179D01*
X03872Y02879D02*
X03934D01*
X03845Y0307D02*
X03934Y02981D01*
X03847Y03254D02*
X0388Y03287D01*
X03933Y03296*
X03869Y0358D02*
X03934D01*
X03845Y03556D02*
X03869Y0358D01*
X05764Y02799D02*
X05795Y0283D01*
X05168Y02799D02*
X05764D01*
X05138Y02829D02*
X05168Y02799D01*
X0548Y02929D02*
X05482Y02927D01*
X05646Y02937D02*
Y03028D01*
X05638Y02929D02*
X05646Y02937D01*
X05717Y02929D02*
Y03073D01*
X05716Y02929D02*
X05717Y02929D01*
X01771Y03382D02*
X01841D01*
X01768Y03378D02*
X01771Y03382D01*
X02149Y03381D02*
X02224D01*
X02147Y03378D02*
X02149Y03381D01*
X02868Y03377D02*
X02945D01*
X02867Y03378D02*
X02868Y03377D01*
X05721Y03458D02*
Y03517D01*
X0564Y03413D02*
Y03517D01*
X05633Y03524D02*
X05638Y03529D01*
X0548Y03307D02*
Y03528D01*
X0548Y03529*
X05713Y03525D02*
X05716Y03529D01*
X0414Y03477D02*
X0418D01*
X05795Y0283D02*
Y02929D01*
X03474Y03481D02*
X03621D01*
X03371Y03378D02*
X03474Y03481D01*
X03218Y03378D02*
X03371D01*
X04621Y03418D02*
X04673D01*
X03934Y02981D02*
X0418D01*
X03934Y0358D02*
X0418D01*
X04939Y02829D02*
X05138D01*
X04879Y0289D02*
X04939Y02829D01*
X0468Y0289D02*
X04879D01*
X01426Y02642D02*
X01446D01*
X01436*
Y02702*
X01426Y02692*
X01846Y02642D02*
X01806D01*
X01846Y02682*
Y02692*
X01836Y02702*
X01816*
X01806Y02692*
X02206D02*
X02216Y02702D01*
X02236*
X02246Y02692*
Y02682*
X02236Y02672*
X02226*
X02236*
X02246Y02662*
Y02652*
X02236Y02642*
X02216*
X02206Y02652*
X02616Y02642D02*
Y02702D01*
X02586Y02672*
X02626*
X03026Y02702D02*
X02986D01*
Y02672*
X03006Y02682*
X03016*
X03026Y02672*
Y02652*
X03016Y02642*
X02996*
X02986Y02652*
X03426Y02702D02*
X03406Y02692D01*
X03386Y02672*
Y02652*
X03396Y02642*
X03416*
X03426Y02652*
Y02662*
X03416Y02672*
X03386*
X03786Y02702D02*
X03826D01*
Y02692*
X03786Y02652*
Y02642*
X04166Y02692D02*
X04176Y02702D01*
X04196*
X04206Y02692*
Y02682*
X04196Y02672*
X04206Y02662*
Y02652*
X04196Y02642*
X04176*
X04166Y02652*
Y02662*
X04176Y02672*
X04166Y02682*
Y02692*
X04176Y02672D02*
X04196D01*
X04566Y02652D02*
X04576Y02642D01*
X04596*
X04606Y02652*
Y02692*
X04596Y02702*
X04576*
X04566Y02692*
Y02682*
X04576Y02672*
X04606*
X04966Y02642D02*
X04986D01*
X04976*
Y02702*
X04966Y02692*
X05016D02*
X05026Y02702D01*
X05046*
X05056Y02692*
Y02652*
X05046Y02642*
X05026*
X05016Y02652*
Y02692*
X05366Y02642D02*
X05386D01*
X05376*
Y02702*
X05366Y02692*
X05416Y02642D02*
X05436D01*
X05426*
Y02702*
X05416Y02692*
X05746Y02642D02*
X05766D01*
X05756*
Y02702*
X05746Y02692*
X05836Y02642D02*
X05796D01*
X05836Y02682*
Y02692*
X05826Y02702*
X05806*
X05796Y02692*
X06146Y02642D02*
X06166D01*
X06156*
Y02702*
X06146Y02692*
X06196D02*
X06206Y02702D01*
X06226*
X06236Y02692*
Y02682*
X06226Y02672*
X06216*
X06226*
X06236Y02662*
Y02652*
X06226Y02642*
X06206*
X06196Y02652*
X06526Y02642D02*
X06546D01*
X06536*
Y02702*
X06526Y02692*
X06606Y02642D02*
Y02702D01*
X06576Y02672*
X06616*
X06926Y02642D02*
X06946D01*
X06936*
Y02702*
X06926Y02692*
X07016Y02702D02*
X06976D01*
Y02672*
X06996Y02682*
X07006*
X07016Y02672*
Y02652*
X07006Y02642*
X06986*
X06976Y02652*
X01526Y02682D02*
X01496D01*
X01486Y02672*
Y02652*
X01496Y02642*
X01526*
X01546D02*
Y02682D01*
X01556*
X01566Y02672*
Y02642*
Y02672*
X01576Y02682*
X01586Y02672*
Y02642*
X0142Y03794D02*
X0143Y03804D01*
X01449*
X01459Y03794*
Y03755*
X01449Y03745*
X0143*
X0142Y03755*
Y03794*
X0242Y03745D02*
X02439D01*
X0243*
Y03804*
X0242Y03794*
X0442D02*
X0443Y03804D01*
X04449*
X04459Y03794*
Y03784*
X04449Y03774*
X04439*
X04449*
X04459Y03764*
Y03755*
X04449Y03745*
X0443*
X0442Y03755*
X03459Y03745D02*
X0342D01*
X03459Y03784*
Y03794*
X03449Y03804*
X0343*
X0342Y03794*
X06459Y03804D02*
X0642D01*
Y03774*
X06439Y03784*
X06449*
X06459Y03774*
Y03755*
X06449Y03745*
X0643*
X0642Y03755*
X05449Y03745D02*
Y03804D01*
X0542Y03774*
X05459*
X01498Y03748D02*
X01517D01*
X01508*
Y03787*
X01498*
X01547Y03748D02*
Y03787D01*
X01577*
X01587Y03777*
Y03748*
X01647Y03787D02*
X01617D01*
X01607Y03777*
Y03758*
X01617Y03748*
X01647*
G54D18*
X07003Y03473D03*
Y03394D03*
G54D19*
X06896Y03484D03*
Y03433D03*
Y03382D03*
G54D20*
X0668Y03143D03*
Y03234D03*
Y03325D03*
G54D21*
X06435Y03234D03*
G54D22*
X05138Y02829D03*
Y02934D03*
X06433Y03565D03*
Y03461D03*
Y03009D03*
Y02905D03*
X05138Y03167D03*
Y03063D03*
G54D23*
X06583Y02964D03*
Y02909D03*
Y03506D03*
Y03561D03*
X05133Y03535D03*
Y0359D03*
G54D24*
X0468Y0289D03*
X04413D03*
X0468Y03047D03*
X04413D03*
G54D25*
X05135Y03368D03*
Y03305D03*
G54D26*
X05401Y03529D03*
X0548D03*
X05559D03*
X05638D03*
X05716D03*
X05795D03*
X05874D03*
X05952D03*
Y02929D03*
X05874D03*
X05795D03*
X05716D03*
X05638D03*
X05559D03*
X0548D03*
X05401D03*
G54D27*
X01768Y03378D03*
Y03241D03*
X02147Y03378D03*
Y03241D03*
X02487Y03378D03*
Y03241D03*
X02867Y03378D03*
Y03241D03*
X03218Y03378D03*
Y03241D03*
X03576Y03378D03*
Y03241D03*
G54D28*
X03934Y03477D03*
Y0358D03*
X0418Y03477D03*
Y0358D03*
X03934Y03184D03*
Y03287D03*
X0418Y03184D03*
Y03287D03*
X03934Y02879D03*
Y02981D03*
X0418Y02879D03*
Y02981D03*
G54D29*
X04621Y03418D03*
Y03517D03*
Y0332D03*
X04404D03*
Y03517D03*
Y03418D03*
G54D30*
X07003Y03547D03*
Y03319D03*
G54D31*
X06797Y03383D02*
X06896D01*
X06739Y03325D02*
X06797Y03383D01*
X06707Y03565D02*
X06787Y03484D01*
X06896*
X06991*
X07003Y03473*
X06794Y03433D02*
X06896D01*
G54D51*
X06999Y03292D02*
X07001Y03296D01*
X06999Y02885D02*
Y03292D01*
X05449Y03155D02*
X06128D01*
X05401Y03107D02*
X05449Y03155D01*
X05401Y02929D02*
Y03107D01*
X0521Y03063D02*
X0524Y03093D01*
X05138Y03063D02*
X0521D01*
X0497Y02975D02*
X0501Y02934D01*
X05138*
X05058Y03063D02*
X05138D01*
X0497Y02975D02*
X05058Y03063D01*
X04186Y02975D02*
X0497D01*
X07001Y03296D02*
X07001Y03296D01*
X07001Y03296D02*
D01*
X0418Y02981D02*
X04186Y02975D01*
X07001Y03296D02*
D01*
D01*
X06336Y02788D02*
X0683D01*
X06273Y02851D02*
X06336Y02788D01*
X06273Y02851D02*
Y03009D01*
X07001Y03296D02*
D01*
X04587Y03049D02*
X04679D01*
X0468Y03047*
X04513Y03123D02*
X04587Y03049D01*
X04513Y03123D02*
Y03398D01*
X04533Y03418*
X04621*
X05037Y03326D02*
X05066Y03296D01*
X05126D02*
X05135Y03305D01*
X05066Y03296D02*
X05126D01*
X05037Y03418D02*
Y03569D01*
Y03326D02*
Y03418D01*
X04673D02*
X05037D01*
Y03569D02*
X05058Y0359D01*
X06739Y03325D02*
X06762D01*
X0668D02*
X06739D01*
X06988Y03571D02*
X07003D01*
X06956Y03539D02*
X06988Y03571D01*
X069Y03539D02*
X06956D01*
X06896Y03535D02*
X069Y03539D01*
X06896Y03532D02*
Y03535D01*
X07003Y03473D02*
D01*
Y03539*
X07002Y03539D02*
X07003Y03539D01*
X06992Y03539D02*
X07002D01*
X07003Y0355D02*
Y03571D01*
X06992Y03539D02*
X07003Y0355D01*
X06583Y02964D02*
Y03031D01*
X06561Y03053D02*
X06583Y03031D01*
X06561Y03053D02*
Y03246D01*
Y03345*
X06762Y03325D02*
X068Y03287D01*
Y03168D02*
Y03287D01*
Y03168D02*
X06816Y03152D01*
X06898*
X06514Y03626D02*
X06558Y0367D01*
X06514Y03526D02*
Y03626D01*
X06558Y0367D02*
X06985D01*
X06707Y03565D02*
X06863D01*
X06514Y03526D02*
X06531Y03509D01*
X0658*
X06583Y03506*
X0683Y02788D02*
X06902D01*
X0668Y02938D02*
X0683Y02788D01*
X0668Y02938D02*
Y03143D01*
X06902Y02788D02*
X06999Y02885D01*
X06445Y03461D02*
X06561Y03345D01*
Y03246D02*
X06573Y03234D01*
X06586Y03565D02*
X06707D01*
X06587Y02909D02*
X06706Y0279D01*
X06583Y02909D02*
X06587D01*
X06898Y03329D02*
Y03333D01*
X06896Y03335D02*
X06898Y03333D01*
X06273Y03009D02*
X06433D01*
X06128Y03155D02*
X06273Y03009D01*
X05401Y03271D02*
X05437Y03236D01*
X06127D02*
X06352Y03461D01*
X06433*
X05437Y03236D02*
X06127D01*
X05401Y03271D02*
Y03529D01*
X06573Y03234D02*
X0668D01*
Y03325D02*
Y03414D01*
X06587Y03506D02*
X0668Y03414D01*
X06583Y03506D02*
X06587D01*
X06863Y03565D02*
X06896Y03532D01*
X06433Y03461D02*
X06445D01*
X06583Y03561D02*
X06586Y03565D01*
X07003Y03329D02*
Y03394D01*
Y03473*
X05133Y0359D02*
X05237D01*
X05297Y03529*
X05401*
X0514Y02931D02*
X05399D01*
X05138Y02934D02*
X0514Y02931D01*
X05399D02*
X05401Y02929D01*
X0514Y03362D02*
X05208D01*
X0524Y03093D02*
Y03331D01*
X05208Y03362D02*
X0524Y03331D01*
X05135Y03368D02*
X0514Y03362D01*
X05134Y03369D02*
Y03534D01*
Y03369D02*
X05135Y03368D01*
X05133Y03535D02*
X05134Y03534D01*
X05058Y0359D02*
X05133D01*
G54D52*
X07003Y03295D03*
Y03571D03*
G54D53*
X06896Y03335D03*
Y03532D03*
G54D54*
X06998Y03152D03*
G54D55*
X06898Y03152D03*
G54D56*
X02631Y03248D03*
X02153Y03163D03*
X0177D03*
X03223Y0316D03*
X0287Y03167D03*
X02489Y03165D03*
X0358Y0316D03*
X04057Y03503D03*
X04054Y03346D03*
X04058Y03166D03*
X04056Y03259D03*
X04621Y03267D03*
X06445Y02849D03*
X05047Y03167D03*
X05487Y03014D03*
X05646Y03028D03*
X05717Y03073D03*
X01841Y03382D03*
X02224Y03381D03*
X02945Y03377D03*
X0556Y03354D03*
X05721Y03458D03*
X0564Y03413D03*
X0548Y03307D03*
G54D57*
X06985Y0367D03*
M02*