%FSTAX23Y23*%
%MOIN*%
%SFA1B1*%

%IPPOS*%
%ADD10C,0.010000*%
%ADD58C,0.013000*%
%ADD59C,0.005000*%
%LNpcb3-g-1*%
%LPD*%
G36*
X04983Y02949D02*
X04985Y02949D01*
X04987Y02948*
X04988Y02948*
X04993Y02947*
X04998Y02945*
X05002Y02943*
X05006Y02941*
X0501Y02938*
X05013Y02935*
X05016Y02931*
X05018Y02927*
X0502Y02923*
X05021Y02918*
X05022Y02917*
X05022Y02915*
X05022Y02913*
X05022Y02911*
X05022Y02909*
X05022Y02907*
X05022Y02905*
X05022Y02903*
X05022Y02902*
X05021Y029*
X0502Y02897*
X05019Y02894*
X05017Y02891*
X05015Y02888*
X05013Y02885*
X05011Y02882*
X05008Y0288*
X05005Y02878*
X05002Y02876*
X04999Y02874*
X04995Y02872*
X0499Y02871*
X04985Y0287*
X04981Y0287*
X04976Y0287*
X04971Y02871*
X04967Y02872*
X04962Y02874*
X04958Y02876*
X04954Y02879*
X04953Y0288*
X04952Y02881*
X04951Y02881*
X0495Y02882*
X04949Y02883*
X04949Y02884*
X04948Y02885*
X04947Y02886*
X04947Y02886*
X04947Y02887*
X04947Y02887*
X04947Y02887*
X04947Y02887*
X04948Y02888*
X04948Y02888*
X04949Y02889*
X0495Y02889*
X04951Y0289*
X04952Y0289*
X04953Y02891*
X04958Y02895*
X04962Y02892*
X04966Y02888*
X04971Y02886*
X04977Y02884*
X04982Y02884*
X04987Y02885*
X04992Y02887*
X04997Y02889*
X05001Y02893*
X05004Y02897*
X05007Y02902*
X05007Y02904*
X05007Y02906*
X05007Y02908*
X05008Y0291*
X05007Y02911*
X05007Y02913*
X05007Y02915*
X05006Y02917*
X05006Y02919*
X05005Y0292*
X05002Y02925*
X04999Y02928*
X04994Y02931*
X0499Y02933*
X04985Y02934*
X0498Y02935*
X04975Y02934*
X0497Y02933*
X04965Y0293*
X04961Y02927*
X04959Y02924*
X04957Y02926*
X04957Y02926*
X04956Y02926*
X04956Y02926*
X04955Y02927*
X04955Y02927*
X04954Y02928*
X04953Y02928*
X04953Y02929*
X04952Y02929*
X04951Y0293*
X04947Y02933*
X04951Y02937*
X04953Y02939*
X04955Y0294*
X04957Y02941*
X04958Y02943*
X0496Y02944*
X04962Y02945*
X04964Y02946*
X04966Y02946*
X04968Y02947*
X0497Y02948*
X04972Y02948*
X04974Y02948*
X04975Y02948*
X04977Y02949*
X04979Y02949*
X04981Y02949*
X04983Y02949*
G37*
G36*
X05396Y02982D02*
X05398Y02982D01*
X054Y02981*
X05402Y02981*
X05403Y02981*
X05405Y02981*
X05425Y02974*
X05441Y02962*
X05451Y02946*
X05457Y02927*
X05458Y02907*
X05454Y02888*
X05446Y02871*
X05433Y02857*
X05416Y02847*
X05395Y02844*
X05393Y02844*
X05392Y02844*
X05391Y02844*
X0539Y02844*
X0539Y02845*
X05389Y02846*
X05389Y02847*
X05389Y02849*
X05389Y02852*
X05389Y02855*
Y02865*
X05396Y02865*
X05402Y02865*
X05408Y02867*
X05413Y02869*
X05419Y02872*
X05423Y02876*
X05428Y0288*
X05432Y02884*
X05435Y0289*
X05437Y02895*
X05439Y02901*
X05439Y02903*
X05402*
Y02913*
Y02923*
X05439*
X05439Y02925*
X05437Y02931*
X05435Y02936*
X05432Y02941*
X05428Y02946*
X05423Y0295*
X05419Y02954*
X05413Y02957*
X05408Y02959*
X05402Y0296*
X05396Y02961*
X05389Y02961*
Y02971*
Y02973*
X05389Y02975*
X05389Y02977*
X05389Y02978*
X05389Y02979*
X05389Y0298*
X05389Y02981*
X0539Y02981*
X0539Y02981*
X0539Y02981*
X05391Y02982*
X05392Y02982*
X05393Y02982*
X05395*
X05396Y02982*
G37*
G36*
X04985Y02978D02*
X04988Y02978D01*
X04991Y02978*
X04994Y02978*
X04998Y02977*
X05002Y02975*
X05006Y02974*
X05011Y02972*
X05015Y02971*
X05018Y02969*
X05022Y02966*
X05026Y02964*
X05029Y02961*
X05032Y02958*
X05036Y02955*
X05038Y02952*
X05041Y02948*
X05043Y02945*
X05046Y02942*
X05047Y02938*
X05049Y02934*
X0505Y02931*
X05052Y02927*
X05053Y02923*
X05053Y02922*
X05053Y02921*
X05053Y02921*
X05053Y0292*
X05053Y02919*
X05053Y02919*
X05054Y02918*
X05054Y02918*
X05054Y02918*
X05054Y02917*
X05054Y02917*
X05054Y02917*
X05055Y02917*
X05056Y02917*
X05057Y02917*
X05059Y02917*
X0506Y02917*
X05063Y02917*
X05065Y02917*
X05069Y02917*
X05083*
Y0294*
Y02963*
X05047*
X05042Y0297*
X05036Y02977*
X05098*
Y0291*
Y02899*
X05098Y02889*
X05098Y02879*
X05098Y0287*
X05098Y02863*
X05098Y02856*
X05098Y02851*
X05098Y02847*
X05098Y02844*
X05098Y02843*
X05097Y02844*
X05097Y02844*
X05097Y02844*
X05096Y02844*
X05095Y02845*
X05094Y02845*
X05093Y02846*
X05092Y02847*
X05091Y02847*
X0509Y02848*
X05083Y02852*
X05083Y02877*
X05083Y02902*
X05069Y02902*
X05054Y02902*
X05053Y02898*
X05051Y02889*
X05048Y02882*
X05044Y02874*
X05039Y02868*
X05033Y02861*
X05027Y02856*
X0502Y02851*
X05012Y02847*
X05003Y02844*
X04994Y02841*
X04992Y02841*
X0499Y02841*
X04987Y02841*
X04984Y02841*
X04981Y0284*
X04978*
X04976Y02841*
X04973Y02841*
X0497Y02841*
X04968Y02841*
X04964Y02842*
X0496Y02843*
X04956Y02844*
X04952Y02846*
X04948Y02848*
X04944Y0285*
X0494Y02852*
X04937Y02854*
X04933Y02857*
X0493Y02859*
X04929Y02861*
X04927Y02862*
X04926Y02863*
X04925Y02865*
X04924Y02866*
X04923Y02867*
X04922Y02868*
X04921Y02869*
X04921Y0287*
X04921Y0287*
X04921Y0287*
X04921Y0287*
X04922Y02871*
X04922Y02871*
X04923Y02871*
X04924Y02872*
X04925Y02872*
X04925Y02873*
X04926Y02874*
X04927Y02874*
X04933Y02878*
X04934Y02876*
X04938Y02872*
X04942Y02868*
X04946Y02865*
X0495Y02862*
X04955Y0286*
X0496Y02858*
X04965Y02856*
X0497Y02855*
X04975Y02855*
X04981Y02854*
X04984Y02855*
X04988Y02855*
X04991Y02855*
X04994Y02856*
X04997Y02856*
X05Y02857*
X05003Y02858*
X05006Y0286*
X05009Y02861*
X05011Y02863*
X0502Y02869*
X05027Y02876*
X05033Y02884*
X05037Y02893*
X05039Y02902*
X05039Y02912*
X05038Y02921*
X05035Y0293*
X0503Y02939*
X05023Y02947*
X05019Y0295*
X05016Y02954*
X05011Y02956*
X05007Y02958*
X05003Y0296*
X04998Y02962*
X04994Y02963*
X04989Y02964*
X04984Y02964*
X04979*
X04973Y02964*
X04969Y02963*
X04964Y02962*
X04959Y02961*
X04955Y02959*
X04951Y02957*
X04946Y02954*
X04943Y02951*
X04939Y02948*
X04936Y02944*
X04933Y02942*
X04928Y02946*
X04927Y02946*
X04926Y02947*
X04925Y02947*
X04924Y02948*
X04924Y02949*
X04923Y02949*
X04923Y02949*
X04922Y0295*
X04922Y0295*
X04922Y0295*
X04922Y0295*
X04922Y02951*
X04923Y02951*
X04923Y02952*
X04924Y02953*
X04925Y02954*
X04926Y02955*
X04927Y02956*
X04928Y02958*
X04929Y02959*
X04932Y02961*
X04935Y02964*
X04938Y02966*
X04942Y02968*
X04945Y0297*
X04948Y02971*
X04952Y02973*
X04956Y02974*
X0496Y02975*
X04963Y02977*
X04966Y02977*
X04969Y02977*
X04972Y02978*
X04975Y02978*
X04978Y02978*
X04982Y02978*
X04985Y02978*
G37*
G36*
X05565Y02928D02*
X05566Y02909D01*
X05563Y0289*
X05555Y02872*
X05543Y02858*
X05526Y02848*
X05505Y02844*
X05498Y02844*
X05498Y02855*
X05497Y02865*
X05502Y02865*
X05509Y02865*
X05516Y02867*
X05523Y02869*
X05529Y02873*
X05534Y02878*
X05539Y02884*
X05543Y0289*
X05546Y02897*
X05548Y02905*
X05548Y02913*
X05548Y02921*
X05546Y02928*
X05543Y02936*
X05539Y02942*
X05534Y02948*
X05529Y02953*
X05522Y02956*
X05516Y02959*
X05509Y02961*
X05501Y02961*
X05497Y02961*
X05498Y02971*
X05498Y02981*
X05503Y02982*
X05504Y02982*
X05505Y02982*
X05506Y02982*
X05507Y02982*
X05508Y02981*
X05509Y02981*
X0551Y02981*
X05511Y02981*
X05511Y02981*
X05512Y02981*
X05532Y02975*
X05548Y02963*
X05559Y02947*
X05565Y02928*
G37*
G36*
X06012Y0285D02*
X06012Y02849D01*
X06011Y02848*
X06008Y02848*
X06003Y02848*
X05996Y02848*
X05987Y02848*
X05976Y02848*
X05963Y02848*
X05949Y02848*
X05932Y02848*
X05914Y02848*
X05898Y02848*
X05883Y02848*
X05869Y02848*
X05856Y02848*
X05844Y02848*
X05835Y02848*
X05827Y02848*
X05821Y02848*
X05817Y02848*
X05816Y02848*
X05817Y0285*
X0582Y02855*
X05824Y02862*
X0583Y02871*
X05836Y02881*
X05842Y02891*
X05848Y02901*
X05853Y02909*
X05857Y02915*
X0586Y02919*
X05861Y02922*
X05876Y02907*
X05879Y02905*
X05881Y02903*
X05884Y029*
X05886Y02898*
X05889Y02896*
X05891Y02894*
X05893Y02892*
X05895Y02891*
X05897Y0289*
X05898Y02889*
X059Y02887*
X05902Y02886*
X05904Y02884*
X05906Y02883*
X05907Y02882*
X05909Y02881*
X0591Y02879*
X05912Y02878*
X05914Y02876*
X05916Y02874*
X0592Y02869*
X05923Y02871*
X05924Y02872*
X05925Y02873*
X05926Y02873*
X05928Y02873*
X05929Y02873*
X0593Y02873*
X05931Y02872*
X05933Y02871*
X05934Y02869*
X05935Y02868*
X05937Y02864*
X05937Y02869*
X05937Y02871*
X05937Y02873*
X05937Y02875*
X05936Y02877*
X05935Y02878*
X05934Y0288*
X05933Y02882*
X05931Y02884*
X05929Y02886*
X05927Y02888*
X05925Y02891*
X05923Y02892*
X05922Y02894*
X05921Y02895*
X05921Y02896*
X05922Y02897*
X05923Y02898*
X05924Y029*
X05927Y02901*
X05929Y02903*
X05932Y02904*
X05935Y02906*
X05937Y02906*
X05938Y02907*
X05939Y02907*
X05941Y02907*
X05942Y02906*
X05943Y02905*
X05944Y02904*
X05945Y02902*
X05947Y029*
X05948Y02898*
X05949Y02895*
X0595Y02892*
X0595Y02889*
X0595Y02886*
X0595Y02883*
X05949Y0288*
X05948Y02878*
X05947Y02876*
X05946Y02875*
X05946Y02873*
X05945Y02872*
X05945Y0287*
X05945Y02869*
X05945Y02867*
X05945Y02866*
X05945Y02864*
X05946Y02862*
X05947Y02861*
X05947Y0286*
X05948Y02859*
X05948Y02858*
X05949Y02858*
X05949Y02858*
X0595Y02859*
X0595Y02859*
X0595Y0286*
X05951Y02862*
X05952Y02864*
X05952Y02865*
X05953Y02867*
X05953Y02868*
X05954Y02869*
X05955Y0287*
X05955Y02871*
X05956Y02871*
X05957Y02871*
X05958Y02871*
X05958Y02871*
X05959Y02871*
X0596Y02871*
X0596Y02871*
X05961Y02872*
X05962Y02874*
X05962Y02875*
X05963Y02877*
X05964Y02879*
X05964Y02882*
X05965Y02884*
X05966Y02888*
X05967Y02891*
X05967Y02893*
X05967Y02895*
X05967Y02897*
X05966Y02899*
X05965Y02901*
X05963Y02904*
X05961Y02907*
X05959Y0291*
X05954Y02917*
X05951Y02923*
X05947Y02927*
X05944Y0293*
X05941Y02933*
X05938Y02935*
X05935Y02936*
X0593Y02937*
X05925Y02938*
X05919Y02939*
X05913Y0294*
X05907Y02941*
X05901Y02942*
X05896Y02943*
X05891Y02944*
X05887Y02946*
X05884Y02947*
X05881Y02948*
X0588Y0295*
X0588Y02951*
X05881Y02953*
X05884Y02957*
X05887Y02963*
X05892Y02971*
X05897Y02979*
X05902Y02987*
X05907Y02994*
X0591Y03*
X05913Y03004*
X05914Y03005*
X05915Y03004*
X05917Y03001*
X0592Y02996*
X05924Y0299*
X05929Y02982*
X05935Y02973*
X05941Y02963*
X05948Y02952*
X05955Y0294*
X05963Y02927*
X05971Y02915*
X05979Y02903*
X05986Y02892*
X05992Y02881*
X05998Y02872*
X06003Y02864*
X06007Y02858*
X0601Y02853*
X05946Y02883*
X05946Y02886*
X05946Y02889*
X05945Y02892*
X05945Y02895*
X05944Y02898*
X05943Y02899*
X05942Y02901*
X05941Y02902*
X0594Y02902*
X05939Y02903*
X05939Y02903*
X05938Y02903*
X05939Y02902*
X05939Y02901*
X05939Y029*
X0594Y02898*
X05941Y02897*
X05941Y02896*
X05942Y02895*
X05942Y02894*
X05942Y02894*
X05942Y02893*
X05942Y02892*
X05942Y02891*
X05941Y02889*
X05941Y02888*
X0594Y02886*
X0594Y02884*
X05939Y02882*
X0594Y02881*
X0594Y02879*
X0594Y02878*
X05941Y02877*
X05942Y02876*
X05942Y02876*
X05944Y02876*
X05945Y02876*
X05945Y02878*
X05946Y0288*
X05935Y0286*
X05935Y02861*
X05935Y02862*
X05935Y02863*
X05934Y02864*
X05934Y02865*
X05933Y02867*
X05932Y02868*
X05931Y02869*
X0593Y0287*
X05929Y0287*
X05928Y02871*
X05928Y02871*
X05927Y02871*
X05927Y02871*
X05926Y02871*
X05925Y0287*
X05925Y0287*
X05924Y02868*
X05923Y02867*
X05924Y02865*
X05924Y02863*
X05925Y02862*
X05927Y0286*
X05928Y02859*
X0593Y02858*
X05932Y02858*
X05933Y02858*
X05934Y02859*
X05934Y02859*
X05938Y02889*
X05939Y0289*
X05939Y02892*
X05938Y02894*
X05938Y02895*
X05937Y02897*
X05937Y02898*
X05936Y02899*
X05936Y029*
X05935Y029*
X05934Y029*
X05934Y02901*
X05933Y02901*
X05933Y02901*
X05933Y02901*
X05933Y029*
X05933Y029*
X05933Y029*
X05933Y029*
X05933Y02899*
X05933Y02899*
X05933Y02899*
X05933Y02899*
X05934Y02898*
X05934Y02898*
X05934Y02898*
X05934Y02897*
X05935Y02897*
X05935Y02897*
X05935Y02896*
X05935Y02896*
X05936Y02895*
X05936Y02895*
X05936Y02894*
X05935Y02893*
X05935Y02893*
X05935Y02892*
X05935Y02891*
X05935Y0289*
X05934Y02889*
X05934Y02888*
X05935Y02887*
X05935Y02886*
X05935Y02886*
X05935Y02885*
X05936Y02885*
X05936Y02885*
X05937Y02885*
X05938Y02886*
X05938Y02887*
X05959Y02867*
X0596Y02868*
X05959Y02868*
X05959Y02869*
X05959Y02869*
X05958*
X05957Y02869*
X05957Y02868*
X05956Y02868*
X05955Y02867*
X05955Y02866*
X05954Y02865*
X05953Y02864*
X05953Y02863*
X05953Y02862*
X05952Y02861*
X05952Y0286*
X05952Y0286*
X05952Y02859*
X05953Y02859*
X05953Y02859*
X05953Y02859*
X05954Y02859*
X05955Y0286*
X05955Y0286*
X05956Y02861*
X05957Y02862*
X05958Y02864*
X05959Y02865*
X05959Y02866*
X05932Y02892*
X05932Y02893*
X05932Y02894*
X05932Y02895*
X05932Y02896*
X05932Y02896*
X05931Y02897*
X05931Y02898*
X05931Y02898*
X0593Y02899*
X0593Y02898*
X0593Y02898*
X0593Y02898*
X0593Y02898*
X0593Y02897*
X05929Y02897*
X05929Y02896*
X05929Y02895*
X05929Y02895*
X05929Y02894*
Y02893*
X05929Y02892*
X05929Y02891*
X0593Y0289*
X0593Y0289*
X0593Y02889*
X05931Y02889*
X05931Y0289*
X05932Y0289*
X05932Y02891*
X05932Y02892*
X06012Y0285*
G37*
G36*
X06338Y03013D02*
X06338Y03012D01*
X06338Y03012*
X06338Y03011*
X06338Y03011*
X06338Y0301*
X06339Y03007*
X0634Y03004*
X06341Y03001*
X06344Y02997*
X06347Y02994*
X06351Y0299*
X06355Y02987*
X0636Y02983*
X06366Y02978*
X06373Y02974*
X0638Y0297*
X06386Y02965*
X06392Y02961*
X06398Y02956*
X06403Y02952*
X06407Y02947*
X06411Y02943*
X06415Y02938*
X06418Y02933*
X06421Y02928*
X06423Y02924*
X06425Y0292*
X06427Y02916*
X06428Y02913*
X06429Y02909*
X0643Y02905*
X06431Y02901*
X06431Y02897*
X06431Y02892*
X06431Y02888*
X06431Y02883*
X0643Y02878*
X06429Y02873*
X06428Y02869*
X06426Y02865*
X06424Y02861*
X06421Y02858*
X06418Y02854*
X06415Y02851*
X06411Y02848*
X06409Y02846*
X06406Y02844*
X06402Y02843*
X06399Y02841*
X06396Y0284*
X06392Y02839*
X06388Y02838*
X06385Y02837*
X06381Y02836*
X06377Y02836*
X06371Y02836*
X06374Y02837*
X06375Y02838*
X06377Y0284*
X06379Y02841*
X06381Y02843*
X06383Y02845*
X06386Y02847*
X06388Y02848*
X06389Y0285*
X06391Y02851*
X06392Y02853*
X06394Y02856*
X06397Y02859*
X06399Y02862*
X06401Y02866*
X06402Y02869*
X06403Y02873*
X06404Y02877*
X06404Y0288*
X06404Y02884*
X06404Y02888*
X06404Y02889*
X06404Y02889*
X06404Y0289*
X06404Y02891*
X06404Y02891*
X06404Y02891*
X06404Y02892*
X06403Y02892*
X06403Y02891*
X06403Y02891*
X06402Y0289*
X06401Y02888*
X064Y02887*
X06398Y02885*
X06397Y02884*
X06395Y02883*
X06393Y02881*
X06391Y0288*
X06389Y0288*
X06388Y02879*
X06387Y02879*
X06387Y02879*
X06386Y02879*
X06386Y02879*
X06386Y02879*
X06385Y0288*
X06385Y0288*
X06385Y02881*
X06384Y02881*
X06383Y02882*
X06383Y02883*
X06382Y02884*
X06381Y02886*
X06381Y02887*
X0638Y02888*
X0638Y0289*
X0638Y02891*
X0638Y02893*
X0638Y02894*
X0638Y02896*
X06381Y02897*
X06381Y02899*
X06382Y029*
X06383Y02902*
X06384Y02904*
X06385Y02905*
X06386Y02907*
X06387Y02908*
X06388Y0291*
X0639Y02911*
X0639Y02912*
X06391Y02912*
X06391Y02913*
X06391Y02913*
X06392Y02914*
X06392Y02914*
X06392Y02915*
X06392Y02915*
X06392Y02915*
X06392Y02915*
X06392Y02915*
X06391Y02915*
X0639Y02915*
X06388Y02914*
X06386Y02914*
X06384Y02913*
X06382Y02912*
X0638Y02912*
X06379Y02911*
X06377Y0291*
X06375Y02909*
X06374Y02908*
X06372Y02907*
X0637Y02905*
X06368Y02904*
X06366Y02902*
X06364Y02901*
X06362Y02899*
X0636Y02898*
X06359Y02897*
X06359Y02896*
X06358Y02895*
X06358Y02895*
X06357Y02895*
X06357Y02895*
X06357Y02896*
X06356Y02896*
X06356Y02897*
X06355Y02898*
X06354Y029*
X06354Y02902*
X06353Y02905*
X06353Y02908*
X06353Y02911*
X06354Y02914*
X06355Y02917*
X06356Y0292*
X06358Y02923*
X0636Y02925*
X06362Y02928*
X06364Y0293*
X06361Y02928*
X06359Y02926*
X06356Y02925*
X06353Y02922*
X0635Y0292*
X06347Y02918*
X06344Y02916*
X06341Y02913*
X06338Y02911*
X06336Y02909*
X06334Y02906*
X06333Y02905*
X06331Y02903*
X0633Y02901*
X06329Y029*
X06328Y02898*
X06327Y02896*
X06325Y02894*
X06325Y02892*
X06324Y0289*
X06323Y02889*
X06323Y02887*
X06322Y02885*
X06322Y02883*
X06321Y02881*
X06321Y02878*
X06321Y02876*
X06321Y02874*
X06322Y02872*
X06322Y0287*
X06322Y02868*
X06323Y02865*
X06324Y02863*
X06326Y0286*
X06327Y02858*
X06329Y02855*
X06331Y02852*
X06334Y0285*
X06336Y02847*
X06339Y02844*
X06342Y02842*
X06343Y02841*
X06344Y0284*
X06345Y02839*
X06346Y02839*
X06346Y02838*
X06347Y02837*
X06348Y02837*
X06348Y02836*
X06348Y02836*
X06348Y02836*
X06348Y02836*
X06348Y02836*
X06347Y02836*
X06346Y02836*
X06344Y02836*
X06343Y02837*
X06342Y02837*
X0634Y02837*
X06339Y02838*
X06337Y02838*
X06336Y02838*
X06334Y02839*
X06332Y0284*
X0633Y0284*
X06329Y02841*
X06327Y02842*
X06326Y02843*
X06324Y02843*
X06322Y02844*
X0632Y02846*
X06317Y02848*
X06314Y0285*
X06312Y02852*
X06309Y02855*
X06307Y02858*
X06304Y02861*
X06302Y02864*
X063Y02868*
X06298Y02872*
X06297Y02876*
X06296Y02877*
X06295Y02879*
X06295Y0288*
X06295Y02882*
X06294Y02883*
X06294Y02884*
X06294Y02886*
X06294Y02887*
X06294Y0289*
X06294Y02892*
X06294Y02894*
X06294Y02896*
X06294Y02898*
X06294Y029*
X06294Y02901*
X06294Y02902*
X06294Y02904*
X06294Y02905*
X06295Y02906*
X06295Y02908*
X06296Y0291*
X06297Y02913*
X06298Y02916*
X063Y02918*
X06301Y02921*
X06303Y02924*
X06304Y02926*
X06306Y02929*
X06308Y02931*
X0631Y02933*
X0631Y02933*
X06311Y02934*
X06312Y02935*
X06312Y02935*
X06313Y02936*
X06313Y02936*
X06314Y02937*
X06314Y02937*
X06314Y02937*
X06314Y02937*
X06315Y02937*
X06315Y02937*
X06315Y02937*
X06315Y02936*
X06315Y02936*
X06315Y02935*
X06315Y02934*
X06316Y02932*
X06316Y02931*
X06316Y02929*
X06316Y02927*
X06316Y02925*
X06316Y02923*
X06317Y02921*
X06317Y02919*
X06318Y02917*
X06318Y02916*
X06319Y02915*
X0632Y02914*
X0632Y02913*
X06322Y02911*
X06324Y02915*
X06326Y02919*
X06327Y02922*
X06328Y02925*
X06329Y02929*
X06329Y02932*
X06329Y02936*
X06329Y02939*
X06328Y02943*
X06327Y02947*
X06326Y0295*
X06325Y02951*
X06325Y02953*
X06324Y02955*
X06323Y02957*
X06322Y02958*
X06321Y0296*
X0632Y02962*
X06319Y02963*
X06318Y02965*
X06317Y02966*
X06317Y02966*
X06316Y02967*
X06316Y02967*
X06316Y02967*
X06316Y02967*
X06316Y02967*
X06316Y02967*
X06316Y02968*
X06316Y02968*
X06317Y02968*
X06317Y02967*
X06317Y02967*
X06318Y02967*
X06319Y02967*
X0632Y02967*
X06321Y02966*
X06321Y02966*
X06323Y02966*
X06324Y02965*
X06325Y02965*
X06327Y02964*
X06329Y02962*
X06331Y02961*
X06333Y0296*
X06335Y02959*
X06337Y02957*
X06339Y02956*
X0634Y02954*
X06342Y02953*
X06343Y02951*
X06346Y02948*
X06347Y02949*
X06347Y02951*
X06348Y02952*
X06348Y02953*
X06349Y02955*
X06349Y02956*
X06349Y02958*
X0635Y0296*
X0635Y02961*
X0635Y02963*
X0635Y02964*
X0635Y02966*
X0635Y02968*
X06349Y0297*
X06349Y02972*
X06348Y02974*
X06347Y02976*
X06346Y02978*
X06345Y0298*
X06344Y02982*
X06342Y02984*
X0634Y02987*
X06338Y0299*
X06336Y02992*
X06335Y02995*
X06334Y02998*
X06334Y03*
X06334Y03003*
X06334Y03006*
X06335Y03008*
X06336Y03011*
X06337Y03012*
X06337Y03012*
X06337Y03013*
X06337Y03013*
X06338Y03013*
G37*
G36*
X06344Y02899D02*
X06343Y02899D01*
X06343Y02897*
X06342Y02895*
X06342Y02893*
X06341Y02892*
X06341Y02891*
X06341Y0289*
X0634Y02888*
X0634Y02887*
X0634Y02885*
X0634Y02883*
X0634Y02882*
X0634Y0288*
X0634Y02879*
X06341Y02878*
X06341Y02877*
X06341Y02876*
X06341Y02875*
X06341Y02874*
X06341Y02873*
X06342Y02872*
X06343Y02869*
X06345Y02871*
X06346Y02873*
X06348Y02875*
X06349Y02877*
X06351Y02878*
X06353Y0288*
X06356Y02881*
X06358Y02883*
X0636Y02884*
X06362Y02884*
X06365Y02885*
X06365Y02885*
X06366Y02885*
X06366Y02885*
X06366Y02885*
X06366Y02885*
X06366Y02884*
X06366Y02884*
X06366Y02883*
X06365Y02882*
X06365Y0288*
X06364Y0288*
X06364Y02879*
X06363Y02878*
X06363Y02877*
X06363Y02876*
X06363Y02875*
X06363Y02874*
X06362Y02873*
X06362Y02871*
X06362Y0287*
X06362Y02867*
X06363Y02865*
X06363Y02863*
X06363Y02862*
X06363Y02861*
X06363Y0286*
X06364Y0286*
X06365Y02859*
X06365Y02859*
X06366Y02859*
X06368Y02859*
X06369Y0286*
X06371Y0286*
X06372Y0286*
X06374Y02861*
X06375Y02862*
X06376Y02863*
X06378Y02864*
X06379Y02866*
X0638Y02867*
X0638Y02867*
X06381Y02868*
X06381Y02868*
X06381Y02868*
X06382Y02869*
X06382Y02869*
X06382Y02869*
X06382Y02869*
X06383*
X06383Y02869*
X06383Y02868*
X06383Y02868*
X06384Y02866*
X06384Y02865*
X06384Y02864*
X06384Y02862*
X06384Y0286*
X06384Y02859*
X06383Y02857*
X06383Y02856*
X06382Y02853*
X0638Y0285*
X06378Y02847*
X06376Y02845*
X06373Y02842*
X06371Y0284*
X06368Y02839*
X06364Y02837*
X06361Y02836*
X06358Y02836*
X06357Y02836*
X06356Y02836*
X06355*
X06354Y02836*
X06354Y02836*
X06353Y02836*
X06352Y02837*
X06351Y02837*
X0635Y02838*
X06349Y02839*
X06346Y0284*
X06344Y02842*
X06342Y02844*
X0634Y02846*
X06338Y02848*
X06337Y02849*
X06335Y02851*
X06334Y02853*
X06333Y02855*
X06332Y02858*
X06331Y02859*
X06331Y02859*
X06331Y0286*
X0633Y02861*
X0633Y02862*
X0633Y02863*
X0633Y02864*
X0633Y02866*
X0633Y02867*
X0633Y02869*
X0633Y02871*
X0633Y02873*
X0633Y02875*
X0633Y02877*
X06331Y02879*
X06331Y02881*
X06332Y02883*
X06333Y02885*
X06334Y02887*
X06336Y02889*
X06337Y02891*
X06338Y02893*
X06339Y02894*
X0634Y02896*
X06341Y02897*
X06342Y02898*
X06343Y02899*
X06343Y02899*
X06344Y02899*
G37*
G54D10*
X05619Y02908D02*
D01*
X05618Y02918*
X05617Y02929*
X05615Y0294*
X05612Y0295*
X05609Y02961*
X05605Y02971*
X056Y0298*
X05595Y0299*
X05589Y02999*
X05582Y03007*
X05575Y03015*
X05567Y03023*
X05559Y0303*
X0555Y03036*
X05541Y03042*
X05531Y03047*
X05522Y03051*
X05511Y03055*
X05501Y03058*
X0549Y0306*
X0548Y03062*
X05469Y03062*
X05458*
X05447Y03062*
X05437Y0306*
X05426Y03058*
X05416Y03055*
X05405Y03051*
X05396Y03047*
X05386Y03042*
X05377Y03036*
X05368Y0303*
X0536Y03023*
X05352Y03015*
X05345Y03007*
X05338Y02999*
X05332Y0299*
X05327Y0298*
X05322Y02971*
X05318Y02961*
X05315Y0295*
X05312Y0294*
X0531Y02929*
X05309Y02918*
X05309Y02908*
X05309Y02897*
X0531Y02886*
X05312Y02875*
X05315Y02865*
X05318Y02854*
X05322Y02844*
X05327Y02835*
X05332Y02825*
X05338Y02816*
X05345Y02808*
X05352Y028*
X0536Y02792*
X05368Y02785*
X05377Y02779*
X05386Y02773*
X05396Y02768*
X05405Y02764*
X05416Y0276*
X05426Y02757*
X05437Y02755*
X05447Y02753*
X05458Y02753*
X05469*
X0548Y02753*
X0549Y02755*
X05501Y02757*
X05511Y0276*
X05522Y02764*
X05531Y02768*
X05541Y02773*
X0555Y02779*
X05559Y02785*
X05567Y02792*
X05575Y028*
X05582Y02808*
X05589Y02816*
X05595Y02825*
X056Y02835*
X05605Y02844*
X05609Y02854*
X05612Y02865*
X05615Y02875*
X05617Y02886*
X05618Y02897*
X05619Y02908*
X05168Y02912D02*
D01*
X05168Y02923*
X05167Y02934*
X05165Y02944*
X05162Y02955*
X05159Y02965*
X05155Y02975*
X0515Y02985*
X05145Y02994*
X05139Y03003*
X05132Y03012*
X05125Y0302*
X05117Y03027*
X05109Y03034*
X051Y03041*
X05091Y03046*
X05081Y03051*
X05071Y03056*
X05061Y0306*
X05051Y03063*
X0504Y03065*
X0503Y03066*
X05019Y03067*
X05008*
X04997Y03066*
X04987Y03065*
X04976Y03063*
X04966Y0306*
X04955Y03056*
X04945Y03051*
X04936Y03046*
X04927Y03041*
X04918Y03034*
X0491Y03027*
X04902Y0302*
X04895Y03012*
X04888Y03003*
X04882Y02994*
X04877Y02985*
X04872Y02975*
X04868Y02965*
X04864Y02955*
X04862Y02944*
X0486Y02934*
X04859Y02923*
X04858Y02912*
X04859Y02901*
X0486Y02891*
X04862Y0288*
X04864Y02869*
X04868Y02859*
X04872Y02849*
X04877Y02839*
X04882Y0283*
X04888Y02821*
X04895Y02813*
X04902Y02805*
X0491Y02797*
X04918Y0279*
X04927Y02784*
X04936Y02778*
X04945Y02773*
X04955Y02768*
X04966Y02765*
X04976Y02762*
X04987Y0276*
X04997Y02758*
X05008Y02757*
X05019*
X0503Y02758*
X0504Y0276*
X05051Y02762*
X05061Y02765*
X05071Y02768*
X05081Y02773*
X05091Y02778*
X051Y02784*
X05109Y0279*
X05117Y02797*
X05125Y02805*
X05132Y02813*
X05139Y02821*
X05145Y0283*
X0515Y02839*
X05155Y02849*
X05159Y02859*
X05162Y02869*
X05165Y0288*
X05167Y02891*
X05168Y02901*
X05168Y02912*
X06069Y02908D02*
D01*
X06068Y02918*
X06067Y02929*
X06065Y0294*
X06062Y0295*
X06059Y02961*
X06055Y02971*
X0605Y0298*
X06045Y0299*
X06039Y02999*
X06032Y03007*
X06025Y03015*
X06017Y03023*
X06009Y0303*
X06Y03036*
X05991Y03042*
X05981Y03047*
X05972Y03051*
X05961Y03055*
X05951Y03058*
X0594Y0306*
X0593Y03062*
X05919Y03062*
X05908*
X05897Y03062*
X05887Y0306*
X05876Y03058*
X05866Y03055*
X05855Y03051*
X05846Y03047*
X05836Y03042*
X05827Y03036*
X05818Y0303*
X0581Y03023*
X05802Y03015*
X05795Y03007*
X05788Y02999*
X05782Y0299*
X05777Y0298*
X05772Y02971*
X05768Y02961*
X05765Y0295*
X05762Y0294*
X0576Y02929*
X05759Y02918*
X05759Y02908*
X05759Y02897*
X0576Y02886*
X05762Y02875*
X05765Y02865*
X05768Y02854*
X05772Y02844*
X05777Y02835*
X05782Y02825*
X05788Y02816*
X05795Y02808*
X05802Y028*
X0581Y02792*
X05818Y02785*
X05827Y02779*
X05836Y02773*
X05846Y02768*
X05855Y02764*
X05866Y0276*
X05876Y02757*
X05887Y02755*
X05897Y02753*
X05908Y02753*
X05919*
X0593Y02753*
X0594Y02755*
X05951Y02757*
X05961Y0276*
X05972Y02764*
X05981Y02768*
X05991Y02773*
X06Y02779*
X06009Y02785*
X06017Y02792*
X06025Y028*
X06032Y02808*
X06039Y02816*
X06045Y02825*
X0605Y02835*
X06055Y02844*
X06059Y02854*
X06062Y02865*
X06065Y02875*
X06067Y02886*
X06068Y02897*
X06069Y02908*
X06514Y02913D02*
D01*
X06513Y02923*
X06512Y02934*
X0651Y02945*
X06507Y02955*
X06504Y02966*
X065Y02976*
X06495Y02985*
X0649Y02995*
X06484Y03004*
X06477Y03012*
X0647Y0302*
X06462Y03028*
X06454Y03035*
X06445Y03041*
X06436Y03047*
X06426Y03052*
X06417Y03056*
X06406Y0306*
X06396Y03063*
X06385Y03065*
X06375Y03067*
X06364Y03067*
X06353*
X06342Y03067*
X06332Y03065*
X06321Y03063*
X06311Y0306*
X063Y03056*
X06291Y03052*
X06281Y03047*
X06272Y03041*
X06263Y03035*
X06255Y03028*
X06247Y0302*
X0624Y03012*
X06233Y03004*
X06227Y02995*
X06222Y02985*
X06217Y02976*
X06213Y02966*
X0621Y02955*
X06207Y02945*
X06205Y02934*
X06204Y02923*
X06204Y02913*
X06204Y02902*
X06205Y02891*
X06207Y0288*
X0621Y0287*
X06213Y02859*
X06217Y02849*
X06222Y0284*
X06227Y0283*
X06233Y02821*
X0624Y02813*
X06247Y02805*
X06255Y02797*
X06263Y0279*
X06272Y02784*
X06281Y02778*
X06291Y02773*
X063Y02769*
X06311Y02765*
X06321Y02762*
X06332Y0276*
X06342Y02758*
X06353Y02758*
X06364*
X06375Y02758*
X06385Y0276*
X06396Y02762*
X06406Y02765*
X06417Y02769*
X06426Y02773*
X06436Y02778*
X06445Y02784*
X06454Y0279*
X06462Y02797*
X0647Y02805*
X06477Y02813*
X06484Y02821*
X0649Y0283*
X06495Y0284*
X065Y02849*
X06504Y02859*
X06507Y0287*
X0651Y0288*
X06512Y02891*
X06513Y02902*
X06514Y02913*
X06959D02*
D01*
X06958Y02923*
X06957Y02934*
X06955Y02945*
X06952Y02955*
X06949Y02966*
X06945Y02976*
X0694Y02985*
X06935Y02995*
X06929Y03004*
X06922Y03012*
X06915Y0302*
X06907Y03028*
X06899Y03035*
X0689Y03041*
X06881Y03047*
X06871Y03052*
X06862Y03056*
X06851Y0306*
X06841Y03063*
X0683Y03065*
X0682Y03067*
X06809Y03067*
X06798*
X06787Y03067*
X06777Y03065*
X06766Y03063*
X06756Y0306*
X06745Y03056*
X06736Y03052*
X06726Y03047*
X06717Y03041*
X06708Y03035*
X067Y03028*
X06692Y0302*
X06685Y03012*
X06678Y03004*
X06672Y02995*
X06667Y02985*
X06662Y02976*
X06658Y02966*
X06655Y02955*
X06652Y02945*
X0665Y02934*
X06649Y02923*
X06649Y02913*
X06649Y02902*
X0665Y02891*
X06652Y0288*
X06655Y0287*
X06658Y02859*
X06662Y02849*
X06667Y0284*
X06672Y0283*
X06678Y02821*
X06685Y02813*
X06692Y02805*
X067Y02797*
X06708Y0279*
X06717Y02784*
X06726Y02778*
X06736Y02773*
X06745Y02769*
X06756Y02765*
X06766Y02762*
X06777Y0276*
X06787Y02758*
X06798Y02758*
X06809*
X0682Y02758*
X0683Y0276*
X06841Y02762*
X06851Y02765*
X06862Y02769*
X06871Y02773*
X06881Y02778*
X0689Y02784*
X06899Y0279*
X06907Y02797*
X06915Y02805*
X06922Y02813*
X06929Y02821*
X06935Y0283*
X0694Y0284*
X06945Y02849*
X06949Y02859*
X06952Y0287*
X06955Y0288*
X06957Y02891*
X06958Y02902*
X06959Y02913*
X05364Y03018D02*
X05579Y02808D01*
X04903Y03012D02*
X05118Y02802D01*
G54D58*
X06916Y02888D02*
X06913Y02947D01*
X06884Y02945*
X06874Y02935*
X06875Y02916*
X06885Y02906*
X06915Y02907*
X06895Y02906D02*
X06876Y02886D01*
X06847Y02885D02*
X06827Y02884D01*
X06817Y02894*
X06816Y02914*
X06826Y02924*
X06845Y02924*
X06855Y02915*
X06856Y02895*
X06847Y02885*
X06795Y02942D02*
X06798Y02883D01*
X06796Y02913*
X06757Y02912*
X06756Y02941*
X06758Y02882*
X06739Y02881D02*
X06709Y0288D01*
X06699Y0289*
X06708Y029*
X06728Y02901*
X06737Y02911*
X06727Y0292*
X06698Y02919*
G54D59*
X06925Y02596D02*
X06932D01*
X06929*
Y0258*
X06932Y02577*
X06935*
X06939Y0258*
X06919Y02596D02*
Y02577D01*
X06905*
X06885Y02593D02*
X06889Y02596D01*
X06895*
X06899Y02593*
Y0258*
X06895Y02577*
X06889*
X06885Y0258*
X06865Y02596D02*
X06872D01*
X06869*
Y0258*
X06872Y02577*
X06875*
X06879Y0258*
X06859Y02596D02*
Y02577D01*
X06845*
X06825Y02593D02*
X06829Y02596D01*
X06835*
X06839Y02593*
Y0258*
X06835Y02577*
X06829*
X06825Y0258*
X06805Y02596D02*
X06812D01*
X06809*
Y0258*
X06812Y02577*
X06815*
X06819Y0258*
X06799Y02596D02*
Y02577D01*
X06785*
X06765Y02593D02*
X06769Y02596D01*
X06775*
X06779Y02593*
Y0258*
X06775Y02577*
X06769*
X06765Y0258*
X06745Y02596D02*
X06752D01*
X06749*
Y0258*
X06752Y02577*
X06755*
X06759Y0258*
X06739Y02596D02*
Y02577D01*
X06725*
X06705Y02593D02*
X06709Y02596D01*
X06715*
X06719Y02593*
Y0258*
X06715Y02577*
X06709*
X06705Y0258*
M02*