%FSTAX23Y23*%
%MOIN*%
%SFA1B1*%

%IPPOS*%
%ADD10C,0.010000*%
%ADD11C,0.009840*%
%ADD12C,0.011810*%
%ADD13R,0.059060X0.039370*%
%ADD14C,0.007870*%
%ADD15C,0.015750*%
%ADD16C,0.006000*%
%ADD17C,0.008000*%
%LNpcb3-g-1*%
%LPD*%
G36*
X03416Y03624D02*
X03416Y03622D01*
X03416Y03621*
X03416Y0362*
X03415Y03619*
X03415Y03618*
X03414Y03618*
X03413Y03618*
X03411Y03618*
X03409Y03617*
X03407Y03617*
X03405Y03617*
X03404Y03617*
X03402Y03617*
X03401Y03617*
X03399Y03617*
X03398Y03617*
X03396Y03617*
X03395Y03617*
X03394Y03617*
X03393Y03617*
X03392Y03617*
X03392Y03616*
X03391Y03616*
X0339Y03616*
X0339Y03616*
X03389Y03616*
X03389Y03616*
X03388Y03616*
X03388Y03616*
X03388Y03616*
X03388Y03617*
X03388Y03617*
X03388Y03617*
X03387Y03618*
X03387Y03618*
X03387Y03619*
X03387Y03619*
X03387Y0362*
X03387Y0362*
X03387Y03621*
X03387Y03622*
X03387Y03623*
X03387Y03623*
X03387Y03624*
X03387Y03624*
X03387Y03625*
X03387Y03625*
X03387Y03625*
X03388Y03625*
X03388Y03626*
X03388Y03626*
X03389Y03626*
X0339Y03626*
X03391Y03626*
X03393Y03626*
X03395Y03626*
X03397Y03626*
X03399Y03627*
X03401Y03627*
X03403Y03627*
X03416Y03627*
Y03624*
G37*
G36*
X03066D02*
X03066Y03622D01*
X03066Y03621*
X03066Y0362*
X03065Y03619*
X03065Y03618*
X03064Y03618*
X03063Y03618*
X03061Y03618*
X03059Y03617*
X03057Y03617*
X03055Y03617*
X03054Y03617*
X03052Y03617*
X03051Y03617*
X03049Y03617*
X03048Y03617*
X03046Y03617*
X03045Y03617*
X03044Y03617*
X03043Y03617*
X03042Y03617*
X03042Y03616*
X03041Y03616*
X0304Y03616*
X0304Y03616*
X03039Y03616*
X03039Y03616*
X03038Y03616*
X03038Y03616*
X03038Y03616*
X03038Y03617*
X03038Y03617*
X03038Y03617*
X03037Y03618*
X03037Y03618*
X03037Y03619*
X03037Y03619*
X03037Y0362*
X03037Y0362*
X03037Y03621*
X03037Y03622*
X03037Y03623*
X03037Y03623*
X03037Y03624*
X03037Y03624*
X03037Y03625*
X03037Y03625*
X03037Y03625*
X03038Y03625*
X03038Y03626*
X03038Y03626*
X03039Y03626*
X0304Y03626*
X03041Y03626*
X03043Y03626*
X03045Y03626*
X03047Y03626*
X03049Y03627*
X03051Y03627*
X03053Y03627*
X03066Y03627*
Y03624*
G37*
G36*
X01966Y03626D02*
X01968Y03626D01*
X0197Y03626*
X01972Y03626*
X01974Y03626*
X01975Y03626*
X01977Y03626*
X01978Y03626*
X01979Y03625*
X0198Y03625*
X01981Y03625*
X01981Y03625*
X01981Y03625*
X01982Y03625*
X01982Y03624*
X01982Y03624*
X01982Y03624*
Y03623*
X01982Y03622*
X01982Y03622*
X01982Y03621*
X01982Y0362*
X01981Y03619*
X01981Y03619*
X01981Y03618*
X01981Y03618*
X01981Y03617*
X01981Y03617*
X01981Y03616*
X01981Y03616*
X01981Y03616*
X01981Y03616*
X0198Y03616*
X0198Y03616*
X0198Y03616*
X01979Y03616*
X01978Y03616*
X01978Y03616*
X01977Y03616*
X01976Y03616*
X01975Y03616*
X01974Y03616*
X01973Y03617*
X01972Y03617*
X01971Y03617*
X01969Y03617*
X01968Y03617*
X01966Y03617*
X01965Y03617*
X01963Y03617*
X01962Y03617*
X01959Y03617*
X01957Y03617*
X01956Y03617*
X01955Y03618*
X01954Y03618*
X01953Y03619*
X01953Y03619*
X01952Y03621*
X01952Y03622*
X01952Y03624*
Y03627*
X01966Y03626*
G37*
G36*
X02321Y03621D02*
X02323Y03621D01*
X02325Y03621*
X02327Y03621*
X02329Y03621*
X0233Y03621*
X02332Y03621*
X02333Y03621*
X02334Y0362*
X02335Y0362*
X02336Y0362*
X02336Y0362*
X02336Y0362*
X02337Y0362*
X02337Y03619*
X02337Y03619*
X02337Y03619*
Y03618*
X02337Y03617*
X02337Y03617*
X02337Y03616*
X02337Y03615*
X02336Y03614*
X02336Y03614*
X02336Y03613*
X02336Y03613*
X02336Y03612*
X02336Y03612*
X02336Y03611*
X02336Y03611*
X02336Y03611*
X02336Y03611*
X02335Y03611*
X02335Y03611*
X02335Y03611*
X02334Y03611*
X02333Y03611*
X02333Y03611*
X02332Y03611*
X02331Y03611*
X0233Y03611*
X02329Y03611*
X02328Y03612*
X02327Y03612*
X02326Y03612*
X02324Y03612*
X02323Y03612*
X02321Y03612*
X0232Y03612*
X02318Y03612*
X02317Y03612*
X02314Y03612*
X02312Y03612*
X02311Y03612*
X0231Y03613*
X02309Y03613*
X02308Y03614*
X02308Y03614*
X02307Y03616*
X02307Y03617*
X02307Y03619*
Y03622*
X02321Y03621*
G37*
G36*
X02696Y03614D02*
X02696Y03612D01*
X02696Y03611*
X02696Y0361*
X02695Y03609*
X02695Y03608*
X02694Y03608*
X02693Y03608*
X02691Y03608*
X02689Y03607*
X02687Y03607*
X02685Y03607*
X02684Y03607*
X02682Y03607*
X02681Y03607*
X02679Y03607*
X02678Y03607*
X02676Y03607*
X02675Y03607*
X02674Y03607*
X02673Y03607*
X02672Y03607*
X02672Y03606*
X02671Y03606*
X0267Y03606*
X0267Y03606*
X02669Y03606*
X02669Y03606*
X02668Y03606*
X02668Y03606*
X02668Y03606*
X02668Y03607*
X02668Y03607*
X02668Y03607*
X02667Y03608*
X02667Y03608*
X02667Y03609*
X02667Y03609*
X02667Y0361*
X02667Y0361*
X02667Y03611*
X02667Y03612*
X02667Y03613*
X02667Y03613*
X02667Y03614*
X02667Y03614*
X02667Y03615*
X02667Y03615*
X02667Y03615*
X02668Y03615*
X02668Y03616*
X02668Y03616*
X02669Y03616*
X0267Y03616*
X02671Y03616*
X02673Y03616*
X02675Y03616*
X02677Y03616*
X02679Y03617*
X02681Y03617*
X02683Y03617*
X02696Y03617*
Y03614*
G37*
G36*
X03447Y03617D02*
X03448Y03617D01*
X0345Y03616*
X03452Y03614*
X03454Y03613*
X03456Y03611*
X03458Y0361*
X0346Y03608*
X03462Y03606*
X03464Y03605*
X03469Y03599*
X03466Y03596*
X03462Y03593*
X03457Y03598*
X03456Y03599*
X03455Y036*
X03454Y03601*
X03453Y03602*
X03452Y03602*
X03451Y03603*
X03449Y03604*
X03448Y03605*
X03447Y03606*
X03447Y03606*
X03446Y03607*
X03445Y03608*
X03444Y03608*
X03443Y03609*
X03443Y03609*
X03442Y03609*
X03442Y0361*
X03442Y0361*
X03441Y0361*
X03441Y0361*
X03441Y0361*
X03441Y0361*
X03442Y03611*
X03442Y03611*
X03442Y03611*
X03442Y03612*
X03442Y03612*
X03443Y03613*
X03443Y03613*
X03443Y03614*
X03444Y03614*
X03444Y03615*
X03444Y03616*
X03445Y03616*
X03445Y03616*
X03445Y03617*
X03445Y03617*
X03446Y03617*
X03446Y03617*
X03446Y03617*
X03447Y03617*
G37*
G36*
X03097D02*
X03098Y03617D01*
X031Y03616*
X03102Y03614*
X03104Y03613*
X03106Y03611*
X03108Y0361*
X0311Y03608*
X03112Y03606*
X03114Y03605*
X03119Y03599*
X03116Y03596*
X03112Y03593*
X03107Y03598*
X03106Y03599*
X03105Y036*
X03104Y03601*
X03103Y03602*
X03102Y03602*
X03101Y03603*
X03099Y03604*
X03098Y03605*
X03097Y03606*
X03097Y03606*
X03096Y03607*
X03095Y03608*
X03094Y03608*
X03093Y03609*
X03093Y03609*
X03092Y03609*
X03092Y0361*
X03092Y0361*
X03091Y0361*
X03091Y0361*
X03091Y0361*
X03091Y0361*
X03092Y03611*
X03092Y03611*
X03092Y03611*
X03092Y03612*
X03092Y03612*
X03093Y03613*
X03093Y03613*
X03093Y03614*
X03094Y03614*
X03094Y03615*
X03094Y03616*
X03095Y03616*
X03095Y03616*
X03095Y03617*
X03095Y03617*
X03096Y03617*
X03096Y03617*
X03096Y03617*
X03097Y03617*
G37*
G36*
X01923Y03617D02*
X01923Y03617D01*
X01923Y03617*
X01923Y03616*
X01924Y03616*
X01924Y03616*
X01924Y03615*
X01925Y03615*
X01925Y03614*
X01925Y03614*
X01926Y03613*
X01926Y03612*
X01926Y03612*
X01926Y03611*
X01927Y03611*
X01927Y03611*
X01927Y0361*
X01927Y0361*
X01927Y0361*
X01927Y0361*
X01927Y0361*
X01927Y0361*
X01927Y03609*
X01926Y03609*
X01926Y03609*
X01925Y03608*
X01924Y03608*
X01924Y03607*
X01923Y03607*
X01922Y03606*
X01921Y03605*
X0192Y03605*
X01919Y03604*
X01918Y03603*
X01917Y03602*
X01916Y03601*
X01915Y036*
X01913Y03599*
X01912Y03598*
X01912Y03598*
X01906Y03593*
X01903Y03596*
X01899Y03599*
X01905Y03604*
X01907Y03606*
X01909Y03608*
X01911Y03609*
X01913Y03611*
X01915Y03613*
X01917Y03614*
X01919Y03615*
X0192Y03616*
X01922Y03617*
X01922Y03617*
X01923Y03617*
G37*
G36*
X03359Y03613D02*
X0336Y03612D01*
X0336Y0361*
X03361Y03609*
X03361Y03608*
X03361Y03608*
X03361Y03607*
X03361Y03607*
X0336Y03606*
X03359Y03605*
X03358Y03605*
X03357Y03604*
X03356Y03604*
X03355Y03603*
X03354Y03602*
X03353Y03601*
X03352Y036*
X03351Y03599*
X0335Y03598*
X03349Y03597*
X03348Y03596*
X03347Y03595*
X03346Y03595*
X03345Y03594*
X03344Y03593*
X03343Y03592*
X03343Y03592*
X03342Y03591*
X03342Y03591*
X03341Y03591*
X03341Y03591*
X03341Y03591*
X0334Y03591*
X03339Y03592*
X03338Y03592*
X03337Y03593*
X03336Y03594*
X03336Y03595*
X03335Y03596*
X03334Y03596*
X03334Y03596*
X03334Y03597*
X03335Y03597*
X03335Y03597*
X03335Y03598*
X03336Y03599*
X03337Y03599*
X03338Y036*
X03339Y03601*
X0334Y03602*
X03341Y03603*
X03342Y03604*
X03343Y03605*
X03344Y03606*
X03346Y03607*
X03347Y03608*
X03348Y03609*
X03349Y0361*
X0335Y03611*
X03351Y03612*
X03352Y03612*
X03357Y03615*
X03359Y03613*
G37*
G36*
X03009D02*
X0301Y03612D01*
X0301Y0361*
X03011Y03609*
X03011Y03608*
X03011Y03608*
X03011Y03607*
X03011Y03607*
X0301Y03606*
X03009Y03605*
X03008Y03605*
X03007Y03604*
X03006Y03604*
X03005Y03603*
X03004Y03602*
X03003Y03601*
X03002Y036*
X03001Y03599*
X03Y03598*
X02999Y03597*
X02998Y03596*
X02997Y03595*
X02996Y03595*
X02995Y03594*
X02994Y03593*
X02993Y03592*
X02993Y03592*
X02992Y03591*
X02992Y03591*
X02991Y03591*
X02991Y03591*
X02991Y03591*
X0299Y03591*
X02989Y03592*
X02988Y03592*
X02987Y03593*
X02986Y03594*
X02986Y03595*
X02985Y03596*
X02984Y03596*
X02984Y03596*
X02984Y03597*
X02985Y03597*
X02985Y03597*
X02985Y03598*
X02986Y03599*
X02987Y03599*
X02988Y036*
X02989Y03601*
X0299Y03602*
X02991Y03603*
X02992Y03604*
X02993Y03605*
X02994Y03606*
X02996Y03607*
X02997Y03608*
X02998Y03609*
X02999Y0361*
X03Y03611*
X03001Y03612*
X03002Y03612*
X03007Y03615*
X03009Y03613*
G37*
G36*
X02016Y03612D02*
X02017Y03612D01*
X02018Y03611*
X02019Y0361*
X0202Y03609*
X02022Y03608*
X02023Y03607*
X02024Y03606*
X02025Y03605*
X02027Y03604*
X02028Y03603*
X02029Y03602*
X0203Y03601*
X02031Y036*
X02032Y03599*
X02032Y03598*
X02033Y03598*
X02034Y03597*
X02034Y03597*
X02034Y03596*
X02034Y03596*
X02034Y03596*
X02034Y03595*
X02033Y03595*
X02032Y03594*
X02031Y03593*
X0203Y03592*
X02029Y03591*
X02028Y03591*
X02028Y0359*
X02027Y0359*
X02027Y0359*
X02027Y03591*
X02027Y03591*
X02026Y03591*
X02025Y03592*
X02025Y03593*
X02024Y03593*
X02023Y03594*
X02022Y03595*
X02021Y03596*
X0202Y03597*
X02019Y03598*
X02018Y03599*
X02017Y036*
X02015Y03601*
X02014Y03602*
X02013Y03602*
X02012Y03603*
X02011Y03604*
X02011Y03604*
X02009Y03605*
X02008Y03606*
X02008Y03606*
X02007Y03607*
X02007Y03607*
X02007Y03608*
X02007Y03609*
X02008Y0361*
X02009Y03611*
X0201Y03613*
X02011Y03615*
X02016Y03612*
G37*
G36*
X02278D02*
X02278Y03612D01*
X02278Y03612*
X02278Y03611*
X02279Y03611*
X02279Y03611*
X02279Y0361*
X0228Y0361*
X0228Y03609*
X0228Y03609*
X02281Y03608*
X02281Y03607*
X02281Y03607*
X02281Y03606*
X02282Y03606*
X02282Y03606*
X02282Y03605*
X02282Y03605*
X02282Y03605*
X02282Y03605*
X02282Y03605*
X02282Y03605*
X02282Y03604*
X02281Y03604*
X02281Y03604*
X0228Y03603*
X02279Y03603*
X02279Y03602*
X02278Y03602*
X02277Y03601*
X02276Y036*
X02275Y036*
X02274Y03599*
X02273Y03598*
X02272Y03597*
X02271Y03596*
X0227Y03595*
X02268Y03594*
X02267Y03593*
X02267Y03593*
X02261Y03588*
X02258Y03591*
X02254Y03594*
X0226Y03599*
X02262Y03601*
X02264Y03603*
X02266Y03604*
X02268Y03606*
X0227Y03608*
X02272Y03609*
X02274Y0361*
X02275Y03611*
X02277Y03612*
X02277Y03612*
X02278Y03612*
G37*
G36*
X02371Y03607D02*
X02372Y03607D01*
X02373Y03606*
X02374Y03605*
X02375Y03604*
X02377Y03603*
X02378Y03602*
X02379Y03601*
X0238Y036*
X02382Y03599*
X02383Y03598*
X02384Y03597*
X02385Y03596*
X02386Y03595*
X02387Y03594*
X02387Y03593*
X02388Y03593*
X02389Y03592*
X02389Y03592*
X02389Y03591*
X02389Y03591*
X02389Y03591*
X02389Y0359*
X02388Y0359*
X02387Y03589*
X02386Y03588*
X02385Y03587*
X02384Y03586*
X02383Y03586*
X02383Y03585*
X02382Y03585*
X02382Y03585*
X02382Y03586*
X02382Y03586*
X02381Y03586*
X0238Y03587*
X0238Y03588*
X02379Y03588*
X02378Y03589*
X02377Y0359*
X02376Y03591*
X02375Y03592*
X02374Y03593*
X02373Y03594*
X02372Y03595*
X0237Y03596*
X02369Y03597*
X02368Y03597*
X02367Y03598*
X02366Y03599*
X02366Y03599*
X02364Y036*
X02363Y03601*
X02363Y03601*
X02362Y03602*
X02362Y03602*
X02362Y03603*
X02362Y03604*
X02363Y03605*
X02364Y03606*
X02365Y03608*
X02366Y0361*
X02371Y03607*
G37*
G36*
X02727Y03607D02*
X02728Y03607D01*
X0273Y03606*
X02732Y03604*
X02734Y03603*
X02736Y03601*
X02738Y036*
X0274Y03598*
X02742Y03596*
X02744Y03595*
X02749Y03589*
X02746Y03586*
X02742Y03583*
X02737Y03588*
X02736Y03589*
X02735Y0359*
X02734Y03591*
X02733Y03592*
X02732Y03592*
X02731Y03593*
X02729Y03594*
X02728Y03595*
X02727Y03596*
X02727Y03596*
X02726Y03597*
X02725Y03598*
X02724Y03598*
X02723Y03599*
X02723Y03599*
X02722Y03599*
X02722Y036*
X02722Y036*
X02721Y036*
X02721Y036*
X02721Y036*
X02721Y036*
X02722Y03601*
X02722Y03601*
X02722Y03601*
X02722Y03602*
X02722Y03602*
X02723Y03603*
X02723Y03603*
X02723Y03604*
X02724Y03604*
X02724Y03605*
X02724Y03606*
X02725Y03606*
X02725Y03606*
X02725Y03607*
X02725Y03607*
X02726Y03607*
X02726Y03607*
X02726Y03607*
X02727Y03607*
G37*
G36*
X02639Y03603D02*
X0264Y03602D01*
X0264Y036*
X02641Y03599*
X02641Y03598*
X02641Y03598*
X02641Y03597*
X02641Y03597*
X0264Y03596*
X02639Y03595*
X02638Y03595*
X02637Y03594*
X02636Y03594*
X02635Y03593*
X02634Y03592*
X02633Y03591*
X02632Y0359*
X02631Y03589*
X0263Y03588*
X02629Y03587*
X02628Y03586*
X02627Y03585*
X02626Y03585*
X02625Y03584*
X02624Y03583*
X02623Y03582*
X02623Y03582*
X02622Y03581*
X02622Y03581*
X02621Y03581*
X02621Y03581*
X02621Y03581*
X0262Y03581*
X02619Y03582*
X02618Y03582*
X02617Y03583*
X02616Y03584*
X02616Y03585*
X02615Y03586*
X02614Y03586*
X02614Y03586*
X02614Y03587*
X02615Y03587*
X02615Y03587*
X02615Y03588*
X02616Y03589*
X02617Y03589*
X02618Y0359*
X02619Y03591*
X0262Y03592*
X02621Y03593*
X02622Y03594*
X02623Y03595*
X02624Y03596*
X02626Y03597*
X02627Y03598*
X02628Y03599*
X02629Y036*
X0263Y03601*
X02631Y03602*
X02632Y03602*
X02637Y03605*
X02639Y03603*
G37*
G36*
X03486Y03573D02*
X03486Y03571D01*
X03487Y03569*
X03489Y03566*
X0349Y03563*
X03491Y0356*
X03492Y03557*
X03493Y03553*
X03494Y03551*
X03495Y03549*
X03495Y03548*
X03495Y03547*
X03495Y03547*
X03495Y03546*
X03495Y03546*
X03494Y03546*
X03494Y03546*
X03493Y03545*
X03492Y03545*
X03491Y03545*
X03491Y03545*
X0349Y03544*
X03489Y03544*
X03489Y03544*
X03488Y03544*
X03488Y03544*
X03487*
X03487Y03544*
X03487Y03544*
X03486Y03544*
X03486Y03545*
X03486Y03545*
X03486Y03545*
X03486Y03546*
X03485Y03547*
X03485Y03548*
X03485Y03549*
X03484Y0355*
X03484Y03551*
X03484Y03552*
X03483Y03553*
X03483Y03554*
X03482Y03555*
X03482Y03557*
X03481Y03558*
X03481Y03559*
X0348Y0356*
X0348Y03562*
X0348Y03563*
X03479Y03564*
X03479Y03564*
X03478Y03565*
X03478Y03566*
X03478Y03567*
X03478Y03567*
X03477Y03568*
X03477Y03568*
X03477Y03569*
X03477Y03569*
X03477Y03569*
X03477Y03569*
X03477Y03569*
X03477Y03569*
X03478Y0357*
X03478Y0357*
X03478Y0357*
X03479Y03571*
X0348Y03571*
X0348Y03571*
X03481Y03571*
X03481Y03572*
X03482Y03572*
X03483Y03572*
X03483Y03573*
X03484Y03573*
X03484Y03573*
X03484Y03573*
X03485Y03573*
X03485Y03573*
X03485Y03573*
X03486Y03573*
G37*
G36*
X03136D02*
X03136Y03571D01*
X03137Y03569*
X03139Y03566*
X0314Y03563*
X03141Y0356*
X03142Y03557*
X03143Y03553*
X03144Y03551*
X03145Y03549*
X03145Y03548*
X03145Y03547*
X03145Y03547*
X03145Y03546*
X03145Y03546*
X03144Y03546*
X03144Y03546*
X03143Y03545*
X03142Y03545*
X03141Y03545*
X03141Y03545*
X0314Y03544*
X03139Y03544*
X03139Y03544*
X03138Y03544*
X03138Y03544*
X03137*
X03137Y03544*
X03137Y03544*
X03136Y03544*
X03136Y03545*
X03136Y03545*
X03136Y03545*
X03136Y03546*
X03135Y03547*
X03135Y03548*
X03135Y03549*
X03134Y0355*
X03134Y03551*
X03134Y03552*
X03133Y03553*
X03133Y03554*
X03132Y03555*
X03132Y03557*
X03131Y03558*
X03131Y03559*
X0313Y0356*
X0313Y03562*
X0313Y03563*
X03129Y03564*
X03129Y03564*
X03128Y03565*
X03128Y03566*
X03128Y03567*
X03128Y03567*
X03127Y03568*
X03127Y03568*
X03127Y03569*
X03127Y03569*
X03127Y03569*
X03127Y03569*
X03127Y03569*
X03127Y03569*
X03128Y0357*
X03128Y0357*
X03128Y0357*
X03129Y03571*
X0313Y03571*
X0313Y03571*
X03131Y03571*
X03131Y03572*
X03132Y03572*
X03133Y03572*
X03133Y03573*
X03134Y03573*
X03134Y03573*
X03134Y03573*
X03135Y03573*
X03135Y03573*
X03135Y03573*
X03136Y03573*
G37*
G36*
X01884Y03573D02*
X01884Y03573D01*
X01884Y03573*
X01884Y03573*
X01885Y03572*
X01885Y03572*
X01886Y03572*
X01887Y03572*
X01887Y03571*
X01888Y03571*
X01888Y03571*
X01889Y0357*
X0189Y0357*
X0189Y0357*
X0189Y0357*
X01891Y03569*
X01891Y03569*
X01891Y03569*
X01892Y03569*
X01892Y03569*
X01892Y03569*
X01891Y03568*
X01891Y03568*
X01891Y03567*
X01891Y03567*
X01891Y03566*
X0189Y03566*
X0189Y03565*
X0189Y03564*
X01889Y03563*
X01889Y03562*
X01889Y03561*
X01888Y0356*
X01888Y03559*
X01887Y03558*
X01887Y03556*
X01886Y03555*
X01886Y03554*
X01885Y03553*
X01885Y03551*
X01885Y0355*
X01884Y03549*
X01884Y03548*
X01883Y03547*
X01883Y03547*
X01883Y03546*
X01883Y03545*
X01882Y03545*
X01882Y03544*
X01882Y03544*
X01882Y03544*
X01882Y03544*
X01881Y03544*
X01881Y03544*
X0188Y03544*
X0188Y03544*
X01879Y03544*
X01879Y03544*
X01878Y03544*
X01877Y03544*
X01876Y03545*
X01875Y03545*
X01875Y03545*
X01874Y03545*
X01874Y03546*
X01874Y03546*
X01874Y03547*
X01874Y03547*
X01874Y03548*
X01874Y03548*
X01874Y0355*
X01875Y03553*
X01876Y03556*
X01877Y03559*
X01879Y03563*
X0188Y03566*
X01881Y03569*
X01882Y03571*
X01883Y03572*
X01883Y03573*
X01884Y03573*
G37*
G36*
X0332Y03569D02*
X03321Y03569D01*
X03321Y03569*
X03322Y03569*
X03322Y03569*
X03323Y03569*
X03324Y03568*
X03325Y03568*
X03326Y03567*
X03326Y03567*
X03327Y03566*
X03327Y03566*
X03327Y03565*
X03327Y03564*
X03326Y03563*
X03326Y03562*
X03326Y03561*
X03325Y0356*
X03325Y03559*
X03325Y03558*
X03324Y03556*
X03324Y03555*
X03323Y03553*
X03323Y03552*
X03323Y0355*
X03322Y03549*
X03322Y03546*
X03321Y03544*
X0332Y03543*
X0332Y03542*
X03319Y03541*
X03319Y03541*
X03318Y0354*
X03317Y03541*
X03315Y03541*
X03313Y03541*
X03312Y03542*
X03312Y03542*
X03311Y03542*
X03311Y03543*
Y03544*
X03311Y03546*
X03312Y03548*
X03312Y0355*
X03313Y03553*
X03314Y03557*
X03315Y03559*
X03315Y0356*
X03316Y03562*
X03316Y03564*
X03317Y03565*
X03317Y03566*
X03318Y03567*
X03318Y03568*
X03318Y03569*
X03319Y03569*
X03319Y03569*
X03319Y03569*
X03319Y03569*
X0332Y03569*
X0332*
G37*
G36*
X0297D02*
X02971Y03569D01*
X02971Y03569*
X02972Y03569*
X02972Y03569*
X02973Y03569*
X02974Y03568*
X02975Y03568*
X02976Y03567*
X02976Y03567*
X02977Y03566*
X02977Y03566*
X02977Y03565*
X02977Y03564*
X02976Y03563*
X02976Y03562*
X02976Y03561*
X02975Y0356*
X02975Y03559*
X02975Y03558*
X02974Y03556*
X02974Y03555*
X02973Y03553*
X02973Y03552*
X02973Y0355*
X02972Y03549*
X02972Y03546*
X02971Y03544*
X0297Y03543*
X0297Y03542*
X02969Y03541*
X02969Y03541*
X02968Y0354*
X02967Y03541*
X02965Y03541*
X02963Y03541*
X02962Y03542*
X02962Y03542*
X02961Y03542*
X02961Y03543*
Y03544*
X02961Y03546*
X02962Y03548*
X02962Y0355*
X02963Y03553*
X02964Y03557*
X02965Y03559*
X02965Y0356*
X02966Y03562*
X02966Y03564*
X02967Y03565*
X02967Y03566*
X02968Y03567*
X02968Y03568*
X02968Y03569*
X02969Y03569*
X02969Y03569*
X02969Y03569*
X02969Y03569*
X0297Y03569*
X0297*
G37*
G36*
X02049Y03569D02*
X02049Y03569D01*
X0205Y03569*
X0205Y03568*
X0205Y03568*
X0205Y03568*
X02051Y03567*
X02051Y03566*
X02052Y03565*
X02052Y03563*
X02053Y03562*
X02053Y0356*
X02054Y03558*
X02054Y03557*
X02055Y03553*
X02056Y0355*
X02057Y03548*
X02057Y03546*
X02057Y03544*
X02057Y03543*
X02057Y03542*
X02057Y03542*
X02056Y03541*
X02055Y03541*
X02053Y03541*
X02052Y0354*
X02051Y0354*
X0205Y0354*
X02049Y03541*
X02049Y03541*
X02048Y03543*
X02047Y03544*
X02047Y03546*
X02046Y03549*
X02046Y0355*
X02046Y03552*
X02045Y03553*
X02045Y03554*
X02044Y03556*
X02044Y03557*
X02044Y03559*
X02043Y0356*
X02043Y03561*
X02043Y03561*
X02042Y03563*
X02042Y03564*
X02042Y03565*
X02042Y03565*
X02042Y03566*
X02042Y03566*
X02043Y03567*
X02043Y03567*
X02044Y03568*
X02046Y03568*
X02046Y03568*
X02047Y03569*
X02047Y03569*
X02048Y03569*
X02048Y03569*
X02049*
X02049Y03569*
G37*
G36*
X02239Y03568D02*
X02239Y03568D01*
X02239Y03568*
X02239Y03568*
X0224Y03567*
X0224Y03567*
X02241Y03567*
X02242Y03567*
X02242Y03566*
X02243Y03566*
X02243Y03566*
X02244Y03565*
X02245Y03565*
X02245Y03565*
X02245Y03565*
X02246Y03564*
X02246Y03564*
X02246Y03564*
X02247Y03564*
X02247Y03564*
X02247Y03564*
X02246Y03563*
X02246Y03563*
X02246Y03562*
X02246Y03562*
X02246Y03561*
X02245Y03561*
X02245Y0356*
X02245Y03559*
X02244Y03558*
X02244Y03557*
X02244Y03556*
X02243Y03555*
X02243Y03554*
X02242Y03553*
X02242Y03551*
X02241Y0355*
X02241Y03549*
X0224Y03548*
X0224Y03546*
X0224Y03545*
X02239Y03544*
X02239Y03543*
X02238Y03542*
X02238Y03542*
X02238Y03541*
X02238Y0354*
X02237Y0354*
X02237Y03539*
X02237Y03539*
X02237Y03539*
X02237Y03539*
X02236Y03539*
X02236Y03539*
X02235Y03539*
X02235Y03539*
X02234Y03539*
X02234Y03539*
X02233Y03539*
X02232Y03539*
X02231Y0354*
X0223Y0354*
X0223Y0354*
X02229Y0354*
X02229Y03541*
X02229Y03541*
X02229Y03542*
X02229Y03542*
X02229Y03543*
X02229Y03543*
X02229Y03545*
X0223Y03548*
X02231Y03551*
X02232Y03554*
X02234Y03558*
X02235Y03561*
X02236Y03564*
X02237Y03566*
X02238Y03567*
X02238Y03568*
X02239Y03568*
G37*
G36*
X02404Y03564D02*
X02404Y03564D01*
X02405Y03564*
X02405Y03563*
X02405Y03563*
X02405Y03563*
X02406Y03562*
X02406Y03561*
X02407Y0356*
X02407Y03558*
X02408Y03557*
X02408Y03555*
X02409Y03553*
X02409Y03552*
X0241Y03548*
X02411Y03545*
X02412Y03543*
X02412Y03541*
X02412Y03539*
X02412Y03538*
X02412Y03537*
X02412Y03537*
X02411Y03536*
X0241Y03536*
X02408Y03536*
X02407Y03535*
X02406Y03535*
X02405Y03535*
X02404Y03536*
X02404Y03536*
X02403Y03538*
X02402Y03539*
X02402Y03541*
X02401Y03544*
X02401Y03545*
X02401Y03547*
X024Y03548*
X024Y03549*
X02399Y03551*
X02399Y03552*
X02399Y03554*
X02398Y03555*
X02398Y03556*
X02398Y03556*
X02397Y03558*
X02397Y03559*
X02397Y0356*
X02397Y0356*
X02397Y03561*
X02397Y03561*
X02398Y03562*
X02398Y03562*
X02399Y03563*
X02401Y03563*
X02401Y03563*
X02402Y03564*
X02402Y03564*
X02403Y03564*
X02403Y03564*
X02404*
X02404Y03564*
G37*
G36*
X02766Y03563D02*
X02766Y03561D01*
X02767Y03559*
X02769Y03556*
X0277Y03553*
X02771Y0355*
X02772Y03547*
X02773Y03543*
X02774Y03541*
X02775Y03539*
X02775Y03538*
X02775Y03537*
X02775Y03537*
X02775Y03536*
X02775Y03536*
X02774Y03536*
X02774Y03536*
X02773Y03535*
X02772Y03535*
X02771Y03535*
X02771Y03535*
X0277Y03534*
X02769Y03534*
X02769Y03534*
X02768Y03534*
X02768Y03534*
X02767*
X02767Y03534*
X02767Y03534*
X02766Y03534*
X02766Y03535*
X02766Y03535*
X02766Y03535*
X02766Y03536*
X02765Y03537*
X02765Y03538*
X02765Y03539*
X02764Y0354*
X02764Y03541*
X02764Y03542*
X02763Y03543*
X02763Y03544*
X02762Y03545*
X02762Y03547*
X02761Y03548*
X02761Y03549*
X0276Y0355*
X0276Y03552*
X0276Y03553*
X02759Y03554*
X02759Y03554*
X02758Y03555*
X02758Y03556*
X02758Y03557*
X02758Y03557*
X02757Y03558*
X02757Y03558*
X02757Y03559*
X02757Y03559*
X02757Y03559*
X02757Y03559*
X02757Y03559*
X02757Y03559*
X02758Y0356*
X02758Y0356*
X02758Y0356*
X02759Y03561*
X0276Y03561*
X0276Y03561*
X02761Y03561*
X02761Y03562*
X02762Y03562*
X02763Y03562*
X02763Y03563*
X02764Y03563*
X02764Y03563*
X02764Y03563*
X02765Y03563*
X02765Y03563*
X02765Y03563*
X02766Y03563*
G37*
G36*
X026Y03559D02*
X02601Y03559D01*
X02601Y03559*
X02602Y03559*
X02602Y03559*
X02603Y03559*
X02604Y03558*
X02605Y03558*
X02606Y03557*
X02606Y03557*
X02607Y03556*
X02607Y03556*
X02607Y03555*
X02607Y03554*
X02606Y03553*
X02606Y03552*
X02606Y03551*
X02605Y0355*
X02605Y03549*
X02605Y03548*
X02604Y03546*
X02604Y03545*
X02603Y03543*
X02603Y03542*
X02603Y0354*
X02602Y03539*
X02602Y03536*
X02601Y03534*
X026Y03533*
X026Y03532*
X02599Y03531*
X02599Y03531*
X02598Y0353*
X02597Y03531*
X02595Y03531*
X02593Y03531*
X02592Y03532*
X02592Y03532*
X02591Y03532*
X02591Y03533*
Y03534*
X02591Y03536*
X02592Y03538*
X02592Y0354*
X02593Y03543*
X02594Y03547*
X02595Y03549*
X02595Y0355*
X02596Y03552*
X02596Y03554*
X02597Y03555*
X02597Y03556*
X02598Y03557*
X02598Y03558*
X02598Y03559*
X02599Y03559*
X02599Y03559*
X02599Y03559*
X02599Y03559*
X026Y03559*
X026*
G37*
G36*
X03355Y03518D02*
X03354Y03516D01*
X03353Y03514*
X03351Y0351*
X03349Y03506*
X03346Y03501*
X03343Y03495*
X0334Y03489*
X03337Y03482*
X03333Y03475*
X0333Y03468*
X03327Y03461*
X03323Y03455*
X0332Y03449*
X03318Y03444*
X03316Y0344*
X03314Y03436*
X03312Y03434*
X03311Y03432*
X03311Y03431*
X03311Y03432*
X0331Y03433*
X03309Y03436*
X03307Y03439*
X03305Y03443*
X03303Y03447*
X033Y03452*
X03298Y03457*
X03295Y03463*
X03292Y03469*
X03287Y03478*
X03283Y03486*
X0328Y03492*
X03278Y03497*
X03276Y03501*
X03275Y03504*
X03274Y03507*
X03273Y03509*
X03273Y0351*
X03273Y03512*
X03273Y03512*
X03273Y03513*
X03273Y03514*
X03273Y03514*
X03273Y03515*
X03273Y03515*
X03273Y03515*
X03273Y03516*
X03273Y03516*
X03273Y03516*
X03273Y03516*
X03274Y03515*
X03275Y03515*
X03276Y03514*
X03278Y03513*
X0328Y03513*
X03282Y03511*
X03285Y0351*
X03287Y03509*
X0329Y03508*
X03306Y035*
X03307Y03506*
X03307Y03512*
X03312Y03512*
X03316Y03512*
Y03506*
Y035*
X03335Y03509*
X03338Y03511*
X03341Y03512*
X03344Y03514*
X03347Y03515*
X03349Y03516*
X03351Y03517*
X03353Y03518*
X03354Y03518*
X03355Y03519*
X03355Y03519*
X03355Y03518*
G37*
G36*
X03005D02*
X03004Y03516D01*
X03003Y03514*
X03001Y0351*
X02999Y03506*
X02996Y03501*
X02993Y03495*
X0299Y03489*
X02987Y03482*
X02983Y03475*
X0298Y03468*
X02977Y03461*
X02973Y03455*
X0297Y03449*
X02968Y03444*
X02966Y0344*
X02964Y03436*
X02962Y03434*
X02961Y03432*
X02961Y03431*
X02961Y03432*
X0296Y03433*
X02959Y03436*
X02957Y03439*
X02955Y03443*
X02953Y03447*
X0295Y03452*
X02948Y03457*
X02945Y03463*
X02942Y03469*
X02937Y03478*
X02933Y03486*
X0293Y03492*
X02928Y03497*
X02926Y03501*
X02925Y03504*
X02924Y03507*
X02923Y03509*
X02923Y0351*
X02923Y03512*
X02923Y03512*
X02923Y03513*
X02923Y03514*
X02923Y03514*
X02923Y03515*
X02923Y03515*
X02923Y03515*
X02923Y03516*
X02923Y03516*
X02923Y03516*
X02923Y03516*
X02924Y03515*
X02925Y03515*
X02926Y03514*
X02928Y03513*
X0293Y03513*
X02932Y03511*
X02935Y0351*
X02937Y03509*
X0294Y03508*
X02956Y035*
X02957Y03506*
X02957Y03512*
X02962Y03512*
X02966Y03512*
Y03506*
Y035*
X02985Y03509*
X02988Y03511*
X02991Y03512*
X02994Y03514*
X02997Y03515*
X02999Y03516*
X03001Y03517*
X03003Y03518*
X03004Y03518*
X03005Y03519*
X03005Y03519*
X03005Y03518*
G37*
G36*
X02635Y03508D02*
X02634Y03506D01*
X02633Y03504*
X02631Y035*
X02629Y03496*
X02626Y03491*
X02623Y03485*
X0262Y03479*
X02617Y03472*
X02613Y03465*
X0261Y03458*
X02607Y03451*
X02603Y03445*
X026Y03439*
X02598Y03434*
X02596Y0343*
X02594Y03426*
X02592Y03424*
X02591Y03422*
X02591Y03421*
X02591Y03422*
X0259Y03423*
X02589Y03426*
X02587Y03429*
X02585Y03433*
X02583Y03437*
X0258Y03442*
X02578Y03447*
X02575Y03453*
X02572Y03459*
X02567Y03468*
X02563Y03476*
X0256Y03482*
X02558Y03487*
X02556Y03491*
X02555Y03494*
X02554Y03497*
X02553Y03499*
X02553Y035*
X02553Y03502*
X02553Y03502*
X02553Y03503*
X02553Y03504*
X02553Y03504*
X02553Y03505*
X02553Y03505*
X02553Y03505*
X02553Y03506*
X02553Y03506*
X02553Y03506*
X02553Y03506*
X02554Y03505*
X02555Y03505*
X02556Y03504*
X02558Y03503*
X0256Y03503*
X02562Y03501*
X02565Y035*
X02567Y03499*
X0257Y03498*
X02586Y0349*
X02587Y03496*
X02587Y03502*
X02592Y03502*
X02596Y03502*
Y03496*
Y0349*
X02615Y03499*
X02618Y03501*
X02621Y03502*
X02624Y03504*
X02627Y03505*
X02629Y03506*
X02631Y03507*
X02633Y03508*
X02634Y03508*
X02635Y03509*
X02635Y03509*
X02635Y03508*
G37*
G36*
X03503Y03511D02*
X03504Y03507D01*
X03504Y03503*
X03505Y03499*
X03505Y03496*
X03505Y03494*
X03505Y03492*
X03505Y03491*
X03505Y0349*
X03505Y03489*
X03505Y03489*
X03504Y03489*
X03503Y03488*
X03502Y03488*
X03501Y03488*
X035Y03488*
X03499Y03488*
X03498Y03488*
X03497Y03488*
X03496Y03488*
X03496Y03488*
X03496Y03489*
X03496Y03492*
X03496Y03494*
X03495Y03498*
X03495Y03501*
X03494Y03505*
X03494Y03508*
X03493Y03511*
X03493Y03513*
X03493Y03514*
X03493Y03514*
X03493Y03515*
X03493Y03515*
Y03515*
X03493Y03515*
X03493Y03516*
X03493Y03516*
X03493Y03516*
X03493Y03516*
X03493Y03516*
X03493Y03516*
X03493Y03516*
X03494Y03516*
X03494Y03516*
X03495Y03516*
X03495Y03516*
X03496Y03516*
X03497Y03516*
X03497Y03517*
X03498Y03517*
X03502Y03517*
X03503Y03511*
G37*
G36*
X03153D02*
X03154Y03507D01*
X03154Y03503*
X03155Y03499*
X03155Y03496*
X03155Y03494*
X03155Y03492*
X03155Y03491*
X03155Y0349*
X03155Y03489*
X03155Y03489*
X03154Y03489*
X03153Y03488*
X03152Y03488*
X03151Y03488*
X0315Y03488*
X03149Y03488*
X03148Y03488*
X03147Y03488*
X03146Y03488*
X03146Y03488*
X03146Y03489*
X03146Y03492*
X03146Y03494*
X03145Y03498*
X03145Y03501*
X03144Y03505*
X03144Y03508*
X03143Y03511*
X03143Y03513*
X03143Y03514*
X03143Y03514*
X03143Y03515*
X03143Y03515*
Y03515*
X03143Y03515*
X03143Y03516*
X03143Y03516*
X03143Y03516*
X03143Y03516*
X03143Y03516*
X03143Y03516*
X03143Y03516*
X03144Y03516*
X03144Y03516*
X03145Y03516*
X03145Y03516*
X03146Y03516*
X03147Y03516*
X03147Y03517*
X03148Y03517*
X03152Y03517*
X03153Y03511*
G37*
G36*
X01871Y03516D02*
X01871Y03516D01*
X01872Y03516*
X01873Y03516*
X01873Y03516*
X01874Y03516*
X01874Y03516*
X01875Y03516*
X01875Y03516*
X01875Y03516*
X01876Y03516*
X01876Y03516*
X01876Y03515*
X01876Y03515*
X01876Y03515*
X01876Y03515*
X01876Y03515*
Y03515*
X01876Y03514*
X01876Y03514*
X01876Y03514*
X01876Y03513*
X01875Y03511*
X01875Y03508*
X01874Y03505*
X01874Y03501*
X01873Y03497*
X01873Y03494*
X01873Y03491*
X01872Y03489*
X01872Y03488*
X01872Y03488*
X01872Y03488*
X01871Y03488*
X0187*
X01868Y03488*
X01867Y03488*
X01866Y03488*
X01865Y03488*
X01864Y03488*
X01864Y03488*
X01864Y03489*
X01863Y0349*
X01863Y03491*
X01863Y03492*
X01863Y03494*
X01864Y03496*
X01864Y03499*
X01864Y03502*
X01865Y03506*
X01866Y03511*
X01867Y03517*
X01871Y03516*
G37*
G36*
X02226Y03511D02*
X02226Y03511D01*
X02227Y03511*
X02228Y03511*
X02228Y03511*
X02229Y03511*
X02229Y03511*
X0223Y03511*
X0223Y03511*
X0223Y03511*
X02231Y03511*
X02231Y03511*
X02231Y0351*
X02231Y0351*
X02231Y0351*
X02231Y0351*
X02231Y0351*
Y0351*
X02231Y03509*
X02231Y03509*
X02231Y03509*
X02231Y03508*
X0223Y03506*
X0223Y03503*
X02229Y035*
X02229Y03496*
X02228Y03492*
X02228Y03489*
X02228Y03486*
X02227Y03484*
X02227Y03483*
X02227Y03483*
X02227Y03483*
X02226Y03483*
X02225*
X02223Y03483*
X02222Y03483*
X02221Y03483*
X0222Y03483*
X02219Y03483*
X02219Y03483*
X02219Y03484*
X02218Y03485*
X02218Y03486*
X02218Y03487*
X02218Y03489*
X02219Y03491*
X02219Y03494*
X02219Y03497*
X0222Y03501*
X02221Y03506*
X02222Y03512*
X02226Y03511*
G37*
G36*
X02783Y03501D02*
X02784Y03497D01*
X02784Y03493*
X02785Y03489*
X02785Y03486*
X02785Y03484*
X02785Y03482*
X02785Y03481*
X02785Y0348*
X02785Y03479*
X02785Y03479*
X02784Y03479*
X02783Y03478*
X02782Y03478*
X02781Y03478*
X0278Y03478*
X02779Y03478*
X02778Y03478*
X02777Y03478*
X02776Y03478*
X02776Y03478*
X02776Y03479*
X02776Y03482*
X02776Y03484*
X02775Y03488*
X02775Y03491*
X02774Y03495*
X02774Y03498*
X02773Y03501*
X02773Y03503*
X02773Y03504*
X02773Y03504*
X02773Y03505*
X02773Y03505*
Y03505*
X02773Y03505*
X02773Y03506*
X02773Y03506*
X02773Y03506*
X02773Y03506*
X02773Y03506*
X02773Y03506*
X02773Y03506*
X02774Y03506*
X02774Y03506*
X02775Y03506*
X02775Y03506*
X02776Y03506*
X02777Y03506*
X02777Y03507*
X02778Y03507*
X02782Y03507*
X02783Y03501*
G37*
G36*
X02014Y03518D02*
X02015Y03518D01*
X02016Y03517*
X02018Y03517*
X0202Y03516*
X02022Y03514*
X02024Y03513*
X02027Y03512*
X0203Y0351*
X02033Y03509*
X02053Y03499*
Y03505*
Y03511*
X02057Y03512*
X02061Y03512*
X02062Y03506*
X02062Y03499*
X02079Y03507*
X02081Y03509*
X02084Y0351*
X02086Y03511*
X02088Y03512*
X0209Y03513*
X02092Y03514*
X02093Y03515*
X02095Y03515*
X02095Y03515*
X02095Y03516*
X02096Y03515*
X02096Y03515*
X02096Y03515*
X02096Y03515*
X02096Y03514*
X02096Y03514*
X02096Y03513*
X02096Y03513*
X02096Y03512*
Y03511*
X02096Y0351*
X02096Y03508*
X02095Y03507*
X02094Y03504*
X02093Y03501*
X02091Y03497*
X02088Y03492*
X02085Y03485*
X02081Y03478*
X02077Y03469*
X02074Y03463*
X02071Y03457*
X02068Y03452*
X02066Y03447*
X02063Y03442*
X02061Y03438*
X0206Y03435*
X02059Y03433*
X02058Y03432*
X02057Y03431*
X02057Y03432*
X02056Y03433*
X02055Y03436*
X02053Y0344*
X02051Y03444*
X02048Y03449*
X02045Y03455*
X02042Y03461*
X02039Y03468*
X02035Y03475*
X02031Y03482*
X02028Y03489*
X02025Y03495*
X02022Y035*
X0202Y03506*
X02018Y0351*
X02016Y03513*
X02015Y03516*
X02014Y03518*
X02014Y03518*
X02014Y03518*
G37*
G36*
X03508Y03454D02*
X03508Y03453D01*
X03508Y03452*
X03508Y0345*
X03508Y03449*
X03509Y03447*
X03509Y03446*
X03509Y03444*
X03509Y03443*
X03509Y03441*
X03509Y03439*
Y03431*
X03499*
X03499Y0344*
X03499Y03441*
X03499Y03443*
X03499Y03445*
X03499Y03446*
X03499Y03448*
X03499Y03449*
X03499Y03451*
X03499Y03452*
X03499Y03453*
X03498Y03454*
X03498Y03459*
X03503Y03459*
X03508Y0346*
X03508Y03454*
G37*
G36*
X03158D02*
X03158Y03453D01*
X03158Y03452*
X03158Y0345*
X03158Y03449*
X03159Y03447*
X03159Y03446*
X03159Y03444*
X03159Y03443*
X03159Y03441*
X03159Y03439*
Y03431*
X03149*
X03149Y0344*
X03149Y03441*
X03149Y03443*
X03149Y03445*
X03149Y03446*
X03149Y03448*
X03149Y03449*
X03149Y03451*
X03149Y03452*
X03149Y03453*
X03148Y03454*
X03148Y03459*
X03153Y03459*
X03158Y0346*
X03158Y03454*
G37*
G36*
X01866Y03459D02*
X01871Y03459D01*
X0187Y03454*
X0187Y03453*
X0187Y03452*
X0187Y0345*
X0187Y03449*
X0187Y03448*
X0187Y03446*
X01869Y03444*
X01869Y03443*
X01869Y03441*
X01869Y0344*
Y0343*
X0186*
Y03439*
X0186Y03441*
X0186Y03442*
X0186Y03444*
X0186Y03446*
X0186Y03447*
X0186Y03449*
X0186Y0345*
X0186Y03452*
X0186Y03453*
X0186Y03454*
X01861Y03459*
X01866Y03459*
G37*
G36*
X02369Y03513D02*
X0237Y03513D01*
X02371Y03512*
X02373Y03512*
X02375Y03511*
X02377Y03509*
X02379Y03508*
X02382Y03507*
X02385Y03505*
X02388Y03504*
X02408Y03494*
Y035*
Y03506*
X02412Y03507*
X02416Y03507*
X02417Y03501*
X02417Y03494*
X02434Y03502*
X02436Y03504*
X02439Y03505*
X02441Y03506*
X02443Y03507*
X02445Y03508*
X02447Y03509*
X02448Y0351*
X0245Y0351*
X0245Y0351*
X0245Y03511*
X02451Y0351*
X02451Y0351*
X02451Y0351*
X02451Y0351*
X02451Y03509*
X02451Y03509*
X02451Y03508*
X02451Y03508*
X02451Y03507*
Y03506*
X02451Y03505*
X02451Y03503*
X0245Y03502*
X02449Y03499*
X02448Y03496*
X02446Y03492*
X02443Y03487*
X0244Y0348*
X02436Y03473*
X02432Y03464*
X02429Y03458*
X02426Y03452*
X02423Y03447*
X02421Y03442*
X02418Y03437*
X02416Y03433*
X02415Y0343*
X02414Y03428*
X02413Y03427*
X02412Y03426*
X02412Y03427*
X02411Y03428*
X0241Y03431*
X02408Y03435*
X02406Y03439*
X02403Y03444*
X024Y0345*
X02397Y03456*
X02394Y03463*
X0239Y0347*
X02386Y03477*
X02383Y03484*
X0238Y0349*
X02377Y03495*
X02375Y03501*
X02373Y03505*
X02371Y03508*
X0237Y03511*
X02369Y03513*
X02369Y03513*
X02369Y03513*
G37*
G36*
X02221Y03454D02*
X02226Y03454D01*
X02225Y03449*
X02225Y03448*
X02225Y03447*
X02225Y03445*
X02225Y03444*
X02225Y03443*
X02225Y03441*
X02224Y03439*
X02224Y03438*
X02224Y03436*
X02224Y03435*
Y03425*
X02215*
Y03434*
X02215Y03436*
X02215Y03437*
X02215Y03439*
X02215Y03441*
X02215Y03442*
X02215Y03444*
X02215Y03445*
X02215Y03447*
X02215Y03448*
X02215Y03449*
X02216Y03454*
X02221Y03454*
G37*
G36*
X05977Y03424D02*
X05927D01*
X05952Y03474*
X05977Y03424*
G37*
G36*
X02788Y03444D02*
X02788Y03443D01*
X02788Y03442*
X02788Y0344*
X02788Y03439*
X02789Y03437*
X02789Y03436*
X02789Y03434*
X02789Y03433*
X02789Y03431*
X02789Y03429*
Y03421*
X02779*
X02779Y0343*
X02779Y03431*
X02779Y03433*
X02779Y03435*
X02779Y03436*
X02779Y03438*
X02779Y03439*
X02779Y03441*
X02779Y03442*
X02779Y03443*
X02778Y03444*
X02778Y03449*
X02783Y03449*
X02788Y0345*
X02788Y03444*
G37*
G36*
X01605Y03427D02*
X01607Y03427D01*
X01609Y03426*
X01612Y03424*
X01616Y03423*
X0162Y03421*
X01624Y03419*
X01629Y03416*
X01633Y03414*
X01638Y03411*
X01669Y03395*
X01635Y03377*
X01629Y03374*
X01624Y03372*
X01619Y03369*
X01614Y03367*
X0161Y03365*
X01607Y03363*
X01604Y03362*
X01602Y03361*
X016Y0336*
X016Y0336*
X016Y0336*
X016Y03361*
X016Y03362*
X01601Y03363*
X01601Y03365*
X01602Y03367*
X01603Y03369*
X01604Y03371*
X01605Y03373*
X01606Y03375*
X01607Y03378*
X01608Y0338*
X01609Y03382*
X0161Y03384*
X01611Y03386*
X01612Y03388*
X01612Y03389*
X01613Y0339*
X01613Y03391*
X01613Y03391*
X01612Y03391*
X01609Y03391*
X01606Y03391*
X01602Y0339*
X01597Y0339*
X01592Y03389*
X01587Y03389*
X01583Y03388*
X01579Y03387*
X01575Y03386*
X01569Y03384*
X01564Y03382*
X01558Y0338*
X01553Y03377*
X01548Y03374*
X01544Y0337*
X01539Y03367*
X01536Y03363*
X01532Y03359*
X0153Y03355*
X01528Y03351*
X01526Y03347*
X01524Y03342*
X01523Y03337*
X01521Y03332*
X01521Y03327*
X0152Y03322*
X0152Y03317*
X0152Y03312*
X01521Y03307*
X01523Y03295*
X01528Y03284*
X01535Y03274*
X01545Y03266*
X01556Y03259*
X01569Y03253*
X01585Y03248*
X01603Y03244*
X01624Y03241*
X01646Y0324*
X01669Y03239*
X0167Y03235*
X0167Y03231*
X0165Y03231*
X01642Y03232*
X01635Y03232*
X01629Y03233*
X01622Y03233*
X01617Y03234*
X01611Y03235*
X01606Y03235*
X01601Y03236*
X01596Y03237*
X01591Y03238*
X01576Y03243*
X01562Y03247*
X01551Y03253*
X0154Y03259*
X01532Y03267*
X01525Y03275*
X01519Y03284*
X01516Y03294*
X01513Y03304*
X01513Y03316*
X01513Y0333*
X01516Y03343*
X01521Y03355*
X01527Y03365*
X01535Y03374*
X01545Y03382*
X01556Y03388*
X01569Y03393*
X01584Y03396*
X016Y03398*
X01602Y03398*
X01604Y03398*
X01606Y03399*
X01608Y03399*
X01609Y03399*
X01611Y03399*
X01612Y03399*
X01613Y034*
X01613Y034*
X01613Y034*
X01613Y03401*
X01613Y03401*
X01612Y03402*
X01612Y03403*
X01611Y03405*
X01611Y03406*
X0161Y03408*
X01609Y0341*
X01608Y03412*
X01607Y03414*
X01601Y03427*
X01604*
X01605Y03427*
G37*
G36*
X03746Y03414D02*
X03745Y03412D01*
X03744Y0341*
X03743Y03408*
X03742Y03406*
X03741Y03405*
X0374Y03403*
X0374Y03402*
X0374Y03401*
X03739Y03401*
X03739Y034*
X03739Y034*
X0374Y034*
X03741Y03399*
X03742Y03399*
X03743Y03399*
X03745Y03399*
X03747Y03399*
X03749Y03398*
X03751Y03398*
X03753Y03398*
X03769Y03396*
X03783Y03393*
X03796Y03388*
X03808Y03382*
X03817Y03374*
X03825Y03365*
X03832Y03355*
X03836Y03343*
X03839Y0333*
X0384Y03316*
X03839Y03304*
X03837Y03294*
X03833Y03284*
X03828Y03275*
X03821Y03267*
X03812Y03259*
X03802Y03253*
X0379Y03247*
X03777Y03243*
X03761Y03238*
X03756Y03237*
X03751Y03236*
X03746Y03235*
X03741Y03235*
X03736Y03234*
X0373Y03233*
X03724Y03233*
X03717Y03232*
X0371Y03232*
X03703Y03231*
X03683Y03231*
X03683Y03235*
X03683Y03239*
X03706Y0324*
X03729Y03241*
X03749Y03244*
X03767Y03248*
X03783Y03253*
X03797Y03259*
X03808Y03266*
X03817Y03274*
X03824Y03284*
X03829Y03295*
X03832Y03307*
X03832Y03312*
X03832Y03317*
X03832Y03322*
X03832Y03327*
X03831Y03332*
X0383Y03337*
X03829Y03342*
X03827Y03347*
X03825Y03351*
X03823Y03355*
X0382Y03359*
X03817Y03363*
X03813Y03367*
X03809Y0337*
X03804Y03374*
X03799Y03377*
X03794Y0338*
X03789Y03382*
X03783Y03384*
X03777Y03386*
X03774Y03387*
X0377Y03388*
X03765Y03389*
X0376Y03389*
X03756Y0339*
X03751Y0339*
X03747Y03391*
X03743Y03391*
X03741Y03391*
X0374Y03391*
X0374Y03391*
X0374Y0339*
X0374Y03389*
X03741Y03388*
X03741Y03386*
X03742Y03384*
X03743Y03382*
X03744Y0338*
X03745Y03378*
X03746Y03375*
X03747Y03373*
X03748Y03371*
X03749Y03369*
X0375Y03367*
X03751Y03365*
X03752Y03363*
X03752Y03362*
X03752Y03361*
X03753Y0336*
X03753Y0336*
X03752Y0336*
X03751Y03361*
X03749Y03362*
X03746Y03363*
X03742Y03365*
X03738Y03367*
X03734Y03369*
X03729Y03372*
X03723Y03374*
X03718Y03377*
X03683Y03395*
X03714Y03411*
X03719Y03414*
X03724Y03416*
X03729Y03419*
X03733Y03421*
X03737Y03423*
X0374Y03424*
X03743Y03426*
X03746Y03427*
X03747Y03427*
X03748Y03427*
X03752*
X03746Y03414*
G37*
G36*
X02582Y03218D02*
X02582Y03216D01*
X02582Y03215*
X02582Y03213*
X02582Y03212*
X02582Y0321*
X02582Y03208*
X02582Y03207*
X02583Y03206*
X02583Y03205*
X02583Y03204*
X02583Y03199*
X02579Y03198*
X02574Y03198*
X02573Y03204*
X02573Y03205*
X02573Y03206*
X02573Y03207*
X02573Y03209*
X02573Y0321*
X02573Y03212*
X02573Y03214*
X02573Y03215*
X02573Y03217*
X02573Y03218*
Y03227*
X02582*
X02582Y03218*
G37*
G36*
X0277Y03226D02*
X02771Y03224D01*
X02773Y03222*
X02774Y03219*
X02776Y03215*
X02778Y03211*
X02781Y03206*
X02784Y032*
X02787Y03195*
X0279Y03189*
X02794Y0318*
X02798Y03172*
X02801Y03166*
X02803Y03161*
X02805Y03157*
X02807Y03153*
X02808Y03151*
X02808Y03149*
X02809Y03148*
X02809Y03146*
Y03146*
X02809Y03145*
X02809Y03144*
X02809Y03144*
X02809Y03143*
X02809Y03143*
X02808Y03143*
X02808Y03142*
X02808Y03142*
X02808Y03142*
X02808Y03142*
X02807Y03142*
X02806Y03143*
X02805Y03144*
X02803Y03144*
X02801Y03145*
X02799Y03146*
X02797Y03148*
X02794Y03149*
X02791Y0315*
X02775Y03158*
X02775Y03152*
X02774Y03145*
X0277Y03146*
X02765Y03146*
Y03152*
Y03158*
X02746Y03149*
X02743Y03147*
X0274Y03146*
X02737Y03144*
X02735Y03143*
X02732Y03142*
X0273Y03141*
X02729Y0314*
X02727Y0314*
X02727Y03139*
X02726Y03139*
X02727Y0314*
X02727Y03141*
X02729Y03144*
X0273Y03148*
X02732Y03152*
X02735Y03157*
X02738Y03163*
X02741Y03169*
X02744Y03176*
X02748Y03183*
X02751Y0319*
X02755Y03197*
X02758Y03203*
X02761Y03208*
X02763Y03214*
X02766Y03218*
X02767Y03222*
X02769Y03224*
X0277Y03226*
X0277Y03226*
X0277Y03226*
G37*
G36*
X02948Y03227D02*
X02953Y03226D01*
X02954Y03198*
X02956Y03169*
X02959Y03144*
X02963Y03121*
X02969Y03102*
X02976Y03085*
X02985Y03071*
X02995Y03059*
X03007Y0305*
X0302Y03044*
X03034Y03041*
X0304Y0304*
X03046Y0304*
X03052Y0304*
X03058Y03041*
X03065Y03042*
X03071Y03043*
X03076Y03045*
X03082Y03047*
X03087Y03049*
X03092Y03052*
X03097Y03055*
X03102Y0306*
X03106Y03064*
X0311Y03069*
X03114Y03075*
X03118Y03081*
X03122Y03088*
X03125Y03095*
X03127Y03102*
X03129Y03109*
X0313Y03113*
X03131Y03118*
X03132Y03124*
X03133Y0313*
X03134Y03136*
X03134Y03142*
X03135Y03147*
X03135Y03151*
X03135Y03154*
X03135Y03156*
X03135Y03156*
X03134Y03156*
X03133Y03155*
X03131Y03154*
X03129Y03154*
X03127Y03153*
X03125Y03152*
X03122Y0315*
X03119Y03149*
X03116Y03148*
X03113Y03146*
X03111Y03145*
X03108Y03144*
X03106Y03143*
X03104Y03142*
X03102Y03141*
X031Y0314*
X03099Y0314*
X03098Y0314*
X03098Y0314*
X03098Y0314*
X03099Y03142*
X031Y03145*
X03102Y03148*
X03104Y03153*
X03106Y03158*
X03109Y03164*
X03112Y0317*
X03115Y03176*
X03119Y03183*
X0314Y03226*
X03159Y03188*
X03163Y03182*
X03166Y03176*
X03168Y0317*
X03171Y03164*
X03173Y03159*
X03175Y03155*
X03177Y03151*
X03178Y03148*
X03178Y03146*
X03179Y03145*
Y03141*
X03163Y03149*
X03161Y0315*
X03158Y03151*
X03156Y03152*
X03154Y03153*
X03152Y03154*
X0315Y03155*
X03149Y03155*
X03147Y03156*
X03147Y03156*
X03146Y03156*
X03146Y03156*
X03146Y03156*
X03145Y03154*
X03145Y03153*
X03145Y03151*
X03144Y03149*
X03144Y03147*
X03144Y03145*
X03144Y03142*
X03143Y0314*
X03141Y03119*
X03137Y03101*
X03131Y03085*
X03124Y03071*
X03115Y03059*
X03104Y03049*
X03091Y03041*
X03078Y03035*
X03062Y03032*
X03045Y03031*
X03031Y03031*
X03018Y03034*
X03006Y03039*
X02996Y03046*
X02986Y03054*
X02977Y03065*
X0297Y03078*
X02963Y03093*
X02957Y0311*
X02952Y03129*
X02951Y03135*
X0295Y03141*
X02948Y03147*
X02948Y03154*
X02947Y03161*
X02946Y03168*
X02945Y03176*
X02945Y03184*
X02944Y03192*
X02944Y03202*
X02943Y03227*
X02948Y03227*
G37*
G36*
X02584Y0317D02*
X02585Y0317D01*
X02585Y0317*
X02585Y03168*
X02585Y03166*
X02586Y03163*
X02586Y0316*
X02587Y03156*
X02587Y03153*
X02588Y0315*
X02588Y03147*
X02588Y03145*
X02589Y03144*
X02589Y03143*
X02589Y03143*
X02589Y03143*
Y03143*
X02589Y03142*
X02589Y03142*
X02589Y03142*
X02588Y03142*
X02588Y03142*
X02588Y03142*
X02588Y03142*
X02588Y03142*
X02587Y03142*
X02587Y03142*
X02586Y03142*
X02586Y03142*
X02585Y03142*
X02585Y03141*
X02584Y03141*
X02583Y03141*
X02579Y0314*
X02578Y03147*
X02578Y03151*
X02577Y03155*
X02577Y03159*
X02576Y03161*
X02576Y03164*
X02576Y03166*
Y03167*
X02576Y03168*
X02576Y03169*
X02577Y03169*
X02577Y03169*
X02578Y03169*
X02579Y0317*
X0258Y0317*
X02581Y0317*
X02582Y0317*
X02583Y0317*
X02584Y0317*
G37*
G36*
X02058Y03202D02*
X02057Y03192D01*
X02057Y03184*
X02056Y03176*
X02055Y03168*
X02055Y03161*
X02054Y03154*
X02053Y03147*
X02052Y03141*
X02051Y03135*
X02049Y03129*
X02044Y0311*
X02038Y03093*
X02032Y03078*
X02024Y03065*
X02015Y03054*
X02006Y03046*
X01995Y03039*
X01983Y03034*
X0197Y03031*
X01956Y03031*
X01939Y03032*
X01924Y03035*
X0191Y03041*
X01897Y03049*
X01887Y03059*
X01877Y03071*
X0187Y03085*
X01864Y03101*
X0186Y03119*
X01858Y0314*
X01858Y03142*
X01857Y03145*
X01857Y03147*
X01857Y03149*
X01857Y03151*
X01856Y03153*
X01856Y03154*
X01856Y03156*
X01855Y03156*
X01855Y03156*
X01855Y03156*
X01854Y03156*
X01853Y03155*
X01851Y03155*
X0185Y03154*
X01848Y03153*
X01845Y03152*
X01843Y03151*
X01841Y0315*
X01838Y03149*
X01823Y03141*
Y03145*
X01823Y03146*
X01823Y03148*
X01825Y03151*
X01826Y03155*
X01828Y03159*
X0183Y03164*
X01833Y0317*
X01836Y03176*
X01839Y03182*
X01842Y03188*
X01861Y03226*
X01883Y03183*
X01886Y03176*
X01889Y0317*
X01892Y03164*
X01895Y03158*
X01898Y03153*
X019Y03148*
X01901Y03145*
X01903Y03142*
X01903Y0314*
X01903Y0314*
X01903Y0314*
X01902Y0314*
X01901Y0314*
X01899Y03141*
X01898Y03142*
X01895Y03143*
X01893Y03144*
X01891Y03145*
X01888Y03146*
X01885Y03148*
X01882Y03149*
X01879Y0315*
X01877Y03152*
X01874Y03153*
X01872Y03154*
X0187Y03154*
X01869Y03155*
X01867Y03156*
X01867Y03156*
X01866Y03156*
X01866Y03154*
X01866Y03151*
X01866Y03147*
X01867Y03142*
X01867Y03136*
X01868Y0313*
X01869Y03124*
X0187Y03118*
X01871Y03113*
X01872Y03109*
X01874Y03102*
X01877Y03095*
X0188Y03088*
X01883Y03081*
X01887Y03075*
X01891Y03069*
X01895Y03064*
X019Y0306*
X01904Y03055*
X01909Y03052*
X01914Y03049*
X01919Y03047*
X01925Y03045*
X01931Y03043*
X01937Y03042*
X01943Y03041*
X01949Y0304*
X01955Y0304*
X01961Y0304*
X01967Y03041*
X01982Y03044*
X01995Y0305*
X02006Y03059*
X02016Y03071*
X02025Y03085*
X02032Y03102*
X02038Y03121*
X02042Y03144*
X02046Y03169*
X02048Y03198*
X02049Y03226*
X02054Y03227*
X02059Y03227*
X02058Y03202*
G37*
G36*
X03298Y03217D02*
X03303Y03216D01*
X03304Y03188*
X03306Y03159*
X03309Y03134*
X03313Y03111*
X03319Y03092*
X03326Y03075*
X03335Y03061*
X03345Y03049*
X03357Y0304*
X0337Y03034*
X03384Y03031*
X0339Y0303*
X03396Y0303*
X03402Y0303*
X03408Y03031*
X03415Y03032*
X03421Y03033*
X03426Y03035*
X03432Y03037*
X03437Y03039*
X03442Y03042*
X03447Y03045*
X03452Y0305*
X03456Y03054*
X0346Y03059*
X03464Y03065*
X03468Y03071*
X03472Y03078*
X03475Y03085*
X03477Y03092*
X03479Y03099*
X0348Y03103*
X03481Y03108*
X03482Y03114*
X03483Y0312*
X03484Y03126*
X03484Y03132*
X03485Y03137*
X03485Y03141*
X03485Y03144*
X03485Y03146*
X03485Y03146*
X03484Y03146*
X03483Y03145*
X03481Y03144*
X03479Y03144*
X03477Y03143*
X03475Y03142*
X03472Y0314*
X03469Y03139*
X03466Y03138*
X03463Y03136*
X03461Y03135*
X03458Y03134*
X03456Y03133*
X03454Y03132*
X03452Y03131*
X0345Y0313*
X03449Y0313*
X03448Y0313*
X03448Y0313*
X03448Y0313*
X03449Y03132*
X0345Y03135*
X03452Y03138*
X03454Y03143*
X03456Y03148*
X03459Y03154*
X03462Y0316*
X03465Y03166*
X03469Y03173*
X0349Y03216*
X03509Y03178*
X03513Y03172*
X03516Y03166*
X03518Y0316*
X03521Y03154*
X03523Y03149*
X03525Y03145*
X03527Y03141*
X03528Y03138*
X03528Y03136*
X03529Y03135*
Y03131*
X03513Y03139*
X03511Y0314*
X03508Y03141*
X03506Y03142*
X03504Y03143*
X03502Y03144*
X035Y03145*
X03499Y03145*
X03497Y03146*
X03497Y03146*
X03496Y03146*
X03496Y03146*
X03496Y03146*
X03495Y03144*
X03495Y03143*
X03495Y03141*
X03494Y03139*
X03494Y03137*
X03494Y03135*
X03494Y03132*
X03493Y0313*
X03491Y03109*
X03487Y03091*
X03481Y03075*
X03474Y03061*
X03465Y03049*
X03454Y03039*
X03441Y03031*
X03428Y03025*
X03412Y03022*
X03395Y03021*
X03381Y03021*
X03368Y03024*
X03356Y03029*
X03346Y03036*
X03336Y03044*
X03327Y03055*
X0332Y03068*
X03313Y03083*
X03307Y031*
X03302Y03119*
X03301Y03125*
X033Y03131*
X03298Y03137*
X03298Y03144*
X03297Y03151*
X03296Y03158*
X03295Y03166*
X03295Y03174*
X03294Y03182*
X03294Y03192*
X03293Y03217*
X03298Y03217*
G37*
G36*
X02408Y03192D02*
X02407Y03182D01*
X02407Y03174*
X02406Y03166*
X02405Y03158*
X02405Y03151*
X02404Y03144*
X02403Y03137*
X02402Y03131*
X02401Y03125*
X02399Y03119*
X02394Y031*
X02388Y03083*
X02382Y03068*
X02374Y03055*
X02365Y03044*
X02356Y03036*
X02345Y03029*
X02333Y03024*
X0232Y03021*
X02306Y03021*
X02289Y03022*
X02274Y03025*
X0226Y03031*
X02247Y03039*
X02237Y03049*
X02227Y03061*
X0222Y03075*
X02214Y03091*
X0221Y03109*
X02208Y0313*
X02208Y03132*
X02207Y03135*
X02207Y03137*
X02207Y03139*
X02207Y03141*
X02206Y03143*
X02206Y03144*
X02206Y03146*
X02205Y03146*
X02205Y03146*
X02205Y03146*
X02204Y03146*
X02203Y03145*
X02201Y03145*
X022Y03144*
X02198Y03143*
X02195Y03142*
X02193Y03141*
X02191Y0314*
X02188Y03139*
X02173Y03131*
Y03135*
X02173Y03136*
X02173Y03138*
X02175Y03141*
X02176Y03145*
X02178Y03149*
X0218Y03154*
X02183Y0316*
X02186Y03166*
X02189Y03172*
X02192Y03178*
X02211Y03216*
X02233Y03173*
X02236Y03166*
X02239Y0316*
X02242Y03154*
X02245Y03148*
X02248Y03143*
X0225Y03138*
X02251Y03135*
X02253Y03132*
X02253Y0313*
X02253Y0313*
X02253Y0313*
X02252Y0313*
X02251Y0313*
X02249Y03131*
X02248Y03132*
X02245Y03133*
X02243Y03134*
X02241Y03135*
X02238Y03136*
X02235Y03138*
X02232Y03139*
X02229Y0314*
X02227Y03142*
X02224Y03143*
X02222Y03144*
X0222Y03144*
X02219Y03145*
X02217Y03146*
X02217Y03146*
X02216Y03146*
X02216Y03144*
X02216Y03141*
X02216Y03137*
X02217Y03132*
X02217Y03126*
X02218Y0312*
X02219Y03114*
X0222Y03108*
X02221Y03103*
X02222Y03099*
X02224Y03092*
X02227Y03085*
X0223Y03078*
X02233Y03071*
X02237Y03065*
X02241Y03059*
X02245Y03054*
X0225Y0305*
X02254Y03045*
X02259Y03042*
X02264Y03039*
X02269Y03037*
X02275Y03035*
X02281Y03033*
X02287Y03032*
X02293Y03031*
X02299Y0303*
X02305Y0303*
X02311Y0303*
X02317Y03031*
X02332Y03034*
X02345Y0304*
X02356Y03049*
X02366Y03061*
X02375Y03075*
X02382Y03092*
X02388Y03111*
X02392Y03134*
X02396Y03159*
X02398Y03188*
X02399Y03216*
X02404Y03217*
X02409Y03217*
X02408Y03192*
G37*
G36*
X02765Y03117D02*
X02766Y03117D01*
X02768Y03117*
X02769Y03116*
X02769Y03116*
X0277Y03115*
X0277Y03115*
Y03113*
X0277Y03112*
X02769Y0311*
X02769Y03108*
X02768Y03105*
X02767Y03101*
X02766Y03099*
X02766Y03097*
X02765Y03096*
X02765Y03094*
X02764Y03093*
X02764Y03092*
X02763Y03091*
X02763Y0309*
X02763Y03089*
X02763Y03089*
X02762Y03089*
X02762Y03089*
X02762Y03089*
X02761Y03089*
X02761*
X02761Y03089*
X0276Y03089*
X0276Y03089*
X02759Y03089*
X02758Y03089*
X02757Y0309*
X02756Y0309*
X02755Y03091*
X02755Y03091*
X02754Y03092*
X02754Y03092*
X02754Y03093*
X02755Y03094*
X02755Y03095*
X02755Y03096*
X02756Y03097*
X02756Y03098*
X02756Y03099*
X02757Y031*
X02757Y03102*
X02757Y03103*
X02758Y03105*
X02758Y03106*
X02759Y03107*
X02759Y03109*
X0276Y03111*
X0276Y03113*
X02761Y03115*
X02761Y03116*
X02762Y03117*
X02763Y03117*
X02764Y03117*
X02765Y03117*
G37*
G36*
X02594Y03114D02*
X02594Y03114D01*
X02595Y03114*
X02595Y03113*
X02595Y03113*
X02595Y03113*
X02595Y03112*
X02596Y03112*
X02596Y03111*
X02596Y0311*
X02597Y03109*
X02597Y03108*
X02597Y03107*
X02598Y03106*
X02598Y03105*
X02598Y03104*
X02599Y03102*
X02599Y03101*
X026Y031*
X026Y03099*
X02601Y03097*
X02601Y03096*
X02602Y03095*
X02602Y03094*
X02602Y03093*
X02603Y03093*
X02603Y03092*
X02603Y03091*
X02604Y03091*
X02604Y0309*
X02604Y0309*
X02604Y03089*
X02604Y03089*
X02604Y03089*
X02604Y03089*
X02604Y03089*
X02604Y03088*
X02604Y03088*
X02603Y03088*
X02603Y03088*
X02602Y03087*
X02602Y03087*
X02601Y03087*
X02601Y03086*
X026Y03086*
X02599Y03086*
X02599Y03086*
X02598Y03085*
X02598Y03085*
X02597Y03085*
X02597Y03085*
X02597Y03085*
X02596Y03085*
X02596Y03084*
X02596Y03085*
X02595Y03087*
X02594Y03089*
X02593Y03092*
X02591Y03095*
X0259Y03098*
X02589Y03101*
X02588Y03104*
X02587Y03107*
X02587Y03109*
X02586Y0311*
X02586Y0311*
X02586Y03111*
X02586Y03111*
X02587Y03112*
X02587Y03112*
X02587Y03112*
X02588Y03113*
X02589Y03113*
X0259Y03113*
X02591Y03113*
X02591Y03113*
X02592Y03113*
X02593Y03114*
X02593Y03114*
X02594Y03114*
X02594*
G37*
G36*
X0274Y03067D02*
X02741Y03067D01*
X02742Y03066*
X02743Y03065*
X02744Y03065*
X02745Y03064*
X02746Y03063*
X02746Y03062*
X02747Y03062*
X02747Y03061*
X02747Y03061*
X02747Y03061*
X02746Y0306*
X02746Y0306*
X02745Y03059*
X02744Y03058*
X02743Y03058*
X02743Y03057*
X02742Y03056*
X0274Y03055*
X02739Y03054*
X02738Y03053*
X02737Y03051*
X02736Y0305*
X02734Y03049*
X02733Y03048*
X02732Y03048*
X02731Y03047*
X0273Y03046*
X02729Y03045*
X02724Y03042*
X02723Y03045*
X02722Y03046*
X02721Y03047*
X0272Y03049*
X0272Y03049*
X0272Y0305*
X0272Y03051*
X0272Y03051*
X02721Y03052*
X02722Y03053*
X02723Y03053*
X02724Y03054*
X02725Y03054*
X02726Y03055*
X02727Y03056*
X02728Y03057*
X02729Y03058*
X0273Y03059*
X02732Y0306*
X02733Y03061*
X02734Y03061*
X02735Y03062*
X02736Y03063*
X02737Y03064*
X02737Y03065*
X02738Y03066*
X02739Y03066*
X02739Y03067*
X0274Y03067*
X0274Y03067*
X0274Y03067*
X0274Y03067*
G37*
G36*
X02624Y0306D02*
X02625Y03059D01*
X02626Y03058*
X02627Y03057*
X02628Y03056*
X02629Y03055*
X02631Y03054*
X02632Y03054*
X02633Y03053*
X02634Y03052*
X02635Y03051*
X02636Y03051*
X02636Y0305*
X02637Y0305*
X02638Y03049*
X02638Y03049*
X02639Y03049*
X02639Y03048*
X0264Y03048*
X0264Y03048*
X0264Y03048*
X0264Y03048*
X0264Y03048*
X0264Y03047*
X0264Y03047*
X02639Y03047*
X02639Y03046*
X02639Y03046*
X02639Y03045*
X02638Y03045*
X02638Y03044*
X02638Y03043*
X02637Y03043*
X02637Y03042*
X02637Y03042*
X02636Y03041*
X02636Y03041*
X02636Y03041*
X02636Y03041*
X02635Y0304*
X02635Y0304*
X02634Y03041*
X02633Y03041*
X02632Y03042*
X0263Y03043*
X02628Y03045*
X02626Y03046*
X02623Y03048*
X02621Y0305*
X02619Y03052*
X02618Y03053*
X02612Y03059*
X02616Y03062*
X02619Y03065*
X02624Y0306*
G37*
G36*
X02693Y03042D02*
X02693Y03042D01*
X02693Y03041*
X02693Y03041*
X02694Y03041*
X02694Y03041*
X02694Y03041*
X02694Y0304*
X02694Y0304*
X02694Y03039*
X02694Y03039*
X02694Y03038*
X02694Y03038*
X02694Y03037*
X02695Y03036*
X02695Y03035*
X02695Y03035*
X02695Y03034*
X02695Y03034*
X02695Y03033*
X02694Y03033*
X02694Y03033*
X02694Y03032*
X02693Y03032*
X02693Y03032*
X02692Y03032*
X02691Y03032*
X0269Y03032*
X02688Y03032*
X02686Y03031*
X02685Y03031*
X02683Y03031*
X0268Y03031*
X02678Y03031*
X02665Y03031*
Y03034*
X02665Y03036*
X02665Y03037*
X02665Y03038*
X02666Y03039*
X02666Y03039*
X02667Y0304*
X02668Y0304*
X0267Y0304*
X02672Y0304*
X02675Y0304*
X02676Y0304*
X02677Y03041*
X02679Y03041*
X0268Y03041*
X02682Y03041*
X02683Y03041*
X02685Y03041*
X02686Y03041*
X02687Y03041*
X02688Y03041*
X02689Y03041*
X0269Y03041*
X0269Y03042*
X02691Y03042*
X02692Y03042*
X02692Y03042*
X02693Y03042*
G37*
G36*
X03737Y02945D02*
Y02942D01*
X0372*
Y02945*
Y02948*
X03737*
Y02945*
G37*
G36*
X03697Y02948D02*
X03699Y02948D01*
X03701Y02948*
X03702Y02947*
X03703Y02947*
X03704Y02947*
X03704Y02947*
X03705Y02946*
X03705Y02946*
X03705Y02945*
X03705Y02945*
X03705Y02942*
X03689*
Y02945*
Y02948*
X03697Y02948*
G37*
G36*
X03665D02*
X03668Y02948D01*
X03669Y02948*
X03671Y02947*
X03672Y02947*
X03672Y02947*
X03673Y02947*
X03673Y02946*
X03674Y02946*
X03674Y02945*
X03674Y02945*
X03674Y02942*
X03657*
Y02945*
Y02948*
X03665Y02948*
G37*
G36*
X03632Y02948D02*
X03634Y02948D01*
X03636Y02948*
X03638Y02948*
X03639Y02947*
X0364Y02947*
X03641Y02947*
X03642Y02947*
X03642Y02946*
X03642Y02946*
X03642Y02945*
X03643Y02945*
X03643Y02942*
X03634*
X03632Y02942*
X0363Y02942*
X03629Y02942*
X03627Y02942*
X03626Y02942*
X03626Y02943*
X03625Y02943*
X03625Y02944*
X03625Y02945*
X03626Y02946*
X03626Y02946*
X03626Y02947*
X03626Y02947*
X03627Y02948*
X03627Y02948*
X03628Y02948*
X03629Y02948*
X03631Y02948*
X03632Y02948*
G37*
G36*
X03603Y02948D02*
X03605Y02948D01*
X03607Y02948*
X03608Y02947*
X03609Y02947*
X0361Y02947*
X0361Y02947*
X03611Y02946*
X03611Y02946*
X03611Y02945*
X03611Y02945*
X03612Y02942*
X03595*
Y02945*
Y02948*
X03603Y02948*
G37*
G36*
X0357Y02948D02*
X03572Y02948D01*
X03574Y02948*
X03576Y02948*
X03577Y02947*
X03578Y02947*
X03579Y02947*
X03579Y02947*
X03579Y02946*
X0358Y02946*
X0358Y02945*
X0358Y02945*
X0358Y02942*
X03571*
X03569Y02942*
X03567Y02942*
X03566Y02942*
X03564Y02942*
X03564Y02942*
X03563Y02942*
X03563Y02942*
X03563Y02943*
X03562Y02943*
X03562Y02944*
X03562Y02944*
X03562Y02945*
X03562Y02945*
X03563Y02946*
X03563Y02946*
X03563Y02946*
X03563Y02947*
X03563Y02947*
X03563Y02947*
X03563Y02947*
X03563Y02947*
X03564Y02948*
X03564Y02948*
X03565Y02948*
X03566Y02948*
X03567Y02948*
X03568Y02948*
X03569*
X0357Y02948*
G37*
G36*
X0354Y02948D02*
X03542Y02948D01*
X03544Y02948*
X03546Y02947*
X03547Y02947*
X03547Y02947*
X03548Y02947*
X03548Y02946*
X03548Y02946*
X03549Y02945*
X03549Y02945*
X03549Y02942*
X03532*
Y02945*
Y02948*
X0354Y02948*
G37*
G36*
X03508Y02948D02*
X03509Y02948D01*
X03511Y02948*
X03513Y02948*
X03514Y02947*
X03515Y02947*
X03516Y02947*
X03517Y02947*
X03517Y02946*
X03517Y02946*
X03517Y02945*
X03517Y02945*
X03518Y02942*
X03509*
X03506Y02942*
X03505Y02942*
X03503Y02942*
X03502Y02942*
X03501Y02942*
X035Y02942*
X035Y02942*
X035Y02943*
X035Y02943*
X035Y02944*
X035Y02944*
X035Y02945*
X035Y02945*
X035Y02946*
X035Y02946*
X035Y02946*
X035Y02947*
X035Y02947*
X035Y02947*
X03501Y02947*
X03501Y02947*
X03501Y02948*
X03502Y02948*
X03503Y02948*
X03503Y02948*
X03504Y02948*
X03505Y02948*
X03507*
X03508Y02948*
G37*
G36*
X03485Y02945D02*
Y02942D01*
X03477*
X03475Y02942*
X03473Y02942*
X03471Y02942*
X0347Y02942*
X03469Y02942*
X03469Y02943*
X03469Y02943*
X03469Y02944*
X03469Y02945*
X03469Y02946*
X03469Y02947*
X0347Y02947*
X0347Y02947*
X03471Y02947*
X03471Y02948*
X03472Y02948*
X03473Y02948*
X03474Y02948*
X03476Y02948*
X03478Y02948*
X03485*
Y02945*
G37*
G36*
X03737Y02969D02*
X0374Y02967D01*
X03746Y02964*
X03752Y02961*
X0376Y02957*
X03767Y02953*
X03773Y0295*
X03779Y02947*
X03782Y02945*
X03783Y02944*
X03782Y02943*
X03778Y02941*
X03773Y02938*
X03766Y02935*
X03759Y02931*
X03752Y02928*
X03745Y02924*
X0374Y02922*
X03736Y0292*
X03735Y02919*
X03735Y0292*
X03735Y0292*
X03735Y02921*
X03736Y02922*
X03736Y02923*
X03737Y02925*
X03738Y02926*
X03738Y02928*
X03739Y0293*
X0374Y02932*
X03746Y02944*
X0374Y02956*
X03739Y02958*
X03738Y0296*
X03738Y02962*
X03737Y02964*
X03736Y02965*
X03736Y02966*
X03735Y02967*
X03735Y02968*
X03735Y02969*
X03734Y02969*
X03734Y02969*
X03734Y02969*
X03735Y02969*
X03735Y02969*
X03735Y02969*
X03735Y02969*
X03735Y02969*
X03735Y02969*
X03735Y02969*
X03735Y0297*
X03737Y02969*
G37*
G36*
X02019Y02969D02*
X02023Y02967D01*
X02028Y02964*
X02035Y0296*
X02042Y02956*
X02049Y02952*
X02055Y02948*
X02061Y02945*
X02064Y02943*
X02065Y02942*
X02064Y02941*
X02061Y02939*
X02055Y02935*
X02049Y02932*
X02042Y02928*
X02035Y02924*
X02028Y0292*
X02023Y02917*
X02019Y02916*
X02017Y02915*
Y02915*
X02018Y02916*
X02018Y02917*
X02018Y02918*
X02019Y02919*
X02019Y0292*
X0202Y02922*
X02021Y02923*
X02021Y02925*
X02022Y02927*
X02027Y02938*
X01751*
Y02942*
Y02945*
X02027*
X02022Y02957*
X02021Y02959*
X0202Y0296*
X0202Y02962*
X02019Y02964*
X02018Y02965*
X02018Y02966*
X02018Y02967*
X02017Y02968*
X02017Y02969*
X02017Y02969*
Y02969*
X02017Y02969*
X02017Y02969*
X02017Y02969*
X02017Y02969*
X02017Y02969*
X02017Y02969*
X02017Y02969*
X02017Y02969*
X02017Y0297*
X02019Y02969*
G37*
G36*
X03582Y02844D02*
X03584Y02843D01*
X03585Y02843*
X03586Y02842*
X03588Y02841*
X03588Y0284*
X03589Y02839*
X03589Y02838*
X0359Y02837*
X0359Y02836*
X0359Y02835*
X0359Y02833*
X03591Y02831*
X03591Y02829*
X03591Y02826*
X03591Y02823*
X03591Y0282*
X03591Y02818*
X03591Y02816*
X03591Y02814*
X03591Y02813*
X03592Y02813*
X03592Y02812*
X03593Y02812*
X03594Y02811*
X03595Y02811*
X03596Y0281*
X03596Y0281*
X03596Y02809*
X03595Y02809*
X03594Y02809*
X03593Y02809*
X03591Y02808*
X03589Y02808*
X03587Y02808*
X03584Y02808*
X03582Y02808*
X03581Y02809*
X03579Y02809*
X03579Y02809*
X03578Y0281*
X03578Y0281*
X03578Y0281*
X03579Y02811*
X03581Y02812*
X03581Y02812*
X03582Y02812*
X03582Y02813*
X03583Y02813*
X03583Y02814*
X03583Y02815*
X03583Y02816*
X03583Y02818*
X03583Y02821*
X03583Y02824*
X03583Y02826*
X03583Y02828*
X03583Y0283*
X03583Y02832*
X03583Y02833*
X03583Y02834*
X03583Y02835*
X03582Y02836*
X03582Y02836*
X03582Y02837*
X03581Y02837*
X0358Y02838*
X03579Y02838*
X03578Y02838*
X03577Y02838*
X03576Y02838*
X03575Y02838*
X03574Y02837*
X03573Y02837*
X03572Y02836*
X03572Y02835*
X03571Y02835*
X03571Y02834*
X0357Y02834*
X0357Y02833*
X0357Y02832*
X0357Y0283*
X0357Y02828*
X0357Y02826*
X0357Y02823*
X0357Y02821*
X0357Y02819*
X0357Y02817*
X0357Y02816*
X03571Y02815*
X03571Y02814*
X03571Y02813*
X03571Y02813*
X03572Y02812*
X03573Y02812*
X03573Y02812*
X03573Y02812*
X03574Y02811*
X03574Y02811*
X03574Y02811*
X03574Y02811*
X03575Y0281*
X03575Y0281*
X03575Y0281*
X03575Y0281*
X03575Y02809*
X03575Y02809*
X03574Y02809*
X03574Y02809*
X03573Y02809*
X03572Y02808*
X03571Y02808*
X0357Y02808*
X03568Y02808*
X03567Y02808*
X03565Y02808*
X03563Y02808*
X03562Y02808*
X03561Y02808*
X0356Y02809*
X03559Y02809*
X03559Y02809*
X03558Y02809*
X03558Y0281*
X03558Y0281*
X03558Y0281*
X03558Y0281*
X03558Y02811*
X03559Y02811*
X03559Y02811*
X03559Y02811*
X03559Y02811*
X0356Y02811*
X0356Y02811*
X0356Y02812*
X03561Y02812*
X03561Y02812*
X03562Y02812*
X03562Y02813*
X03562Y02813*
X03562Y02815*
X03562Y02816*
X03562Y02818*
X03562Y02821*
Y02824*
Y02828*
X03562Y02831*
X03562Y02833*
X03562Y02835*
X03562Y02836*
X03562Y02837*
X03562Y02837*
X03561Y02837*
X03561Y02838*
X0356Y02838*
X03559Y02838*
X03558Y02839*
X03558Y02839*
X03557Y0284*
X03557Y0284*
X03558Y02841*
X03558Y02841*
X03559Y02841*
X0356Y02842*
X03561Y02842*
X03563Y02842*
X03565Y02843*
X03566Y02843*
X03567Y02843*
X03568Y02843*
X03569Y02842*
X03569Y02842*
X03569Y02842*
X0357Y02841*
X0357Y02841*
X0357Y0284*
X0357Y0284*
X0357Y02839*
X0357Y02839*
X0357Y02839*
X03571Y02839*
X03571Y02839*
X03572Y0284*
X03573Y0284*
X03574Y02841*
X03575Y02842*
X03577Y02843*
X03578Y02843*
X0358Y02844*
X03581Y02844*
X03582Y02844*
G37*
G36*
X01993Y02826D02*
X01994Y02799D01*
X01996Y02798*
X01997Y02798*
X01998Y02797*
X01999Y02797*
X01999Y02797*
X01999Y02796*
X01999Y02796*
X01999Y02795*
X01998Y02795*
X01997Y02795*
X01996Y02794*
X01995Y02794*
X01993Y02794*
X01992Y02794*
X0199Y02794*
X01989Y02794*
X01988Y02794*
X01987Y02794*
X01986Y02794*
X01986Y02794*
X01986Y02795*
X01986Y02795*
X01985Y02795*
X01985Y02795*
X01985Y02795*
X01985Y02795*
X01984Y02795*
X01984Y02795*
X01984Y02795*
X01983Y02795*
X01983Y02794*
X01981Y02793*
X0198Y02793*
X01978Y02792*
X01978Y02797*
X0198Y02797*
X01981Y02798*
X01983Y02798*
X01984Y02799*
X01984Y028*
X01985Y02801*
X01985Y02803*
X01986Y02804*
X01986Y02806*
X01986Y02809*
X01986Y02812*
X01986Y02815*
X01986Y02817*
X01986Y02819*
X01986Y0282*
X01986Y02821*
X01985Y02822*
X01985Y02823*
X01985Y02824*
X01984Y02825*
X01983Y02825*
X01982Y02826*
X01981Y02827*
X0198Y02828*
X01979Y02828*
X01978Y02828*
X01977Y02828*
X01976Y02828*
X01975Y02827*
X01974Y02826*
X01973Y02825*
X01971Y02822*
X0197Y02818*
X0197Y02814*
X0197Y0281*
X01971Y02807*
X01972Y02803*
X01973Y028*
X01975Y02798*
X01978Y02797*
X01976Y02792*
X01974Y02793*
X01973Y02793*
X01971Y02794*
X0197Y02795*
X01968Y02796*
X01967Y02797*
X01965Y02801*
X01963Y02804*
X01962Y02808*
X01962Y02811*
X01962Y02815*
X01962Y02819*
X01964Y02822*
X01965Y02825*
X01968Y02828*
X0197Y0283*
X01971Y0283*
X01972Y02831*
X01973Y02831*
X01974Y02831*
X01975Y02831*
X01976Y02831*
X01977Y02831*
X01978Y02831*
X01979Y02831*
X0198Y02831*
X01986Y02831*
Y02837*
X01986Y02839*
X01986Y02841*
X01986Y02843*
X01985Y02844*
X01985Y02845*
X01984Y02846*
X01984Y02847*
X01983Y02848*
X01982Y02848*
X01981Y02848*
X01981Y02848*
X0198Y02848*
X01979Y02848*
X01979Y02849*
X01978Y02849*
X01978Y02849*
X01978Y0285*
X01978Y0285*
X01978Y02851*
X01978Y02851*
X01978Y02852*
X01979Y02852*
X01979Y02852*
X0198Y02852*
X01981Y02852*
X01982Y02852*
X01983Y02852*
X01984Y02853*
X01985Y02853*
X01986Y02853*
X01993*
X01993Y02826*
G37*
G36*
X01956Y02831D02*
X01957Y02831D01*
X01958Y0283*
X01959Y02829*
X01959Y02827*
X01959Y02826*
X01959Y02824*
X01958Y02823*
X01958Y02822*
X01957Y02821*
X01956Y02821*
X01955*
X01954Y02821*
X01953Y02822*
X01952Y02823*
X01951Y02824*
X0195Y02827*
X01947Y02824*
X01947Y02824*
X01946Y02823*
X01946Y02822*
X01945Y02821*
X01945Y0282*
X01945Y02819*
X01945Y02818*
X01945Y02816*
X01945Y02813*
X01945Y02811*
X01945Y02807*
X01945Y02805*
X01945Y02803*
X01945Y02801*
X01945Y028*
X01946Y02799*
X01946Y02798*
X01947Y02797*
X01948Y02797*
X01949Y02797*
X0195Y02797*
X0195Y02797*
X0195Y02797*
X0195Y02796*
X01951Y02796*
X01951Y02796*
X01951Y02796*
X01951Y02796*
X01951Y02795*
X01951Y02795*
X01951Y02795*
X0195Y02794*
X01948Y02794*
X01945Y02794*
X01943Y02794*
X0194Y02794*
X01938Y02794*
X01935Y02794*
X01934Y02794*
X01933Y02795*
X01933Y02795*
X01933Y02795*
X01933Y02795*
X01933Y02796*
X01933Y02796*
X01933Y02796*
X01933Y02796*
X01934Y02796*
X01934Y02797*
X01935Y02797*
X01937Y02798*
X01937Y02811*
X01937Y02815*
X01937Y02818*
X01937Y0282*
X01937Y02822*
X01937Y02824*
X01937Y02825*
X01936Y02826*
X01936Y02827*
X01935Y02827*
X01934Y02827*
X01934Y02828*
X01933Y02828*
X01933Y02828*
X01933Y02828*
X01933Y02828*
X01933Y02828*
X01932Y02829*
X01932Y02829*
X01932Y02829*
X01932Y02829*
X01932Y02829*
X01932Y0283*
X01932Y0283*
X01933Y0283*
X01933Y0283*
X01933Y0283*
X01933Y02831*
X01933Y02831*
X01934Y02831*
X01934Y02831*
X01934Y02831*
X01935Y02831*
X01935Y02831*
X01936Y02831*
X01937Y02831*
X01937Y02831*
X01938Y02831*
X01939Y02832*
X0194Y02832*
X0194Y02832*
X01941Y02832*
X01942Y02832*
X01943Y02832*
X01943Y02831*
X01944Y02831*
X01944Y02831*
X01944Y02831*
X01945Y0283*
X01945Y0283*
X01945Y02829*
X01945Y02829*
X01945Y02828*
X01945Y02828*
X01945Y02828*
X01945Y02828*
X01945Y02828*
X01946Y02828*
X01946Y02828*
X01947Y02829*
X01948Y02829*
X0195Y02831*
X01952Y02831*
X01953Y02832*
X01955Y02832*
X01956Y02831*
G37*
G36*
X03542Y02843D02*
X03545Y02843D01*
X03548Y02841*
X0355Y0284*
X03552Y02838*
X03553Y02835*
X03554Y02832*
X03554Y02829*
Y02827*
X03539*
X03539Y02831*
X03541Y02831*
X03542Y02831*
X03543Y02831*
X03544Y02831*
X03545Y02831*
X03545Y02831*
X03545Y02832*
X03546Y02832*
X03546Y02833*
X03546Y02833*
X03546Y02834*
X03546Y02834*
X03546Y02835*
X03545Y02835*
X03545Y02836*
X03545Y02836*
X03545Y02837*
X03544Y02837*
X03544Y02837*
X03544Y02838*
X03543Y02838*
X03542Y02839*
X03541Y02839*
X0354Y02839*
X03539Y02839*
X03538Y02839*
X03537Y02839*
X03536Y02838*
X03535Y02838*
X03534Y02837*
X03533Y02836*
X03533Y02835*
X03532Y02834*
X03532Y02833*
X03532Y02832*
X03533Y02832*
X03534Y02831*
X03535Y02831*
X03537Y02831*
X03539Y02831*
X03539Y02827*
X03539*
X03541Y02812*
X03541Y02812*
X03541Y02812*
X0354Y02812*
X03539Y02812*
X03539Y02812*
X0354Y02807*
X03537Y02807*
X03535Y02808*
X03533Y02809*
X0353Y02811*
X03527Y02814*
X03525Y02817*
X03524Y02821*
X03524Y02825*
X03525Y0283*
X03526Y02834*
X03528Y02837*
X0353Y0284*
X03534Y02842*
X03537Y02843*
X0354Y02844*
X03542Y02843*
G37*
G36*
X01783Y02848D02*
X01788Y02848D01*
X01792Y02847*
X01795Y02846*
X01797Y02845*
X01799Y02844*
X01801Y02842*
X01801Y0284*
X01802Y02837*
X01802Y02834*
X01802Y02832*
X01802Y0283*
X01801Y02829*
X01801Y02827*
X018Y02826*
X018Y02825*
X01799Y02824*
X01798Y02823*
X01796Y02822*
X01795Y02821*
X01794Y02821*
X01794Y02821*
X01794Y02821*
X01793Y0282*
X01793Y0282*
X01792Y0282*
X01792Y0282*
X01792Y0282*
X01792Y02819*
X01792Y02819*
X01792Y02819*
X01792Y02819*
X01792Y02818*
X01793Y02817*
X01794Y02816*
X01794Y02815*
X01795Y02814*
X01796Y02813*
X01797Y02812*
X01798Y0281*
X01799Y02808*
X01801Y02805*
X01803Y02803*
X01804Y02801*
X01805Y028*
X01807Y02799*
X01808Y02798*
X01809Y02797*
X0181Y02797*
X01811Y02797*
X01811Y02797*
X01811Y02797*
X01811Y02797*
X01812Y02797*
X01812Y02796*
X01812Y02796*
X01812Y02796*
X01812Y02796*
X01812Y02796*
X01812Y02795*
X01812Y02795*
X01812Y02795*
X01812Y02794*
X01812Y02794*
X01811Y02794*
X0181Y02794*
X01809Y02794*
X01808Y02794*
X01807Y02794*
X01805Y02794*
X01798*
X0179Y02806*
X01789Y02808*
X01788Y0281*
X01787Y02811*
X01785Y02813*
X01784Y02814*
X01783Y02815*
X01783Y02816*
X01782Y02817*
X01781Y02818*
X0178Y02808*
Y02808*
X0178Y02805*
X0178Y02803*
X0178Y02801*
X0178Y028*
X0178Y02799*
X01781Y02798*
X01781Y02798*
X01781Y02797*
X01782Y02797*
X01783Y02797*
X01783Y02797*
X01784Y02797*
X01784Y02797*
X01784Y02797*
X01785Y02796*
X01785Y02796*
X01785Y02796*
X01785Y02796*
X01786Y02795*
X01786Y02795*
X01786Y02795*
X01785Y02794*
X01785Y02794*
X01784Y02794*
X01783Y02794*
X01782Y02794*
X01781Y02794*
X01779Y02794*
X01777Y02794*
X0178Y02808*
X0178Y0281*
X0178Y02812*
X01781Y02818*
X01781Y02818*
X01781Y02818*
X01782Y02821*
X01784Y02822*
X01787Y02823*
X01789Y02824*
X0179Y02826*
X01792Y02828*
X01792Y0283*
X01793Y02833*
X01793Y02835*
X01792Y02838*
X01791Y0284*
X0179Y02841*
X0179Y02842*
X01789Y02842*
X01789Y02842*
X01788Y02843*
X01787Y02843*
X01787Y02843*
X01786Y02843*
X01785Y02843*
X01784Y02843*
X01779*
Y02832*
X01779Y02829*
X01779Y02827*
X01779Y02825*
X0178Y02824*
X0178Y02823*
X0178Y02822*
X0178Y02822*
X01781Y02821*
X01781Y02821*
X01782Y02821*
X01781Y02818*
X01781Y02818*
X01781Y02818*
X0178Y02818*
X0178Y02817*
X0178Y02817*
X0178Y02816*
X0178Y02815*
X0178Y02814*
X0178Y02812*
Y02812*
X01775Y02794*
X01772Y02794*
X0177Y02794*
X01769Y02794*
X01767Y02794*
X01766Y02794*
X01765Y02794*
X01765Y02794*
X01764Y02794*
X01764Y02795*
X01764Y02795*
X01764Y02795*
X01764Y02796*
X01764Y02796*
X01764Y02796*
X01765Y02796*
X01765Y02797*
X01765Y02797*
X01766Y02797*
X01766Y02797*
X01767Y02797*
X0177Y02798*
X0177Y0282*
X0177Y02842*
X01767Y02843*
X01767Y02844*
X01766Y02844*
X01766Y02844*
X01765Y02845*
X01765Y02845*
X01765Y02845*
X01764Y02845*
X01764Y02846*
X01764Y02846*
X01764Y02846*
X01764Y02847*
X01764Y02847*
X01765Y02847*
X01766Y02847*
X01767Y02848*
X01768Y02848*
X0177Y02848*
X01772Y02848*
X01775Y02848*
X01778Y02848*
X01783Y02848*
G37*
G36*
X01829Y02831D02*
X0183Y02831D01*
X01832Y02831*
X01834Y02831*
X01836Y0283*
X01837Y02829*
X01838Y02828*
X0184Y02826*
X01841Y02825*
X01841Y02823*
X01842Y02821*
X01842Y02819*
X01843Y02813*
X01828*
X01827Y02818*
X01829Y02818*
X01831Y02818*
X01832Y02818*
X01833Y02818*
X01833Y02818*
X01834Y02819*
X01834Y02819*
X01834Y02819*
X01834Y0282*
X01834Y02821*
X01834Y02821*
X01834Y02822*
X01834Y02822*
X01834Y02823*
X01834Y02823*
X01833Y02824*
X01833Y02825*
X01833Y02825*
X01832Y02826*
X01832Y02826*
X01832Y02826*
X01831Y02827*
X01831Y02827*
X0183Y02827*
X0183Y02828*
X0183Y02828*
X01829Y02828*
X01829Y02828*
X01828Y02828*
X01828Y02828*
X01827Y02828*
X01826Y02828*
X01825Y02827*
X01824Y02826*
X01823Y02825*
X01822Y02824*
X01822Y02823*
X01821Y02822*
X01821Y02821*
X01821Y0282*
X01821Y0282*
X01821Y02819*
X01821Y02819*
X01821Y02818*
X01822Y02818*
X01822Y02818*
X01823Y02818*
X01824Y02818*
X01826Y02818*
X01827Y02818*
X01827Y02813*
X01821*
Y02809*
X01821Y02808*
X01821Y02807*
X01821Y02806*
X01821Y02806*
X01821Y02805*
X01822Y02804*
X01822Y02803*
X01823Y02803*
X01823Y02802*
X01824Y02801*
X01826Y028*
X01827Y02799*
X01828Y02798*
X01827Y02813*
X01828*
X01829Y02797*
X0183Y02797*
X01832Y02797*
X01833Y02798*
X01834Y02798*
X01835Y02799*
X01837Y02801*
X01837Y02801*
X01838Y02802*
X01839Y02802*
X01839Y02803*
X0184Y02803*
X0184Y02803*
X01841Y02803*
X01841Y02804*
X01842Y02804*
X01842Y02803*
X01842Y02803*
X01843Y02803*
X01843Y02803*
X01843Y02803*
X01843Y02803*
X01843Y02802*
X01843Y02802*
X01843Y02802*
X01842Y02801*
X01842Y02801*
X01841Y02798*
X01839Y02797*
X01837Y02795*
X01835Y02794*
X01832Y02793*
X0183Y02793*
X01829Y02797*
X01829Y02797*
X01828Y02798*
X01828Y02798*
X01828Y02792*
X01825Y02793*
X01823Y02793*
X01821Y02794*
X01818Y02797*
X01816Y028*
X01814Y02804*
X01813Y02808*
X01813Y02812*
X01813Y02816*
X01814Y02821*
X01816Y02824*
X01818Y02827*
X01821Y0283*
X01822Y0283*
X01822Y02831*
X01823Y02831*
X01824Y02831*
X01825Y02831*
X01826Y02831*
X01827Y02831*
X01828Y02831*
X01829Y02831*
G37*
G36*
X03552Y02818D02*
X03553Y02818D01*
X03553Y02817*
X03553Y02817*
X03554Y02817*
X03554Y02817*
X03554Y02816*
X03555Y02816*
X03555Y02816*
X03554Y02816*
X03554Y02815*
X03554Y02815*
X03554Y02814*
X03553Y02813*
X03552Y02812*
X0355Y0281*
X03548Y02809*
X03546Y02808*
X03544Y02808*
X03542Y02807*
X03541Y02812*
X03541Y02812*
X03542Y02812*
X03543Y02812*
X03545Y02812*
X03546Y02813*
X03547Y02813*
X03548Y02814*
X03549Y02814*
X0355Y02815*
X0355Y02816*
X03551Y02816*
X03551Y02817*
X03551Y02817*
X03551Y02817*
X03552Y02817*
X03552Y02818*
X03552Y02818*
X03552Y02818*
G37*
G36*
X035Y02858D02*
X03504Y02858D01*
X03508Y02857*
X03511Y02857*
X03513Y02856*
X03514Y02856*
X03515Y02855*
X03517Y02854*
X03518Y02853*
X03518Y02852*
X03519Y02851*
X0352Y0285*
X0352Y02848*
X0352Y02847*
X0352Y02845*
X0352Y02843*
X03519Y02841*
X03519Y02838*
X03517Y02836*
X03516Y02835*
X03514Y02833*
X03512Y02832*
X03509Y02831*
X03507Y0283*
X03504Y0283*
X03498Y0283*
X03498Y02821*
X03498Y02818*
X03498Y02817*
X03498Y02815*
X03498Y02814*
X03499Y02813*
X03499Y02813*
X03499Y02812*
X035Y02812*
X035Y02812*
X03501Y02812*
X03502Y02812*
X03502Y02812*
X03502Y02811*
X03503Y02811*
X03503Y02811*
X03503Y02811*
X03504Y02811*
X03504Y0281*
X03504Y0281*
X03504Y0281*
X03504Y02809*
X03504Y02809*
X03503Y02809*
X03503Y02809*
X03502Y02809*
X03501Y02808*
X03499Y02808*
X03498Y02808*
X03495Y02808*
X03498Y02834*
X03502Y02834*
X03504Y02835*
X03505Y02835*
X03506Y02836*
X03507Y02836*
X03508Y02837*
X03509Y02838*
X0351Y0284*
X0351Y02841*
X0351Y02843*
X0351Y02844*
X0351Y02845*
X0351Y02846*
X0351Y02847*
X0351Y02848*
X0351Y02848*
X0351Y02849*
X03509Y0285*
X03509Y0285*
X03509Y02851*
X03508Y02851*
X03508Y02852*
X03508Y02852*
X03507Y02852*
X03507Y02853*
X03506Y02853*
X03505Y02853*
X03505Y02854*
X03504Y02854*
X03503Y02854*
X03502Y02854*
X03498Y02855*
Y02844*
Y02834*
X03493Y02808*
X03491Y02808*
X03489Y02808*
X03487Y02808*
X03486Y02808*
X03484Y02809*
X03484Y02809*
X03483Y02809*
X03483Y02809*
X03482Y02809*
Y0281*
X03482Y0281*
X03483Y0281*
X03483Y0281*
X03483Y0281*
X03483Y02811*
X03484Y02811*
X03484Y02811*
X03485Y02811*
X03485Y02811*
X03485Y02812*
X03488Y02812*
X03488Y02833*
X03488Y02853*
X03485Y02854*
X03485Y02854*
X03484Y02854*
X03484Y02855*
X03483Y02855*
X03483Y02855*
X03483Y02855*
X03482Y02855*
X03482Y02856*
X03482Y02856*
X03482Y02856*
X03483Y02857*
X03485Y02857*
X03488Y02858*
X03491Y02858*
X03496Y02858*
X035Y02858*
G37*
G36*
X03642Y02863D02*
X03645Y02863D01*
X03646Y02838*
X03646Y02813*
X03648Y02811*
X0365Y02811*
X03651Y0281*
X03651Y0281*
X03651Y0281*
X03651Y02809*
X0365Y02809*
X03648Y02809*
X03647Y02808*
X03645Y02808*
X03642Y02808*
X0364Y02808*
X03638Y02808*
X03636Y02809*
X03635Y02809*
X03634Y02809*
X03633Y0281*
Y0281*
X03634Y0281*
X03635Y02811*
X03636Y02812*
X03639Y02813*
X03638Y02834*
X03638Y02856*
X03635Y02858*
X03634Y02858*
X03633Y02859*
X03633Y02859*
X03632Y0286*
X03632Y0286*
X03632Y02861*
X03633Y02861*
X03634Y02862*
X03634Y02862*
X03636Y02862*
X03636Y02862*
X03637Y02862*
X03638Y02862*
X03638Y02863*
X03639Y02863*
X0364Y02863*
X0364Y02863*
X03641Y02863*
X03642*
X03642Y02863*
G37*
G36*
X03615Y02844D02*
X03617Y02843D01*
X03619Y02843*
X03621Y02842*
X03622Y02842*
X03623Y02841*
X03624Y0284*
X03624Y02839*
X03625Y02839*
X03625Y02838*
X03625Y02837*
X03625Y02835*
X03626Y02833*
X03626Y02831*
X03626Y02828*
X03626Y02825*
X03626Y02822*
X03626Y02819*
X03626Y02817*
X03627Y02815*
X03627Y02814*
X03627Y02813*
X03627Y02812*
X03628Y02812*
X03628Y02812*
X03629Y02812*
X03629Y02812*
X0363Y02811*
X0363Y02811*
X0363Y02811*
X03631Y02811*
X03631Y02811*
X03631Y0281*
X03631Y0281*
X03631Y0281*
X03631Y0281*
X03631Y02809*
X0363Y02808*
X03629Y02808*
X03628Y02808*
X03627Y02807*
X03625Y02807*
X03624Y02807*
X03623Y02808*
X03622Y02808*
X03621Y02809*
X0362Y02809*
X0362Y0281*
X03619Y0281*
X03619Y0281*
X03619Y0281*
X03618Y0281*
X03618Y0281*
X03617Y0281*
X03617Y02809*
X03616Y02809*
X03614Y02808*
X03613Y02808*
X03611Y02807*
X0361Y02807*
X03612Y02812*
X03613Y02812*
X03614Y02812*
X03615Y02812*
X03616Y02813*
X03616Y02813*
X03617Y02814*
X03618Y02814*
X03618Y02815*
X03618Y02815*
X03618Y02815*
X03618Y02816*
X03618Y02817*
X03618Y02818*
X03619Y02818*
X03619Y02819*
X03619Y0282*
X03619Y02821*
X03618Y02826*
X03615Y02825*
X03613Y02824*
X03611Y02823*
X0361Y02821*
X03609Y0282*
X03608Y02819*
X03607Y02817*
X03607Y02816*
X03607Y02815*
X03608Y02813*
X03609Y02813*
X0361Y02812*
X03611Y02812*
X03612Y02812*
X03608Y02807*
X03607Y02807*
X03605Y02808*
X03604Y02808*
X03603Y02809*
X03602Y02809*
X03601Y0281*
X03601Y0281*
X03601Y02811*
X036Y02811*
X036Y02812*
X036Y02812*
X036Y02813*
X036Y02814*
X03599Y02815*
X03599Y02816*
X036Y02817*
X036Y02819*
X036Y0282*
X03601Y02821*
X03602Y02822*
X03603Y02823*
X03604Y02824*
X03606Y02825*
X03608Y02826*
X03611Y02827*
X03613Y02827*
X03614Y02828*
X03615Y02828*
X03616Y02829*
X03617Y02829*
X03617Y0283*
X03618Y0283*
X03618Y02831*
X03618Y02831*
X03619Y02832*
X03619Y02833*
X03618Y02834*
X03618Y02835*
X03618Y02836*
X03617Y02837*
X03616Y02838*
X03615Y02839*
X03615Y02839*
X03613Y02839*
X03612Y02839*
X03612Y02839*
X03611Y02839*
X03611Y02839*
X0361Y02839*
X0361Y02839*
X0361Y02839*
X03609Y02838*
X03609Y02838*
X03609Y02837*
X03609Y02836*
X03609Y02835*
X03609Y02834*
X03608Y02833*
X03608Y02832*
X03607Y02831*
X03606Y02831*
X03605Y02831*
X03604Y02831*
X03603Y02832*
X03602Y02833*
X03601Y02833*
X03601Y02834*
X03601Y02835*
X03601Y02836*
X03602Y02837*
X03602Y02838*
X03603Y02839*
X03604Y0284*
X03605Y02841*
X03606Y02842*
X03608Y02843*
X0361Y02843*
X03611Y02843*
X03613Y02844*
X03615Y02844*
G37*
G36*
X01891Y02831D02*
X01892Y02831D01*
X01893Y0283*
X01894Y0283*
X01895Y0283*
X01896Y0283*
X01896Y0283*
X01897Y0283*
X01897Y0283*
X01897Y0283*
X01897Y0283*
X01897Y02829*
X01897Y02829*
X01897Y02829*
X01896Y02828*
X01896Y02828*
X01896Y02827*
X01895Y02827*
X01895Y02827*
X01894Y02826*
X01893Y02825*
X01893Y02824*
X01892Y02823*
X01892Y02822*
X01891Y02821*
X0189Y02819*
X01889Y02817*
X01889Y02814*
X01888Y02811*
X01887Y02808*
X01885Y02803*
X01884Y02799*
X01883Y02796*
X01882Y02794*
X01881Y02793*
X0188Y02794*
X01879Y02795*
X01878Y02797*
X01876Y02801*
X01875Y02805*
X01874Y02807*
X01874Y02808*
X01873Y0281*
X01872Y02812*
X01872Y02813*
X01872Y02814*
X01871Y02815*
X01871Y02816*
X01871Y02817*
X0187Y02817*
X0187Y02817*
X0187Y02817*
X0187Y02816*
X01869Y02815*
X01869Y02814*
X01868Y02813*
X01868Y02811*
X01867Y02809*
X01866Y02808*
X01866Y02806*
X01865Y02803*
X01864Y028*
X01863Y02798*
X01863Y02797*
X01862Y02796*
X01862Y02795*
X01861Y02794*
X01861Y02794*
X0186Y02794*
X0186Y02794*
X01859Y02794*
X01859Y02794*
X01858Y02795*
X01858Y02796*
X01857Y02797*
X01856Y02799*
X01856Y02801*
X01855Y02803*
X01854Y02806*
X01853Y0281*
X01852Y02813*
X01851Y02816*
X0185Y02819*
X01849Y02821*
X01849Y02822*
X01848Y02824*
X01847Y02825*
X01847Y02826*
X01846Y02826*
X01846Y02826*
X01845Y02827*
X01845Y02827*
X01845Y02827*
X01844Y02827*
X01844Y02828*
X01844Y02828*
X01844Y02828*
X01844Y02829*
X01843Y02829*
X01843Y02829*
X01844Y02829*
X01844Y0283*
X01844Y0283*
X01845Y0283*
X01845Y0283*
X01846Y0283*
X01847Y0283*
X01848Y02831*
X0185Y02831*
X01851Y02831*
X01853Y02831*
X01854Y02831*
X01856Y0283*
X01857Y0283*
X01857Y0283*
X01858Y0283*
X01858Y0283*
X01859Y0283*
X01859Y02829*
X01859Y02829*
X01859Y02829*
X01859Y02828*
X01859Y02828*
X01859Y02828*
X01858Y02828*
X01858Y02827*
X01858Y02827*
X01858Y02827*
X01858Y02827*
X01857Y02827*
X01857Y02827*
X01857Y02827*
X01856Y02826*
X01856Y02826*
X01856Y02825*
X01857Y02823*
X01857Y02822*
X01858Y02819*
X01858Y02817*
X01859Y02813*
X01862Y02806*
X01866Y02818*
X01867Y0282*
X01867Y02823*
X01868Y02825*
X01869Y02826*
X01869Y02827*
X0187Y02828*
X0187Y02829*
X01871Y02829*
X01871Y02829*
X01872Y02829*
X01872Y02829*
X01873Y02829*
X01873Y02829*
X01874Y02829*
X01874Y02828*
X01874Y02828*
X01875Y02827*
X01875Y02826*
X01876Y02826*
X01876Y02824*
X01876Y02824*
X01876Y02823*
X01877Y02821*
X01877Y0282*
X01878Y02819*
X01878Y02818*
X01879Y02816*
X01879Y02815*
X01879Y02814*
X0188Y02813*
X01882Y02806*
X01885Y02815*
X01886Y02818*
X01886Y0282*
X01887Y02822*
X01887Y02824*
X01887Y02825*
X01887Y02826*
X01887Y02826*
X01887Y02827*
X01886Y02827*
X01885Y02827*
X01885Y02827*
X01885Y02827*
X01885Y02827*
X01884Y02827*
X01884Y02828*
X01884Y02828*
X01884Y02828*
X01884Y02828*
X01883Y02829*
X01883Y02829*
X01883Y02829*
X01883Y0283*
X01883Y0283*
X01884Y0283*
X01884Y0283*
X01885Y0283*
X01886Y0283*
X01887Y02831*
X01888Y02831*
X0189Y02831*
X01891Y02831*
G37*
G36*
X03662Y02853D02*
X03663Y02853D01*
X03663Y02853*
X03664Y02853*
X03664Y02853*
X03665Y02852*
X03665Y02852*
X03665Y02851*
X03665Y0285*
X03665Y02849*
X03665Y02848*
X03666Y02843*
X03678Y02842*
X03681Y02842*
X03683Y02842*
X03685Y02842*
X03687Y02842*
X03688Y02842*
X03689Y02842*
X0369Y02842*
X03691Y02841*
X03691Y02841*
X03691Y02841*
X03692Y0284*
X03691Y0284*
X03691Y0284*
X03691Y0284*
X03691Y0284*
X03691Y02839*
X03691Y02839*
X0369Y02839*
X0369Y02839*
X0369Y02839*
X03689Y02839*
X03689Y02838*
X03689Y02838*
X03688Y02838*
X03688Y02838*
X03688Y02838*
X03688Y02838*
X03688Y02837*
X03688Y02837*
X03688Y02837*
X03689Y02834*
X0369Y02831*
X03691Y02829*
X03692Y02826*
X03693Y02824*
X03694Y02823*
X03695Y02821*
X03695Y0282*
X03696Y0282*
X03696Y0282*
X03696Y0282*
X03696Y0282*
X03697Y02821*
X03697Y02822*
X03697Y02823*
X03698Y02824*
X03698Y02825*
X03699Y02826*
X03699Y02827*
X037Y02829*
X03703Y02837*
X037Y02839*
X037Y0284*
X03699Y0284*
X03699Y02841*
X03699Y02841*
X03699Y02842*
X037Y02842*
X037Y02842*
X03702Y02843*
X03703Y02843*
X03705Y02843*
X03707Y02843*
X03709Y02843*
X0371Y02842*
X03711Y02842*
X03711Y02842*
X03711Y02841*
X03711Y0284*
X03711Y0284*
X0371Y02839*
X03709Y02838*
X03709Y02837*
X03708Y02836*
X03707Y02835*
X03706Y02834*
X03705Y02832*
X03704Y0283*
X03703Y02828*
X03702Y02825*
X03701Y02822*
X037Y0282*
X03698Y02815*
X03696Y02811*
X03695Y02807*
X03693Y02804*
X03692Y02801*
X0369Y02799*
X03689Y02797*
X03688Y02795*
X03687Y02794*
X03685Y02793*
X03684Y02793*
X03682Y02792*
X03681Y02792*
X03679Y02793*
X03678Y02793*
X03677Y02794*
X03676Y02795*
X03676Y02796*
X03676Y02797*
X03676Y02799*
X03677Y02799*
X03677Y028*
X03678Y028*
X03679Y02801*
X03679Y02801*
X0368Y02801*
X03681Y028*
X03682Y028*
X03683Y028*
X03683Y02799*
X03684Y02799*
X03684Y02798*
X03685Y02798*
X03685Y02798*
X03685Y02798*
X03686Y02799*
X03686Y02799*
X03687Y028*
X03687Y028*
X03688Y02801*
X03688Y02802*
X03689Y02803*
X03689Y02804*
X0369Y02804*
X0369Y02805*
X0369Y02806*
X0369Y02807*
X03691Y02807*
X03691Y02808*
X03691Y02808*
X0369Y0281*
X03689Y02813*
X03688Y02816*
X03687Y0282*
X03685Y02825*
X03683Y02829*
X03681Y02832*
X0368Y02835*
X03679Y02837*
X03678Y02838*
X03678Y02838*
X03677Y02838*
X03676Y02839*
X03676Y02839*
X03675Y02839*
X03674Y02839*
X03673*
X03673Y02839*
X03672Y02839*
X03671Y02839*
X03666Y02838*
Y02826*
X03666Y02822*
X03666Y02819*
X03666Y02817*
X03666Y02815*
X03667Y02813*
X03668Y02813*
X03668Y02812*
X0367Y02812*
X03671Y02812*
X03673Y02812*
X03674Y02812*
X03674Y02812*
X03675Y02812*
X03675Y02812*
X03675Y02812*
X03676Y02812*
X03676Y02812*
X03676Y02812*
X03676Y02812*
X03676Y02811*
X03676Y02811*
X03675Y0281*
X03675Y02809*
X03674Y02809*
X03673Y02808*
X03672Y02808*
X0367Y02808*
X03669Y02807*
X03667Y02807*
X03666Y02807*
X03664Y02807*
X03662Y02808*
X03661Y02808*
X0366Y02809*
X03659Y0281*
X03659Y02812*
X03658Y02814*
X03658Y02817*
X03658Y02821*
X03657Y02825*
X03657Y02829*
X03657Y02831*
X03657Y02834*
X03657Y02835*
X03657Y02837*
X03657Y02837*
X03656Y02838*
X03656Y02838*
X03655Y02838*
X03655Y02838*
X03654Y02838*
X03654Y02838*
X03653Y02839*
X03653Y02839*
X03653Y02839*
X03652Y02839*
X03652Y02839*
X03652Y0284*
X03652Y0284*
X03652Y02841*
X03652Y02841*
X03652Y02841*
X03652Y02842*
X03652Y02842*
X03653Y02842*
X03653Y02842*
X03653Y02843*
X03654Y02843*
X03655Y02843*
X03655Y02843*
X03656Y02843*
X03657Y02843*
X03657Y02843*
X03658Y02843*
X03658Y02843*
X03658Y02844*
X03658Y02845*
X03658Y02846*
X03658Y02847*
Y02848*
Y02854*
X03662Y02853*
G37*
G36*
X01915Y02832D02*
X01917Y02831D01*
X01918Y02831*
X01919Y02831*
X0192Y0283*
X01921Y02829*
X01922Y02828*
X01923Y02827*
X01923Y02825*
X01924Y02824*
X01924Y02821*
X01925Y02818*
X01925Y02815*
X01925Y02811*
X01925Y02807*
X01925Y02805*
X01925Y02802*
X01926Y02801*
X01926Y02799*
X01926Y02799*
X01926Y02798*
X01927Y02798*
X01927Y02797*
X01928Y02797*
X01928Y02797*
X01929Y02797*
X01929Y02797*
X01929Y02797*
X0193Y02796*
X0193Y02796*
X0193Y02796*
X0193Y02796*
X0193Y02796*
X0193Y02795*
X0193Y02794*
X01929Y02794*
X01928Y02793*
X01927Y02793*
X01919Y02795*
X01919Y02795*
X01918Y02796*
X01918Y02796*
X01918Y02796*
X01917Y02796*
X01917Y02796*
X01916Y02796*
X01916Y02796*
X01919Y02795*
X01919Y02795*
X01919Y02794*
X01926Y02792*
X01924Y02792*
X01923Y02793*
X01921Y02793*
X0192Y02794*
X01919Y02794*
X01916Y02795*
X01915Y02795*
X01914Y02795*
X01913Y02794*
X01912Y02793*
X0191Y02793*
X01909Y02793*
X01907Y02792*
X01906Y02793*
X01904Y02793*
X01903Y02793*
X01902Y02794*
X01901Y02795*
X019Y02795*
X019Y02796*
X01899Y02796*
X01899Y02797*
X01899Y02798*
X01899Y02798*
X01898Y02799*
X01898Y028*
X01898Y02801*
X01898Y02802*
X01898Y02804*
X01899Y02805*
X01899Y02807*
X019Y02808*
X01901Y02809*
X01902Y0281*
X01903Y02811*
X01905Y02812*
X01907Y02813*
X0191Y02814*
X01912Y02815*
X01913Y02816*
X01914Y02816*
X01915Y02817*
X01916Y02817*
X01916Y02818*
X01917Y02818*
X01917Y02819*
X01917Y0282*
X01917Y02821*
X01917Y02822*
X01916Y02823*
X01916Y02824*
X01916Y02825*
X01915Y02826*
X01914Y02827*
X01913Y02828*
X01912Y02828*
X01911Y02828*
X0191Y02828*
X0191Y02828*
X01909Y02828*
X01909Y02828*
X01909Y02827*
X01908Y02827*
X01908Y02826*
X01908Y02826*
X01908Y02825*
X01908Y02825*
X01907Y02824*
X01907Y02823*
X01907Y02822*
X01907Y02821*
X01907Y02821*
X01907Y0282*
X01906Y0282*
X01906Y0282*
X01905Y02819*
X01905Y02819*
X01904Y02819*
X01903Y02819*
X01901Y0282*
X019Y02821*
X019Y02822*
X019Y02823*
X019Y02825*
X019Y02826*
X01901Y02828*
X01903Y02829*
X01905Y0283*
X01906Y02831*
X01907Y02831*
X01909Y02831*
X0191Y02831*
X01912Y02832*
X01914Y02832*
X01915Y02832*
G37*
%LNpcb3-g-2*%
%LPC*%
G36*
X03539Y02827D02*
X03532D01*
Y02823*
X03532Y02822*
X03532Y02821*
X03532Y0282*
X03533Y0282*
X03533Y02819*
X03533Y02818*
X03534Y02817*
X03534Y02817*
X03535Y02816*
X03536Y02815*
X03536Y02815*
X03537Y02814*
X03538Y02813*
X03538Y02813*
X03539Y02813*
X03539Y02812*
X03539Y02827*
G37*
G36*
X01916Y02813D02*
X01912Y02811D01*
X0191Y0281*
X01909Y02809*
X01908Y02808*
X01907Y02807*
X01906Y02806*
X01906Y02805*
X01906Y02803*
X01906Y02802*
X01906Y02801*
X01907Y028*
X01908Y02799*
X01908Y02798*
X01909Y02798*
X0191Y02797*
X0191Y02797*
X01916Y02795*
X01916Y02796*
X01916Y02796*
X0191Y02797*
X01911Y02797*
X01912Y02797*
X01913Y02798*
X01914Y02798*
X01915Y02799*
X01915Y028*
X01916Y028*
X01916Y02801*
X01916Y02801*
X01916Y02802*
X01917Y02803*
X01917Y02803*
X01917Y02804*
X01917Y02806*
X01917Y02807*
X01916Y02813*
G37*
%LNpcb3-g-3*%
%LPD*%
G54D10*
X03713Y03322D02*
D01*
X03712Y03331*
X03711Y0334*
X0371Y03349*
X03707Y03357*
X03705Y03366*
X03701Y03374*
X03697Y03383*
X03693Y0339*
X03688Y03398*
X03682Y03405*
X03676Y03412*
X03669Y03418*
X03663Y03424*
X03655Y03429*
X03648Y03434*
X03639Y03438*
X03631Y03442*
X03623Y03445*
X03614Y03448*
X03605Y0345*
X03596Y03451*
X03587Y03451*
X03578*
X03569Y03451*
X0356Y0345*
X03551Y03448*
X03542Y03445*
X03534Y03442*
X03526Y03438*
X03518Y03434*
X0351Y03429*
X03502Y03424*
X03496Y03418*
X03489Y03412*
X03483Y03405*
X03477Y03398*
X03472Y0339*
X03468Y03383*
X03464Y03374*
X0346Y03366*
X03458Y03357*
X03455Y03349*
X03454Y0334*
X03453Y03331*
X03453Y03322*
X03453Y03312*
X03454Y03303*
X03455Y03294*
X03458Y03286*
X0346Y03277*
X03464Y03269*
X03468Y0326*
X03472Y03253*
X03477Y03245*
X03483Y03238*
X03489Y03231*
X03496Y03225*
X03502Y03219*
X0351Y03214*
X03518Y03209*
X03526Y03205*
X03534Y03201*
X03542Y03198*
X03551Y03195*
X0356Y03193*
X03569Y03192*
X03578Y03192*
X03587*
X03596Y03192*
X03605Y03193*
X03614Y03195*
X03623Y03198*
X03631Y03201*
X03639Y03205*
X03648Y03209*
X03655Y03214*
X03663Y03219*
X03669Y03225*
X03676Y03231*
X03682Y03238*
X03688Y03245*
X03693Y03253*
X03697Y0326*
X03701Y03269*
X03705Y03277*
X03707Y03286*
X0371Y03294*
X03711Y03303*
X03712Y03312*
X03713Y03322*
X02995Y03322D02*
D01*
X02995Y03331*
X02994Y0334*
X02993Y03349*
X0299Y03358*
X02988Y03366*
X02984Y03375*
X0298Y03383*
X02976Y03391*
X02971Y03398*
X02965Y03405*
X02959Y03412*
X02952Y03419*
X02946Y03424*
X02938Y0343*
X0293Y03434*
X02922Y03439*
X02914Y03442*
X02906Y03446*
X02897Y03448*
X02888Y0345*
X02879Y03451*
X0287Y03452*
X02861*
X02852Y03451*
X02843Y0345*
X02834Y03448*
X02825Y03446*
X02817Y03442*
X02809Y03439*
X028Y03434*
X02793Y0343*
X02785Y03424*
X02779Y03419*
X02772Y03412*
X02766Y03405*
X0276Y03398*
X02755Y03391*
X02751Y03383*
X02747Y03375*
X02743Y03366*
X02741Y03358*
X02738Y03349*
X02737Y0334*
X02736Y03331*
X02735Y03322*
X02736Y03313*
X02737Y03304*
X02738Y03295*
X02741Y03286*
X02743Y03277*
X02747Y03269*
X02751Y03261*
X02755Y03253*
X0276Y03245*
X02766Y03238*
X02772Y03232*
X02779Y03225*
X02785Y03219*
X02793Y03214*
X028Y03209*
X02809Y03205*
X02817Y03201*
X02825Y03198*
X02834Y03196*
X02843Y03194*
X02852Y03193*
X02861Y03192*
X0287*
X02879Y03193*
X02888Y03194*
X02897Y03196*
X02906Y03198*
X02914Y03201*
X02922Y03205*
X0293Y03209*
X02938Y03214*
X02946Y03219*
X02952Y03225*
X02959Y03232*
X02965Y03238*
X02971Y03245*
X02976Y03253*
X0298Y03261*
X02984Y03269*
X02988Y03277*
X0299Y03286*
X02993Y03295*
X02994Y03304*
X02995Y03313*
X02995Y03322*
X01903D02*
D01*
X01902Y03331*
X01901Y0334*
X019Y03349*
X01897Y03358*
X01895Y03366*
X01891Y03375*
X01887Y03383*
X01883Y03391*
X01878Y03398*
X01872Y03405*
X01866Y03412*
X01859Y03419*
X01853Y03424*
X01845Y0343*
X01838Y03434*
X01829Y03439*
X01821Y03442*
X01813Y03446*
X01804Y03448*
X01795Y0345*
X01786Y03451*
X01777Y03452*
X01768*
X01759Y03451*
X0175Y0345*
X01741Y03448*
X01732Y03446*
X01724Y03442*
X01716Y03439*
X01708Y03434*
X017Y0343*
X01692Y03424*
X01686Y03419*
X01679Y03412*
X01673Y03405*
X01667Y03398*
X01662Y03391*
X01658Y03383*
X01654Y03375*
X0165Y03366*
X01648Y03358*
X01645Y03349*
X01644Y0334*
X01643Y03331*
X01643Y03322*
X01643Y03313*
X01644Y03304*
X01645Y03295*
X01648Y03286*
X0165Y03277*
X01654Y03269*
X01658Y03261*
X01662Y03253*
X01667Y03245*
X01673Y03238*
X01679Y03232*
X01686Y03225*
X01692Y03219*
X017Y03214*
X01708Y03209*
X01716Y03205*
X01724Y03201*
X01732Y03198*
X01741Y03196*
X0175Y03194*
X01759Y03193*
X01768Y03192*
X01777*
X01786Y03193*
X01795Y03194*
X01804Y03196*
X01813Y03198*
X01821Y03201*
X01829Y03205*
X01838Y03209*
X01845Y03214*
X01853Y03219*
X01859Y03225*
X01866Y03232*
X01872Y03238*
X01878Y03245*
X01883Y03253*
X01887Y03261*
X01891Y03269*
X01895Y03277*
X01897Y03286*
X019Y03295*
X01901Y03304*
X01902Y03313*
X01903Y03322*
X02273D02*
D01*
X02272Y03331*
X02271Y0334*
X0227Y03349*
X02267Y03358*
X02265Y03366*
X02261Y03375*
X02257Y03383*
X02253Y03391*
X02248Y03398*
X02242Y03405*
X02236Y03412*
X02229Y03419*
X02223Y03424*
X02215Y0343*
X02208Y03434*
X02199Y03439*
X02191Y03442*
X02183Y03446*
X02174Y03448*
X02165Y0345*
X02156Y03451*
X02147Y03452*
X02138*
X02129Y03451*
X0212Y0345*
X02111Y03448*
X02102Y03446*
X02094Y03442*
X02086Y03439*
X02078Y03434*
X0207Y0343*
X02062Y03424*
X02056Y03419*
X02049Y03412*
X02043Y03405*
X02037Y03398*
X02032Y03391*
X02028Y03383*
X02024Y03375*
X0202Y03366*
X02018Y03358*
X02015Y03349*
X02014Y0334*
X02013Y03331*
X02013Y03322*
X02013Y03313*
X02014Y03304*
X02015Y03295*
X02018Y03286*
X0202Y03277*
X02024Y03269*
X02028Y03261*
X02032Y03253*
X02037Y03245*
X02043Y03238*
X02049Y03232*
X02056Y03225*
X02062Y03219*
X0207Y03214*
X02078Y03209*
X02086Y03205*
X02094Y03201*
X02102Y03198*
X02111Y03196*
X0212Y03194*
X02129Y03193*
X02138Y03192*
X02147*
X02156Y03193*
X02165Y03194*
X02174Y03196*
X02183Y03198*
X02191Y03201*
X02199Y03205*
X02208Y03209*
X02215Y03214*
X02223Y03219*
X02229Y03225*
X02236Y03232*
X02242Y03238*
X02248Y03245*
X02253Y03253*
X02257Y03261*
X02261Y03269*
X02265Y03277*
X02267Y03286*
X0227Y03295*
X02271Y03304*
X02272Y03313*
X02273Y03322*
X0262Y03324D02*
D01*
X02619Y03333*
X02618Y03342*
X02617Y03351*
X02614Y03359*
X02612Y03368*
X02608Y03376*
X02604Y03385*
X026Y03392*
X02595Y034*
X02589Y03407*
X02583Y03414*
X02576Y0342*
X0257Y03426*
X02562Y03431*
X02555Y03436*
X02546Y0344*
X02538Y03444*
X0253Y03447*
X02521Y0345*
X02512Y03452*
X02503Y03453*
X02494Y03453*
X02485*
X02476Y03453*
X02467Y03452*
X02458Y0345*
X02449Y03447*
X02441Y03444*
X02433Y0344*
X02425Y03436*
X02417Y03431*
X02409Y03426*
X02403Y0342*
X02396Y03414*
X0239Y03407*
X02384Y034*
X02379Y03392*
X02375Y03385*
X02371Y03376*
X02367Y03368*
X02365Y03359*
X02362Y03351*
X02361Y03342*
X0236Y03333*
X0236Y03324*
X0236Y03314*
X02361Y03305*
X02362Y03296*
X02365Y03288*
X02367Y03279*
X02371Y03271*
X02375Y03262*
X02379Y03255*
X02384Y03247*
X0239Y0324*
X02396Y03233*
X02403Y03227*
X02409Y03221*
X02417Y03216*
X02425Y03211*
X02433Y03207*
X02441Y03203*
X02449Y032*
X02458Y03197*
X02467Y03195*
X02476Y03194*
X02485Y03194*
X02494*
X02503Y03194*
X02512Y03195*
X02521Y03197*
X0253Y032*
X02538Y03203*
X02546Y03207*
X02555Y03211*
X02562Y03216*
X0257Y03221*
X02576Y03227*
X02583Y03233*
X02589Y0324*
X02595Y03247*
X026Y03255*
X02604Y03262*
X02608Y03271*
X02612Y03279*
X02614Y03288*
X02617Y03296*
X02618Y03305*
X02619Y03314*
X0262Y03324*
X03348Y03322D02*
D01*
X03347Y03331*
X03346Y0334*
X03345Y03349*
X03342Y03357*
X0334Y03366*
X03336Y03374*
X03332Y03383*
X03328Y0339*
X03323Y03398*
X03317Y03405*
X03311Y03412*
X03304Y03418*
X03298Y03424*
X0329Y03429*
X03283Y03434*
X03274Y03438*
X03266Y03442*
X03258Y03445*
X03249Y03448*
X0324Y0345*
X03231Y03451*
X03222Y03451*
X03213*
X03204Y03451*
X03195Y0345*
X03186Y03448*
X03177Y03445*
X03169Y03442*
X03161Y03438*
X03153Y03434*
X03145Y03429*
X03137Y03424*
X03131Y03418*
X03124Y03412*
X03118Y03405*
X03112Y03398*
X03107Y0339*
X03103Y03383*
X03099Y03374*
X03095Y03366*
X03093Y03357*
X0309Y03349*
X03089Y0334*
X03088Y03331*
X03088Y03322*
X03088Y03312*
X03089Y03303*
X0309Y03294*
X03093Y03286*
X03095Y03277*
X03099Y03269*
X03103Y0326*
X03107Y03253*
X03112Y03245*
X03118Y03238*
X03124Y03231*
X03131Y03225*
X03137Y03219*
X03145Y03214*
X03153Y03209*
X03161Y03205*
X03169Y03201*
X03177Y03198*
X03186Y03195*
X03195Y03193*
X03204Y03192*
X03213Y03192*
X03222*
X03231Y03192*
X0324Y03193*
X03249Y03195*
X03258Y03198*
X03266Y03201*
X03274Y03205*
X03283Y03209*
X0329Y03214*
X03298Y03219*
X03304Y03225*
X03311Y03231*
X03317Y03238*
X03323Y03245*
X03328Y03253*
X03332Y0326*
X03336Y03269*
X0334Y03277*
X03342Y03286*
X03345Y03294*
X03346Y03303*
X03347Y03312*
X03348Y03322*
X05043Y03039D02*
D01*
X05042Y03042*
X05042Y03045*
X05041Y03049*
X05041Y03052*
X05039Y03056*
X05038Y03059*
X05037Y03062*
X05035Y03065*
X05033Y03068*
X05031Y03071*
X05028Y03073*
X05026Y03076*
X05023Y03078*
X0502Y0308*
X05018Y03082*
X05014Y03083*
X05011Y03085*
X05008Y03086*
X05005Y03087*
X05001Y03088*
X04998Y03088*
X04994Y03088*
X04993Y03089*
Y02849D02*
D01*
X04996Y02849*
X04999Y02849*
X05003Y0285*
X05006Y0285*
X0501Y02852*
X05013Y02853*
X05016Y02854*
X05019Y02856*
X05022Y02858*
X05025Y0286*
X05027Y02863*
X0503Y02865*
X05032Y02868*
X05034Y02871*
X05036Y02874*
X05037Y02877*
X05039Y0288*
X0504Y02883*
X05041Y02886*
X05042Y0289*
X05042Y02893*
X05042Y02897*
X05043Y02899*
X05041Y03547D02*
D01*
X0504Y0355*
X0504Y03554*
X05039Y03557*
X05039Y0356*
X05037Y03564*
X05036Y03567*
X05035Y0357*
X05033Y03573*
X05031Y03576*
X05029Y03579*
X05026Y03581*
X05024Y03584*
X05021Y03586*
X05018Y03588*
X05016Y0359*
X05012Y03592*
X05009Y03593*
X05006Y03594*
X05003Y03595*
X04999Y03596*
X04996Y03596*
X04992Y03597*
X04991Y03597*
Y0324D02*
D01*
X04994Y0324*
X04997Y0324*
X05001Y03241*
X05004Y03241*
X05008Y03243*
X05011Y03244*
X05014Y03245*
X05017Y03247*
X0502Y03249*
X05023Y03251*
X05025Y03254*
X05028Y03256*
X0503Y03259*
X05032Y03262*
X05034Y03265*
X05035Y03268*
X05037Y03271*
X05038Y03274*
X05039Y03277*
X0504Y03281*
X0504Y03284*
X0504Y03288*
X05041Y0329*
X04525Y03089D02*
X04995D01*
X05043Y02899D02*
Y03039D01*
X04525Y02849D02*
X04995D01*
X047Y03421D02*
X0504D01*
X04511Y03597D02*
X04991D01*
X05041Y0329D02*
Y03547D01*
X04501Y0324D02*
X04991D01*
X05989Y03547D02*
X06282D01*
X0534D02*
X05365D01*
X05989Y0291D02*
X06282D01*
X0534D02*
X05365D01*
X06282D02*
Y03547D01*
X0534Y03462D02*
Y03547D01*
Y0291D02*
Y02995D01*
X0225Y02829D02*
Y02802D01*
Y02823D02*
X02247Y02827D01*
X02243Y02829*
X02237*
X02233Y02827*
X02229Y02823*
X02228Y02818*
Y02814*
X02229Y02808*
X02233Y02804*
X02237Y02802*
X02243*
X02247Y02804*
X0225Y02808*
X02284Y02823D02*
X0228Y02827D01*
X02276Y02829*
X02271*
X02267Y02827*
X02263Y02823*
X02261Y02818*
Y02814*
X02263Y02808*
X02267Y02804*
X02271Y02802*
X02276*
X0228Y02804*
X02284Y02808*
X02298Y02842D02*
Y0281D01*
X023Y02804*
X02304Y02802*
X02308*
X02292Y02829D02*
X02306D01*
X02317Y02842D02*
X02319Y0284D01*
X02321Y02842*
X02319Y02844*
X02317Y02842*
X02319Y02829D02*
Y02802D01*
X02338Y02829D02*
X02334Y02827D01*
X0233Y02823*
X02328Y02818*
Y02814*
X0233Y02808*
X02334Y02804*
X02338Y02802*
X02343*
X02347Y02804*
X02351Y02808*
X02353Y02814*
Y02818*
X02351Y02823*
X02347Y02827*
X02343Y02829*
X02338*
X02362D02*
Y02802D01*
Y02821D02*
X02367Y02827D01*
X02371Y02829*
X02377*
X02381Y02827*
X02383Y02821*
Y02802*
X02424Y02835D02*
X02428Y02837D01*
X02434Y02842*
Y02802*
X029Y02829D02*
Y02802D01*
Y02823D02*
X02897Y02827D01*
X02893Y02829*
X02887*
X02883Y02827*
X02879Y02823*
X02878Y02818*
Y02814*
X02879Y02808*
X02883Y02804*
X02887Y02802*
X02893*
X02897Y02804*
X029Y02808*
X02934Y02823D02*
X0293Y02827D01*
X02926Y02829*
X02921*
X02917Y02827*
X02913Y02823*
X02911Y02818*
Y02814*
X02913Y02808*
X02917Y02804*
X02921Y02802*
X02926*
X0293Y02804*
X02934Y02808*
X02948Y02842D02*
Y0281D01*
X0295Y02804*
X02954Y02802*
X02958*
X02942Y02829D02*
X02956D01*
X02967Y02842D02*
X02969Y0284D01*
X02971Y02842*
X02969Y02844*
X02967Y02842*
X02969Y02829D02*
Y02802D01*
X02988Y02829D02*
X02984Y02827D01*
X0298Y02823*
X02978Y02818*
Y02814*
X0298Y02808*
X02984Y02804*
X02988Y02802*
X02993*
X02997Y02804*
X03001Y02808*
X03003Y02814*
Y02818*
X03001Y02823*
X02997Y02827*
X02993Y02829*
X02988*
X03012D02*
Y02802D01*
Y02821D02*
X03017Y02827D01*
X03021Y02829*
X03027*
X03031Y02827*
X03033Y02821*
Y02802*
X03076Y02833D02*
Y02835D01*
X03078Y02839*
X0308Y0284*
X03084Y02842*
X03092*
X03095Y0284*
X03097Y02839*
X03099Y02835*
Y02831*
X03097Y02827*
X03093Y02821*
X03074Y02802*
X03101*
X04819Y02989D02*
X04817Y02993D01*
X04812Y02998*
X04807Y03*
X04798*
X04793Y02998*
X04788Y02993*
X04786Y02989*
X04783Y02981*
Y0297*
X04786Y02962*
X04788Y02958*
X04793Y02953*
X04798Y02951*
X04807*
X04812Y02953*
X04817Y02958*
X04819Y02962*
X04833Y03D02*
Y02951D01*
X04856Y02984D02*
X04851Y02981D01*
X04846Y02977*
X04844Y0297*
Y02965*
X04846Y02958*
X04851Y02953*
X04856Y02951*
X04863*
X04868Y02953*
X04872Y02958*
X04875Y02965*
Y0297*
X04872Y02977*
X04868Y02981*
X04863Y02984*
X04856*
X04914Y02977D02*
X04909Y02981D01*
X04905Y02984*
X04898*
X04893Y02981*
X04888Y02977*
X04886Y0297*
Y02965*
X04888Y02958*
X04893Y02953*
X04898Y02951*
X04905*
X04909Y02953*
X04914Y02958*
X04925Y03D02*
Y02951D01*
X04949Y02984D02*
X04925Y0296D01*
X04934Y0297D02*
X04951Y02951D01*
X04719Y03349D02*
X0474D01*
X04747Y03352*
X04749Y03354*
X04752Y03359*
Y03366*
X04749Y03371*
X04747Y03373*
X0474Y03375*
X04719*
Y03326*
X04763Y03345D02*
X04792D01*
Y03349*
X04789Y03354*
X04787Y03356*
X04782Y03359*
X04775*
X0477Y03356*
X04765Y03352*
X04763Y03345*
Y0334*
X04765Y03333*
X0477Y03328*
X04775Y03326*
X04782*
X04787Y03328*
X04792Y03333*
X04802Y03359D02*
Y03326D01*
Y03349D02*
X04809Y03356D01*
X04814Y03359*
X04821*
X04826Y03356*
X04828Y03349*
Y03326*
X0487Y03359D02*
Y03326D01*
Y03352D02*
X04865Y03356D01*
X04861Y03359*
X04853*
X04849Y03356*
X04844Y03352*
X04842Y03345*
Y0334*
X04844Y03333*
X04849Y03328*
X04853Y03326*
X04861*
X04865Y03328*
X0487Y03333*
X04883Y03375D02*
Y03326D01*
X04901Y03375D02*
Y03335D01*
X04903Y03328*
X04908Y03326*
X04913*
X04894Y03359D02*
X04911D01*
X04923D02*
X04937Y03326D01*
X04951Y03359D02*
X04937Y03326D01*
X04932Y03316*
X04927Y03311*
X04923Y03309*
X0492*
X04724Y03527D02*
Y03478D01*
Y03527D02*
X04745D01*
X04752Y03525*
X04754Y03523*
X04757Y03518*
Y03513*
X04754Y03508*
X04752Y03506*
X04745Y03504*
X04724*
X0474D02*
X04757Y03478D01*
X04768Y03497D02*
X04797D01*
Y03501*
X04794Y03506*
X04792Y03508*
X04787Y03511*
X0478*
X04775Y03508*
X0477Y03504*
X04768Y03497*
Y03492*
X0477Y03485*
X04775Y0348*
X0478Y03478*
X04787*
X04792Y0348*
X04797Y03485*
X04807Y03511D02*
X04817Y03478D01*
X04826Y03511D02*
X04817Y03478D01*
X04826Y03511D02*
X04836Y03478D01*
X04845Y03511D02*
X04836Y03478D01*
X04886Y03511D02*
Y03478D01*
Y03504D02*
X04881Y03508D01*
X04876Y03511*
X04869*
X04864Y03508*
X04859Y03504*
X04857Y03497*
Y03492*
X04859Y03485*
X04864Y0348*
X04869Y03478*
X04876*
X04881Y0348*
X04886Y03485*
X04899Y03511D02*
Y03478D01*
Y03497D02*
X04901Y03504D01*
X04906Y03508*
X04911Y03511*
X04918*
X04951Y03527D02*
Y03478D01*
Y03504D02*
X04946Y03508D01*
X04942Y03511*
X04934*
X0493Y03508*
X04925Y03504*
X04923Y03497*
Y03492*
X04925Y03485*
X0493Y0348*
X04934Y03478*
X04942*
X04946Y0348*
X04951Y03485*
X03573Y035D02*
X03569Y03504D01*
X03564Y03505*
X03556*
X0355Y03504*
X03547Y035*
Y03496*
X03548Y03492*
X0355Y0349*
X03554Y03488*
X03566Y03485*
X03569Y03483*
X03571Y03481*
X03573Y03477*
Y03471*
X03569Y03467*
X03564Y03466*
X03556*
X0355Y03467*
X03547Y03471*
X03605Y035D02*
X03603Y03504D01*
X03597Y03505*
X03594*
X03588Y03504*
X03584Y03498*
X03582Y03488*
Y03479*
X03584Y03471*
X03588Y03467*
X03594Y03466*
X03595*
X03601Y03467*
X03605Y03471*
X03607Y03477*
Y03479*
X03605Y03485*
X03601Y03488*
X03595Y0349*
X03594*
X03588Y03488*
X03584Y03485*
X03582Y03479*
X03215Y035D02*
X03211Y03504D01*
X03206Y03505*
X03198*
X03192Y03504*
X03189Y035*
Y03496*
X0319Y03492*
X03192Y0349*
X03196Y03488*
X03208Y03485*
X03211Y03483*
X03213Y03481*
X03215Y03477*
Y03471*
X03211Y03467*
X03206Y03466*
X03198*
X03192Y03467*
X03189Y03471*
X03247Y03505D02*
X03228D01*
X03226Y03488*
X03228Y0349*
X03234Y03492*
X03239*
X03245Y0349*
X03249Y03486*
X03251Y03481*
Y03477*
X03249Y03471*
X03245Y03467*
X03239Y03466*
X03234*
X03228Y03467*
X03226Y03469*
X03224Y03473*
X02864Y035D02*
X0286Y03504D01*
X02855Y03505*
X02847*
X02841Y03504*
X02838Y035*
Y03496*
X02839Y03492*
X02841Y0349*
X02845Y03488*
X02857Y03485*
X0286Y03483*
X02862Y03481*
X02864Y03477*
Y03471*
X0286Y03467*
X02855Y03466*
X02847*
X02841Y03467*
X02838Y03471*
X02892Y03505D02*
X02873Y03479D01*
X02902*
X02892Y03505D02*
Y03466D01*
X02484Y035D02*
X0248Y03504D01*
X02475Y03505*
X02467*
X02461Y03504*
X02458Y035*
Y03496*
X02459Y03492*
X02461Y0349*
X02465Y03488*
X02477Y03485*
X0248Y03483*
X02482Y03481*
X02484Y03477*
Y03471*
X0248Y03467*
X02475Y03466*
X02467*
X02461Y03467*
X02458Y03471*
X02497Y03505D02*
X02518D01*
X02506Y0349*
X02512*
X02516Y03488*
X02518Y03486*
X0252Y03481*
Y03477*
X02518Y03471*
X02514Y03467*
X02508Y03466*
X02503*
X02497Y03467*
X02495Y03469*
X02493Y03473*
X02144Y035D02*
X0214Y03504D01*
X02135Y03505*
X02127*
X02121Y03504*
X02118Y035*
Y03496*
X02119Y03492*
X02121Y0349*
X02125Y03488*
X02137Y03485*
X0214Y03483*
X02142Y03481*
X02144Y03477*
Y03471*
X0214Y03467*
X02135Y03466*
X02127*
X02121Y03467*
X02118Y03471*
X02155Y03496D02*
Y03498D01*
X02157Y03502*
X02159Y03504*
X02163Y03505*
X0217*
X02174Y03504*
X02176Y03502*
X02178Y03498*
Y03494*
X02176Y0349*
X02172Y03485*
X02153Y03466*
X0218*
X01765Y035D02*
X01761Y03504D01*
X01756Y03505*
X01748*
X01742Y03504*
X01739Y035*
Y03496*
X0174Y03492*
X01742Y0349*
X01746Y03488*
X01758Y03485*
X01761Y03483*
X01763Y03481*
X01765Y03477*
Y03471*
X01761Y03467*
X01756Y03466*
X01748*
X01742Y03467*
X01739Y03471*
X01774Y03498D02*
X01778Y035D01*
X01784Y03505*
Y03466*
G54D11*
X06853Y03382D02*
D01*
X06853Y03382*
X06853Y03383*
X06853Y03383*
X06853Y03383*
X06853Y03384*
X06852Y03384*
X06852Y03384*
X06852Y03385*
X06852Y03385*
X06852Y03385*
X06852Y03385*
X06851Y03386*
X06851Y03386*
X06851Y03386*
X0685Y03386*
X0685Y03386*
X0685Y03387*
X06849Y03387*
X06849Y03387*
X06849Y03387*
X06848Y03387*
X06848Y03387*
X06848*
X06847Y03387*
X06847Y03387*
X06847Y03387*
X06846Y03387*
X06846Y03387*
X06846Y03386*
X06846Y03386*
X06845Y03386*
X06845Y03386*
X06845Y03386*
X06844Y03385*
X06844Y03385*
X06844Y03385*
X06844Y03385*
X06844Y03384*
X06843Y03384*
X06843Y03384*
X06843Y03383*
X06843Y03383*
X06843Y03383*
X06843Y03382*
X06843Y03382*
X06843Y03382*
X06843Y03381*
X06843Y03381*
X06843Y03381*
X06843Y0338*
X06843Y0338*
X06844Y0338*
X06844Y03379*
X06844Y03379*
X06844Y03379*
X06844Y03379*
X06845Y03378*
X06845Y03378*
X06845Y03378*
X06846Y03378*
X06846Y03378*
X06846Y03377*
X06846Y03377*
X06847Y03377*
X06847Y03377*
X06847Y03377*
X06848Y03377*
X06848*
X06848Y03377*
X06849Y03377*
X06849Y03377*
X06849Y03377*
X0685Y03377*
X0685Y03378*
X0685Y03378*
X06851Y03378*
X06851Y03378*
X06851Y03378*
X06852Y03379*
X06852Y03379*
X06852Y03379*
X06852Y03379*
X06852Y0338*
X06852Y0338*
X06853Y0338*
X06853Y03381*
X06853Y03381*
X06853Y03381*
X06853Y03382*
X06853Y03382*
X04333Y03047D02*
D01*
X04333Y03048*
X04333Y03048*
X04333Y03048*
X04333Y03049*
X04333Y03049*
X04332Y03049*
X04332Y0305*
X04332Y0305*
X04332Y0305*
X04332Y0305*
X04332Y03051*
X04331Y03051*
X04331Y03051*
X04331Y03051*
X0433Y03052*
X0433Y03052*
X0433Y03052*
X0433Y03052*
X04329Y03052*
X04329Y03052*
X04329Y03052*
X04328Y03052*
X04328*
X04327Y03052*
X04327Y03052*
X04327Y03052*
X04326Y03052*
X04326Y03052*
X04326Y03052*
X04326Y03052*
X04325Y03051*
X04325Y03051*
X04325Y03051*
X04324Y03051*
X04324Y0305*
X04324Y0305*
X04324Y0305*
X04324Y0305*
X04324Y03049*
X04323Y03049*
X04323Y03049*
X04323Y03048*
X04323Y03048*
X04323Y03048*
X04323Y03047*
X04323Y03047*
X04323Y03047*
X04323Y03046*
X04323Y03046*
X04323Y03046*
X04324Y03045*
X04324Y03045*
X04324Y03045*
X04324Y03044*
X04324Y03044*
X04324Y03044*
X04325Y03044*
X04325Y03043*
X04325Y03043*
X04326Y03043*
X04326Y03043*
X04326Y03043*
X04326Y03043*
X04327Y03042*
X04327Y03042*
X04327Y03042*
X04328Y03042*
X04328*
X04329Y03042*
X04329Y03042*
X04329Y03042*
X0433Y03043*
X0433Y03043*
X0433Y03043*
X0433Y03043*
X04331Y03043*
X04331Y03043*
X04331Y03044*
X04332Y03044*
X04332Y03044*
X04332Y03044*
X04332Y03045*
X04332Y03045*
X04332Y03045*
X04333Y03046*
X04333Y03046*
X04333Y03046*
X04333Y03047*
X04333Y03047*
X04333Y03047*
X04696Y0332D02*
D01*
X04696Y0332*
X04696Y0332*
X04696Y03321*
X04696Y03321*
X04696Y03321*
X04696Y03322*
X04696Y03322*
X04696Y03322*
X04695Y03323*
X04695Y03323*
X04695Y03323*
X04695Y03323*
X04694Y03324*
X04694Y03324*
X04694Y03324*
X04694Y03324*
X04693Y03324*
X04693Y03324*
X04693Y03324*
X04692Y03324*
X04692Y03325*
X04692Y03325*
X04691*
X04691Y03325*
X04691Y03324*
X0469Y03324*
X0469Y03324*
X0469Y03324*
X04689Y03324*
X04689Y03324*
X04689Y03324*
X04688Y03324*
X04688Y03323*
X04688Y03323*
X04688Y03323*
X04687Y03323*
X04687Y03322*
X04687Y03322*
X04687Y03322*
X04687Y03321*
X04687Y03321*
X04687Y03321*
X04686Y0332*
X04686Y0332*
X04686Y0332*
X04686Y03319*
X04686Y03319*
X04687Y03319*
X04687Y03318*
X04687Y03318*
X04687Y03318*
X04687Y03317*
X04687Y03317*
X04687Y03317*
X04688Y03316*
X04688Y03316*
X04688Y03316*
X04688Y03316*
X04689Y03316*
X04689Y03315*
X04689Y03315*
X0469Y03315*
X0469Y03315*
X0469Y03315*
X04691Y03315*
X04691Y03315*
X04691Y03315*
X04692*
X04692Y03315*
X04692Y03315*
X04693Y03315*
X04693Y03315*
X04693Y03315*
X04694Y03315*
X04694Y03315*
X04694Y03316*
X04694Y03316*
X04695Y03316*
X04695Y03316*
X04695Y03316*
X04695Y03317*
X04696Y03317*
X04696Y03317*
X04696Y03318*
X04696Y03318*
X04696Y03318*
X04696Y03319*
X04696Y03319*
X04696Y03319*
X04696Y0332*
G54D12*
X05999Y03565D02*
D01*
X05999Y03566*
X05999Y03566*
X05999Y03567*
X05998Y03567*
X05998Y03567*
X05998Y03568*
X05998Y03568*
X05998Y03568*
X05998Y03569*
X05997Y03569*
X05997Y03569*
X05997Y0357*
X05996Y0357*
X05996Y0357*
X05996Y0357*
X05995Y03571*
X05995Y03571*
X05995Y03571*
X05994Y03571*
X05994Y03571*
X05993Y03571*
X05993Y03571*
X05993*
X05992Y03571*
X05992Y03571*
X05991Y03571*
X05991Y03571*
X05991Y03571*
X0599Y03571*
X0599Y0357*
X0599Y0357*
X05989Y0357*
X05989Y0357*
X05989Y03569*
X05988Y03569*
X05988Y03569*
X05988Y03568*
X05988Y03568*
X05987Y03568*
X05987Y03567*
X05987Y03567*
X05987Y03567*
X05987Y03566*
X05987Y03566*
X05987Y03565*
X05987Y03565*
X05987Y03564*
X05987Y03564*
X05987Y03564*
X05987Y03563*
X05987Y03563*
X05988Y03563*
X05988Y03562*
X05988Y03562*
X05988Y03562*
X05989Y03561*
X05989Y03561*
X05989Y03561*
X0599Y0356*
X0599Y0356*
X0599Y0356*
X05991Y0356*
X05991Y0356*
X05991Y0356*
X05992Y03559*
X05992Y03559*
X05993Y03559*
X05993*
X05993Y03559*
X05994Y03559*
X05994Y0356*
X05995Y0356*
X05995Y0356*
X05995Y0356*
X05996Y0356*
X05996Y0356*
X05996Y03561*
X05997Y03561*
X05997Y03561*
X05997Y03562*
X05998Y03562*
X05998Y03562*
X05998Y03563*
X05998Y03563*
X05998Y03563*
X05998Y03564*
X05999Y03564*
X05999Y03564*
X05999Y03565*
X05999Y03565*
G54D13*
X05342Y03032D03*
Y03111D03*
Y03189D03*
Y03268D03*
Y03347D03*
Y03426D03*
G54D14*
X06905Y03571D02*
X06954D01*
X07051D02*
X07087D01*
Y03295D02*
Y03571D01*
X06905Y03295D02*
X06954D01*
X07051D02*
X07087D01*
X05111Y02862D02*
Y02901D01*
X05164Y02862D02*
Y02901D01*
X04419Y0285D02*
X04674D01*
X04419Y03087D02*
X04674D01*
X04419Y03083D02*
Y03087D01*
Y0285D02*
Y02854D01*
X04674Y0285D02*
Y02854D01*
Y03083D02*
Y03087D01*
X04419Y02925D02*
Y03012D01*
X04674Y02925D02*
Y03012D01*
X06459Y03493D02*
Y03533D01*
X06406Y03493D02*
Y03533D01*
X01799Y03286D02*
Y03333D01*
X01736Y03286D02*
Y03333D01*
X03904Y03515D02*
Y03542D01*
X03963Y03515D02*
Y03542D01*
X02178Y03286D02*
Y03333D01*
X02115Y03286D02*
Y03333D01*
X0415Y03515D02*
Y03542D01*
X04209Y03515D02*
Y03542D01*
X06459Y02937D02*
Y02976D01*
X06406Y02937D02*
Y02976D01*
X02518Y03286D02*
Y03333D01*
X02455Y03286D02*
Y03333D01*
X03904Y03222D02*
Y03249D01*
X03963Y03222D02*
Y03249D01*
X06848Y03102D02*
Y03202D01*
X07048*
Y03102D02*
Y03202D01*
X06848Y03102D02*
X07048D01*
X02898Y03286D02*
Y03333D01*
X02835Y03286D02*
Y03333D01*
X05164Y03096D02*
Y03135D01*
X05111Y03096D02*
Y03135D01*
X04441Y03556D02*
Y03595D01*
Y03241D02*
Y0328D01*
Y03595D02*
X04583D01*
X04441Y03241D02*
X04583D01*
Y0328*
Y03556D02*
Y03595D01*
X0415Y03222D02*
Y03249D01*
X04209Y03222D02*
Y03249D01*
X03249Y03286D02*
Y03333D01*
X03186Y03286D02*
Y03333D01*
X03904Y02916D02*
Y02943D01*
X03963Y02916D02*
Y02943D01*
X03607Y03286D02*
Y03333D01*
X03544Y03286D02*
Y03333D01*
X0415Y02916D02*
Y02943D01*
X04209Y02916D02*
Y02943D01*
G54D15*
X01736Y03428D02*
X01799D01*
X02115D02*
X02178D01*
X02455D02*
X02518D01*
X02835D02*
X02898D01*
X03186D02*
X03249D01*
X03544D02*
X03607D01*
G54D16*
X06864Y03679D02*
X06845Y03668D01*
X06864Y03658*
X06886Y03674D02*
X06885Y03671D01*
X06883Y03668*
X06879Y03667*
X06878*
X06874Y03668*
X06872Y03671*
X06871Y03674*
Y03675*
X06872Y03679*
X06874Y03681*
X06878Y03683*
X06879*
X06883Y03681*
X06885Y03679*
X06886Y03674*
Y03668*
X06885Y03662*
X06883Y03659*
X06879Y03658*
X06877*
X06873Y03659*
X06872Y03661*
X06893Y03683D02*
X06902Y03658D01*
X06912Y03683D02*
X06902Y03658D01*
X06888Y03079D02*
X06867Y03068D01*
X06888Y03056*
X06913Y03074D02*
X06912Y0307D01*
X06909Y03068*
X06905Y03066*
X06904*
X069Y03068*
X06897Y0307*
X06896Y03074*
Y03076*
X06897Y03079*
X069Y03082*
X06904Y03083*
X06905*
X06909Y03082*
X06912Y03079*
X06913Y03074*
Y03068*
X06912Y03061*
X06909Y03057*
X06905Y03056*
X06902*
X06898Y03057*
X06897Y0306*
X06921Y03083D02*
X06931Y03056D01*
X06942Y03083D02*
X06931Y03056D01*
X0701Y03077D02*
X07008Y03079D01*
X07006Y03082*
X07003Y03083*
X06998*
X06995Y03082*
X06992Y03079*
X06991Y03077*
X0699Y03073*
Y03066*
X06991Y03062*
X06992Y0306*
X06995Y03057*
X06998Y03056*
X07003*
X07006Y03057*
X07008Y0306*
X0701Y03062*
Y03066*
X07003D02*
X0701D01*
G54D17*
X02676Y03715D02*
X02688D01*
Y03702*
X02676*
Y03715*
Y0365D02*
X02688D01*
Y03638*
X02676*
Y0365*
Y03586D02*
X02688D01*
Y03573*
X02676*
Y03586*
Y03522D02*
X02688D01*
Y03509*
X02676*
Y03522*
Y03458D02*
X02688D01*
Y03445*
X02676*
Y03458*
Y03394D02*
X02688D01*
Y03381*
X02676*
Y03394*
Y0333D02*
X02688D01*
Y03317*
X02676*
Y0333*
Y03265D02*
X02688D01*
Y03253*
X02676*
Y03265*
Y03201D02*
X02688D01*
Y03189*
X02676*
Y03201*
Y03137D02*
X02688D01*
Y03124*
X02676*
Y03137*
Y03073D02*
X02688D01*
Y0306*
X02676*
Y03073*
Y03009D02*
X02688D01*
Y02996*
X02676*
Y03009*
Y02945D02*
X02688D01*
Y02932*
X02676*
Y02945*
Y02881D02*
X02688D01*
Y02868*
X02676*
Y02881*
M02*